<?xml version="1.0" encoding="utf-8"?>
<!-- Generator: Adobe Illustrator 16.0.0, SVG Export Plug-In . SVG Version: 6.00 Build 0)  -->
<!DOCTYPE svg PUBLIC "-//W3C//DTD SVG 1.1//EN" "http://www.w3.org/Graphics/SVG/1.1/DTD/svg11.dtd">
<svg version="1.1" id="Layer_1" xmlns="http://www.w3.org/2000/svg" xmlns:xlink="http://www.w3.org/1999/xlink" x="0px" y="0px"
	 width="200px" height="200px" viewBox="0 0 200 200" enable-background="new 0 0 200 200" xml:space="preserve">
<path fill="#FFFFFF" d="M100.238,194.501L100.238,194.501c-52.312,0-94.871-42.559-94.871-94.869
	c0-52.311,42.559-94.869,94.871-94.869c52.313,0,94.873,42.558,94.873,94.869C195.111,151.941,152.552,194.5,100.238,194.501z
	 M100.238,6.263c-51.485,0-93.371,41.885-93.371,93.369c0,51.484,41.886,93.369,93.371,93.369
	c51.486-0.001,93.373-41.886,93.373-93.369C193.611,48.148,151.725,6.263,100.238,6.263z"/>
<g>
	<path fill="#FFFFFF" d="M25.525,60.677c0.747-1.512,1.664-2.626,2.75-3.342c1.088-0.715,2.22-1.124,3.402-1.227
		c0.62-0.034,1.287,0.021,2.004,0.165c0.119,0.024,0.26,0.069,0.423,0.135c0.164,0.066,0.263,0.156,0.3,0.268
		c0.064,0.129,0.07,0.264,0.016,0.404s-0.125,0.293-0.209,0.456l-0.75,1.445c-0.086,0.163-0.168,0.312-0.248,0.45
		c-0.081,0.137-0.181,0.23-0.302,0.281c-0.158,0.087-0.331,0.115-0.521,0.081c-0.191-0.032-0.379-0.05-0.565-0.054
		c-0.276,0.026-0.546,0.066-0.81,0.117c-0.262,0.053-0.521,0.144-0.777,0.274c-0.338,0.182-0.67,0.441-0.996,0.78
		c-0.068,0.06-0.13,0.131-0.184,0.216c-0.053,0.085-0.106,0.161-0.16,0.228c-0.037,0.036-0.08,0.1-0.127,0.188
		c-0.121,0.162-0.24,0.383-0.357,0.661c-0.115,0.278-0.197,0.499-0.244,0.663c-0.023,0.119-0.051,0.227-0.083,0.323
		c-0.031,0.097-0.049,0.201-0.05,0.313c-0.037,0.47-0.023,0.915,0.041,1.334s0.211,0.828,0.436,1.228
		c0.175,0.354,0.395,0.674,0.658,0.962c0.265,0.288,0.556,0.58,0.872,0.875c0.14,0.13,0.288,0.244,0.442,0.344
		c0.156,0.1,0.307,0.206,0.455,0.321l0.289,0.149c0.074,0.076,0.164,0.137,0.272,0.183c0.106,0.047,0.213,0.097,0.316,0.15
		c0.253,0.131,0.509,0.254,0.767,0.37c0.26,0.117,0.517,0.202,0.77,0.258c0.067,0.017,0.123,0.036,0.168,0.059
		c0.044,0.023,0.1,0.044,0.166,0.06c0.865,0.185,1.651,0.235,2.361,0.152c0.713-0.082,1.388-0.38,2.031-0.894
		c0.128-0.103,0.251-0.212,0.369-0.331c0.117-0.117,0.241-0.246,0.371-0.386c0.061-0.081,0.108-0.165,0.143-0.251
		c0.035-0.085,0.087-0.156,0.154-0.216c0.076-0.073,0.148-0.177,0.219-0.31c0.068-0.134,0.115-0.26,0.141-0.379
		c0.022-0.082,0.053-0.15,0.092-0.206c0.038-0.056,0.065-0.116,0.081-0.184c0.024-0.082,0.053-0.147,0.087-0.195
		c0.033-0.048,0.051-0.108,0.052-0.184c0.049-0.238,0.095-0.46,0.134-0.665c0.041-0.204,0.059-0.411,0.055-0.62
		c-0.031-0.486-0.132-0.916-0.305-1.288c-0.174-0.372-0.434-0.751-0.779-1.137c-0.133-0.145-0.303-0.285-0.516-0.423
		c-0.211-0.138-0.402-0.148-0.576-0.031c-0.105,0.059-0.194,0.158-0.268,0.299c-0.074,0.141-0.144,0.277-0.212,0.411l-0.589,1.134
		c-0.047,0.088-0.094,0.188-0.139,0.295c-0.047,0.107-0.108,0.198-0.184,0.271l-0.104,0.2c-0.046,0.052-0.088,0.105-0.127,0.161
		c-0.038,0.056-0.083,0.098-0.136,0.127c-0.098,0.044-0.214,0.049-0.348,0.017c-0.134-0.031-0.274-0.08-0.419-0.146
		c-0.145-0.064-0.293-0.142-0.443-0.23c-0.152-0.088-0.295-0.167-0.429-0.236c-0.118-0.062-0.228-0.123-0.327-0.185
		c-0.1-0.061-0.18-0.125-0.238-0.194c-0.104-0.128-0.149-0.256-0.139-0.382c0.016-0.105,0.039-0.187,0.07-0.246l0.127-0.244
		c0.008-0.053,0.029-0.112,0.064-0.179c0.033-0.066,0.066-0.13,0.098-0.189l0.335-0.645l1.684-3.245
		c0.132-0.252,0.279-0.538,0.444-0.856s0.342-0.495,0.529-0.53c0.158-0.013,0.332,0.031,0.523,0.132
		c0.193,0.1,0.379,0.195,0.557,0.287l2.312,1.201l3.646,1.892c0.283,0.146,0.551,0.291,0.806,0.433
		c0.255,0.143,0.37,0.328,0.344,0.56c-0.001,0.112-0.036,0.231-0.101,0.357s-0.128,0.248-0.189,0.366
		c-0.154,0.297-0.297,0.547-0.432,0.75c-0.133,0.204-0.326,0.296-0.58,0.276c-0.166-0.009-0.336-0.041-0.516-0.097
		c-0.178-0.055-0.346-0.076-0.503-0.064c-0.046,0.016-0.097,0.035-0.157,0.061s-0.102,0.078-0.127,0.16
		c-0.031,0.135-0.023,0.265,0.022,0.392c0.047,0.129,0.085,0.256,0.112,0.383c0.043,0.211,0.076,0.407,0.104,0.59
		c0.027,0.184,0.051,0.384,0.07,0.601c0.018,0.255,0.008,0.509-0.029,0.762c-0.037,0.254-0.076,0.511-0.118,0.771
		c-0.009,0.089-0.03,0.177-0.065,0.263c-0.035,0.085-0.064,0.168-0.088,0.25c-0.031,0.134-0.082,0.268-0.152,0.401
		c-0.068,0.133-0.123,0.274-0.162,0.423c-0.016,0.067-0.058,0.154-0.122,0.261c-0.065,0.108-0.116,0.18-0.153,0.217l-0.116,0.223
		c-0.054,0.066-0.097,0.133-0.131,0.199c-0.034,0.067-0.079,0.134-0.132,0.2l-0.094,0.179c-0.09,0.103-0.175,0.209-0.25,0.319
		c-0.076,0.111-0.161,0.219-0.252,0.321c-0.084,0.089-0.163,0.18-0.239,0.272c-0.077,0.092-0.156,0.182-0.24,0.271
		c-0.364,0.375-0.724,0.687-1.077,0.937c-0.913,0.636-1.828,1.064-2.742,1.286c-0.914,0.221-1.939,0.282-3.072,0.184
		c-0.255-0.02-0.496-0.061-0.728-0.124c-0.23-0.062-0.47-0.111-0.714-0.145c-0.082-0.023-0.148-0.049-0.199-0.076
		c-0.053-0.027-0.123-0.045-0.213-0.054c-0.12-0.023-0.235-0.065-0.346-0.123c-0.111-0.058-0.234-0.103-0.368-0.134
		c-0.09-0.009-0.158-0.03-0.206-0.065c-0.049-0.034-0.113-0.062-0.195-0.086l-0.4-0.208c-0.09-0.009-0.212-0.054-0.369-0.135
		c-0.154-0.081-0.262-0.155-0.319-0.223l-0.245-0.127c-0.081-0.061-0.172-0.113-0.271-0.155c-0.101-0.043-0.18-0.098-0.238-0.166
		c-0.119-0.099-0.244-0.184-0.379-0.253c-0.133-0.069-0.25-0.148-0.354-0.241c-0.141-0.128-0.281-0.248-0.42-0.357
		c-0.142-0.111-0.277-0.238-0.409-0.382c-0.169-0.183-0.337-0.358-0.501-0.529c-0.166-0.171-0.322-0.35-0.469-0.539
		c-0.162-0.196-0.312-0.406-0.451-0.629c-0.139-0.222-0.266-0.438-0.383-0.649c-0.391-0.768-0.658-1.547-0.803-2.337
		c-0.146-0.79-0.159-1.662-0.04-2.616c0.011-0.201,0.047-0.409,0.11-0.621c0.062-0.212,0.122-0.425,0.178-0.641
		c0.009-0.09,0.034-0.175,0.076-0.257c0.043-0.081,0.068-0.167,0.076-0.257c0.025-0.118,0.07-0.223,0.134-0.312
		c0.065-0.088,0.108-0.192,0.134-0.312c0-0.037,0.021-0.078,0.063-0.123C25.504,60.756,25.525,60.715,25.525,60.677z"/>
	<path fill="#FFFFFF" d="M59.342,45.921c0.059,0.037,0.137,0.077,0.237,0.12c0.099,0.044,0.196,0.096,0.289,0.157
		c0.093,0.061,0.167,0.133,0.226,0.216c0.057,0.084,0.066,0.178,0.029,0.284c-0.039,0.153-0.176,0.33-0.408,0.532
		c-0.234,0.202-0.424,0.372-0.568,0.511l-0.85,0.817c-0.096,0.093-0.181,0.179-0.254,0.26c-0.072,0.081-0.154,0.146-0.251,0.189
		c-0.167,0.092-0.333,0.112-0.496,0.062c-0.153-0.039-0.298-0.098-0.431-0.177c-0.135-0.08-0.278-0.149-0.43-0.212
		c-0.246-0.135-0.494-0.266-0.746-0.396c-0.252-0.129-0.5-0.249-0.744-0.36c-0.142-0.073-0.27-0.142-0.387-0.203
		s-0.229-0.111-0.334-0.148s-0.221-0.049-0.345-0.032c-0.124,0.015-0.259,0.068-0.402,0.159c-0.061,0.059-0.12,0.111-0.181,0.156
		c-0.059,0.046-0.12,0.099-0.18,0.156l-2.854,2.742c-0.205,0.197-0.426,0.405-0.666,0.625c-0.242,0.22-0.382,0.441-0.422,0.665
		c-0.027,0.165,0,0.324,0.079,0.479s0.153,0.316,0.222,0.483c0.1,0.298,0.225,0.589,0.373,0.875
		c0.146,0.286,0.281,0.579,0.406,0.876c0.067,0.167,0.145,0.337,0.229,0.51c0.085,0.173,0.115,0.342,0.088,0.506
		c-0.014,0.106-0.07,0.224-0.167,0.352c-0.097,0.129-0.215,0.259-0.353,0.392c-0.139,0.134-0.282,0.267-0.433,0.399
		c-0.15,0.132-0.28,0.25-0.388,0.355c-0.157,0.15-0.344,0.335-0.561,0.556s-0.402,0.347-0.557,0.379
		c-0.096,0.021-0.181-0.001-0.256-0.067c-0.076-0.066-0.143-0.146-0.199-0.243c-0.058-0.096-0.108-0.191-0.154-0.286
		c-0.045-0.096-0.078-0.179-0.101-0.25c-0.146-0.393-0.306-0.783-0.481-1.17c-0.176-0.388-0.342-0.771-0.5-1.153
		c-0.044-0.142-0.101-0.273-0.17-0.393c-0.068-0.119-0.125-0.25-0.168-0.393c-0.148-0.347-0.301-0.697-0.459-1.055
		s-0.311-0.709-0.457-1.055c-0.135-0.333-0.273-0.658-0.414-0.974c-0.142-0.315-0.28-0.64-0.415-0.974
		c-0.36-0.928-0.747-1.843-1.161-2.742c-0.411-0.899-0.799-1.813-1.158-2.742c-0.033-0.084-0.068-0.155-0.102-0.215
		c-0.034-0.06-0.068-0.131-0.103-0.215c-0.147-0.346-0.3-0.696-0.458-1.055c-0.158-0.356-0.305-0.714-0.439-1.071
		c-0.066-0.189-0.146-0.375-0.237-0.554s-0.122-0.363-0.095-0.551c0.025-0.095,0.074-0.199,0.148-0.316
		c0.012-0.035,0.033-0.061,0.062-0.078c0.03-0.017,0.051-0.043,0.063-0.079l1.591-1.527c0.132-0.127,0.266-0.26,0.397-0.399
		c0.133-0.139,0.269-0.219,0.411-0.24c0.201-0.055,0.391-0.032,0.565,0.064c0.176,0.098,0.362,0.19,0.562,0.277
		c0.281,0.124,0.555,0.25,0.818,0.379c0.261,0.129,0.533,0.256,0.814,0.379c0.094,0.05,0.188,0.099,0.281,0.148
		c0.094,0.049,0.187,0.098,0.28,0.146c0.327,0.148,0.646,0.299,0.958,0.453c0.309,0.154,0.627,0.305,0.955,0.453
		c0.82,0.371,1.631,0.762,2.431,1.173c0.8,0.412,1.618,0.797,2.448,1.156c0.07,0.024,0.129,0.056,0.176,0.091
		c0.046,0.037,0.104,0.068,0.175,0.093c0.259,0.123,0.515,0.247,0.772,0.37c0.259,0.123,0.516,0.245,0.771,0.369
		c0.141,0.051,0.268,0.108,0.377,0.176c0.111,0.067,0.231,0.131,0.359,0.193c0.528,0.235,1.043,0.48,1.545,0.739
		c0.504,0.258,1.013,0.498,1.527,0.721c0.059,0.013,0.104,0.034,0.132,0.064C59.24,45.887,59.283,45.909,59.342,45.921z
		 M50.689,46.282c0.098-0.21,0.072-0.382-0.078-0.515c-0.152-0.133-0.322-0.237-0.508-0.312c-0.07-0.024-0.125-0.059-0.166-0.101
		c-0.041-0.043-0.096-0.076-0.167-0.102c-0.55-0.258-1.095-0.534-1.632-0.829c-0.537-0.293-1.092-0.57-1.666-0.83
		c-0.082-0.036-0.178-0.089-0.289-0.156c-0.111-0.066-0.223-0.122-0.334-0.166c-0.111-0.043-0.221-0.071-0.326-0.086
		c-0.105-0.014-0.195,0.014-0.267,0.083c-0.001,0.048-0.007,0.089-0.021,0.124c-0.012,0.035-0.018,0.077-0.02,0.124
		c0.02,0.213,0.089,0.424,0.208,0.633c0.12,0.209,0.226,0.421,0.314,0.635c0.181,0.477,0.382,0.943,0.603,1.402
		s0.434,0.928,0.637,1.403c0.067,0.167,0.139,0.325,0.213,0.474c0.074,0.149,0.155,0.308,0.247,0.475
		c0.056,0.131,0.167,0.233,0.329,0.308c0.143,0.026,0.287-0.021,0.438-0.143c0.15-0.12,0.297-0.25,0.442-0.389l1.373-1.319
		c0.106-0.104,0.228-0.22,0.359-0.348C50.512,46.521,50.615,46.399,50.689,46.282z"/>
	<path fill="#FFFFFF" d="M56.963,27.771l1.822-0.895c0.164-0.08,0.323-0.164,0.477-0.249c0.154-0.084,0.307-0.126,0.455-0.125
		c0.179-0.014,0.34,0.02,0.48,0.099c0.143,0.079,0.279,0.161,0.412,0.243l1.44,0.885c0.942,0.597,1.89,1.188,2.837,1.773
		c0.947,0.586,1.895,1.177,2.838,1.774c0.455,0.279,0.906,0.564,1.355,0.854c0.451,0.291,0.906,0.565,1.367,0.822
		c0.104,0.062,0.203,0.123,0.301,0.188c0.096,0.064,0.209,0.112,0.335,0.142c0.044,0.017,0.097,0.027,0.157,0.035
		c0.06,0.008,0.104-0.014,0.135-0.066c0.09-0.081,0.11-0.174,0.059-0.279c-0.052-0.104-0.092-0.224-0.121-0.359
		c-0.037-0.111-0.091-0.23-0.16-0.354c-0.07-0.124-0.135-0.244-0.193-0.365l-0.696-1.416l-2.56-5.217l-0.42-0.854
		c-0.037-0.075-0.078-0.147-0.121-0.22c-0.046-0.07-0.074-0.14-0.089-0.208l-0.122-0.247c-0.104-0.21-0.139-0.396-0.107-0.561
		c0.023-0.142,0.094-0.251,0.215-0.329c0.12-0.077,0.263-0.157,0.428-0.238l1.371-0.673c0.119-0.059,0.24-0.118,0.359-0.177
		c0.121-0.059,0.232-0.096,0.337-0.109c0.231-0.021,0.401,0.059,0.509,0.239c0.107,0.18,0.223,0.396,0.348,0.651l1.215,2.474
		l4.625,9.422l0.928,1.888c0.082,0.166,0.165,0.329,0.254,0.49s0.125,0.302,0.109,0.42c-0.017,0.119-0.061,0.211-0.131,0.274
		c-0.072,0.062-0.158,0.139-0.264,0.228l-0.787,0.387l-1.237,0.606c-0.136,0.067-0.268,0.131-0.393,0.193
		c-0.128,0.063-0.247,0.093-0.36,0.093c-0.202,0.007-0.379-0.032-0.531-0.116c-0.152-0.083-0.311-0.178-0.475-0.283
		c-0.237-0.144-0.475-0.293-0.707-0.447c-0.234-0.154-0.471-0.304-0.709-0.447l-6.021-3.74c-0.381-0.242-0.75-0.475-1.109-0.698
		c-0.361-0.222-0.731-0.454-1.111-0.696c-0.125-0.068-0.277-0.156-0.451-0.267c-0.175-0.109-0.345-0.124-0.51-0.043
		c-0.068,0.164-0.072,0.315-0.013,0.453c0.057,0.139,0.138,0.313,0.24,0.522l0.774,1.575l2.639,5.373l0.431,0.877
		c0.036,0.075,0.077,0.148,0.122,0.22c0.043,0.071,0.07,0.151,0.076,0.241l0.121,0.247c0.118,0.24,0.165,0.432,0.143,0.572
		c-0.031,0.127-0.107,0.229-0.227,0.307c-0.121,0.078-0.264,0.157-0.428,0.238l-1.372,0.673c-0.12,0.06-0.24,0.119-0.36,0.177
		c-0.119,0.06-0.23,0.097-0.336,0.11c-0.232,0.021-0.406-0.061-0.525-0.245c-0.119-0.184-0.24-0.403-0.365-0.658l-1.269-2.586
		l-4.429-9.016l-1.025-2.092c-0.082-0.164-0.166-0.337-0.254-0.517c-0.089-0.181-0.129-0.337-0.121-0.472s0.077-0.261,0.205-0.38
		c0.029-0.014,0.062-0.034,0.096-0.061C56.9,27.806,56.934,27.786,56.963,27.771z"/>
	<path fill="#FFFFFF" d="M88.893,16.465c1.667-0.251,3.105-0.135,4.313,0.347c1.208,0.483,2.191,1.181,2.95,2.092
		c0.385,0.488,0.721,1.067,1.01,1.737c0.049,0.111,0.092,0.253,0.131,0.425s0.022,0.306-0.049,0.398
		c-0.068,0.126-0.175,0.208-0.322,0.244c-0.146,0.036-0.311,0.065-0.494,0.09l-1.613,0.21c-0.182,0.023-0.353,0.042-0.511,0.054
		c-0.159,0.013-0.293-0.017-0.403-0.086c-0.162-0.08-0.284-0.208-0.365-0.382c-0.082-0.175-0.176-0.34-0.279-0.495
		c-0.18-0.212-0.365-0.41-0.559-0.597c-0.192-0.185-0.414-0.345-0.668-0.48c-0.343-0.174-0.746-0.299-1.211-0.373
		c-0.088-0.022-0.181-0.031-0.281-0.027c-0.1,0.006-0.193,0.005-0.279-0.001c-0.051-0.01-0.127-0.009-0.225,0.005
		c-0.203-0.008-0.452,0.021-0.748,0.084c-0.294,0.064-0.523,0.123-0.684,0.178c-0.112,0.049-0.217,0.088-0.313,0.117
		c-0.098,0.029-0.192,0.075-0.285,0.139c-0.407,0.237-0.764,0.503-1.07,0.796c-0.308,0.293-0.561,0.646-0.759,1.059
		c-0.191,0.345-0.33,0.709-0.414,1.089c-0.086,0.383-0.158,0.788-0.221,1.217c-0.026,0.188-0.035,0.376-0.027,0.559
		c0.006,0.186,0.005,0.37-0.004,0.557l0.042,0.323c-0.021,0.104-0.019,0.213,0.005,0.328c0.023,0.114,0.043,0.229,0.057,0.345
		c0.038,0.283,0.082,0.563,0.137,0.843c0.053,0.279,0.128,0.538,0.227,0.778c0.025,0.063,0.041,0.12,0.049,0.17
		c0.006,0.051,0.021,0.107,0.047,0.171c0.342,0.814,0.75,1.49,1.223,2.025c0.475,0.537,1.105,0.923,1.895,1.155
		c0.158,0.048,0.318,0.085,0.482,0.114c0.163,0.029,0.339,0.057,0.529,0.083c0.1,0.003,0.195-0.005,0.285-0.025
		c0.09-0.02,0.18-0.019,0.268,0.004c0.104,0.021,0.229,0.021,0.379,0.001c0.148-0.02,0.279-0.053,0.391-0.102
		c0.08-0.027,0.154-0.041,0.223-0.042c0.066,0,0.133-0.013,0.197-0.038c0.08-0.027,0.15-0.04,0.208-0.04
		c0.06,0.001,0.118-0.02,0.182-0.061c0.223-0.097,0.431-0.187,0.622-0.271c0.19-0.084,0.37-0.188,0.541-0.312
		c0.38-0.302,0.676-0.631,0.881-0.985c0.207-0.355,0.369-0.785,0.488-1.29c0.043-0.19,0.061-0.412,0.053-0.664
		c-0.008-0.251-0.109-0.414-0.303-0.489c-0.109-0.054-0.24-0.07-0.398-0.05s-0.311,0.041-0.459,0.06l-1.268,0.166
		c-0.1,0.013-0.207,0.031-0.32,0.055c-0.115,0.022-0.225,0.024-0.328,0.005l-0.225,0.028c-0.067-0.007-0.135-0.011-0.203-0.012
		c-0.067,0.001-0.128-0.012-0.182-0.039c-0.092-0.055-0.162-0.147-0.214-0.275c-0.05-0.128-0.089-0.271-0.118-0.427
		c-0.028-0.156-0.051-0.321-0.064-0.496c-0.014-0.176-0.031-0.338-0.051-0.486c-0.018-0.133-0.029-0.258-0.037-0.374
		c-0.006-0.117,0.002-0.22,0.024-0.307c0.046-0.157,0.124-0.269,0.235-0.333c0.094-0.046,0.175-0.074,0.24-0.082l0.274-0.036
		c0.046-0.022,0.108-0.04,0.183-0.05c0.074-0.009,0.145-0.019,0.211-0.027l0.72-0.094l3.627-0.472
		c0.282-0.037,0.601-0.079,0.958-0.125c0.354-0.047,0.6-0.003,0.735,0.131c0.1,0.122,0.164,0.291,0.192,0.505
		c0.027,0.216,0.055,0.423,0.08,0.622l0.338,2.583l0.531,4.073c0.04,0.315,0.075,0.618,0.105,0.908
		c0.029,0.291-0.058,0.492-0.264,0.603c-0.092,0.062-0.209,0.104-0.35,0.122s-0.277,0.036-0.41,0.054
		c-0.331,0.043-0.619,0.067-0.862,0.074s-0.429-0.1-0.559-0.319c-0.087-0.14-0.156-0.299-0.214-0.478
		c-0.058-0.177-0.135-0.327-0.236-0.448c-0.037-0.029-0.083-0.061-0.138-0.096s-0.122-0.039-0.204-0.012
		c-0.129,0.051-0.231,0.131-0.31,0.242s-0.161,0.215-0.251,0.311c-0.148,0.154-0.289,0.295-0.424,0.422
		c-0.136,0.127-0.287,0.261-0.453,0.4c-0.197,0.16-0.411,0.298-0.641,0.411c-0.229,0.114-0.463,0.229-0.701,0.344
		c-0.078,0.044-0.163,0.076-0.252,0.097c-0.091,0.02-0.176,0.043-0.257,0.071c-0.128,0.051-0.267,0.085-0.415,0.104
		c-0.15,0.02-0.296,0.056-0.439,0.108c-0.064,0.024-0.159,0.041-0.285,0.05c-0.125,0.007-0.214,0.006-0.266-0.003l-0.248,0.031
		c-0.086-0.006-0.166-0.004-0.24,0.007c-0.074,0.01-0.154,0.011-0.239,0.006l-0.198,0.025c-0.137-0.016-0.273-0.023-0.408-0.022
		c-0.135,0-0.27-0.007-0.405-0.023c-0.12-0.018-0.241-0.031-0.36-0.041c-0.118-0.01-0.238-0.023-0.359-0.042
		c-0.516-0.084-0.977-0.201-1.385-0.35c-1.043-0.386-1.918-0.891-2.621-1.516c-0.704-0.623-1.34-1.429-1.906-2.416
		c-0.13-0.219-0.234-0.441-0.314-0.666c-0.08-0.226-0.176-0.449-0.289-0.67c-0.027-0.081-0.045-0.15-0.053-0.208
		c-0.006-0.059-0.033-0.126-0.076-0.205c-0.049-0.111-0.082-0.229-0.098-0.354s-0.049-0.25-0.1-0.379
		c-0.044-0.078-0.065-0.147-0.064-0.206c0-0.059-0.012-0.129-0.04-0.209l-0.06-0.447c-0.043-0.079-0.076-0.205-0.099-0.379
		c-0.023-0.174-0.022-0.304-0.001-0.392l-0.035-0.272c0.004-0.102-0.006-0.205-0.027-0.312c-0.023-0.106-0.023-0.203,0-0.291
		c0.013-0.153,0.01-0.305-0.009-0.453c-0.02-0.148-0.022-0.292-0.006-0.429c0.026-0.188,0.044-0.372,0.055-0.551
		c0.01-0.178,0.036-0.362,0.079-0.554c0.053-0.241,0.102-0.48,0.147-0.714s0.104-0.463,0.175-0.691
		c0.07-0.245,0.156-0.488,0.26-0.729c0.103-0.241,0.207-0.469,0.313-0.685c0.406-0.761,0.892-1.427,1.458-1.996
		c0.566-0.571,1.273-1.08,2.125-1.527c0.172-0.107,0.361-0.195,0.571-0.265s0.421-0.144,0.628-0.221
		c0.08-0.044,0.164-0.072,0.254-0.084c0.092-0.012,0.176-0.039,0.255-0.083c0.11-0.049,0.222-0.071,0.332-0.068
		c0.11,0.002,0.221-0.021,0.332-0.069c0.031-0.021,0.076-0.026,0.138-0.018C88.816,16.493,88.861,16.486,88.893,16.465z"/>
	<path fill="#FFFFFF" d="M114.443,17.189c3.189,0.556,5.201,1.915,6.031,4.079c0.113,0.294,0.19,0.588,0.228,0.885
		c0.037,0.296,0.065,0.615,0.085,0.959c0.007,0.139-0.009,0.292-0.05,0.463c-0.042,0.171-0.104,0.29-0.185,0.359
		c-0.101,0.083-0.226,0.123-0.379,0.12c-0.15-0.004-0.319-0.023-0.499-0.057l-1.549-0.296c-0.148-0.027-0.296-0.055-0.444-0.083
		c-0.147-0.028-0.268-0.068-0.359-0.119c-0.182-0.12-0.28-0.274-0.296-0.465c-0.013-0.189-0.044-0.383-0.092-0.579
		c-0.035-0.176-0.092-0.365-0.173-0.567c-0.079-0.203-0.178-0.365-0.289-0.489c-0.2-0.207-0.395-0.389-0.585-0.544
		c-0.183-0.12-0.41-0.235-0.686-0.348c-0.276-0.112-0.565-0.205-0.865-0.279c-0.301-0.074-0.603-0.122-0.903-0.146
		c-0.302-0.022-0.576-0.007-0.825,0.048c-0.41,0.092-0.736,0.229-0.983,0.412c-0.248,0.183-0.454,0.488-0.621,0.915
		c-0.055,0.108-0.087,0.233-0.096,0.377c-0.012,0.143-0.007,0.258,0.009,0.346c0.065,0.369,0.206,0.646,0.416,0.831
		c0.213,0.185,0.469,0.374,0.771,0.567c0.166,0.116,0.339,0.214,0.519,0.29c0.183,0.077,0.364,0.167,0.55,0.271
		c0.414,0.231,0.846,0.445,1.291,0.641c0.448,0.195,0.889,0.402,1.322,0.621c0.077,0.049,0.156,0.081,0.239,0.097
		c0.081,0.015,0.16,0.047,0.236,0.096c0.307,0.178,0.627,0.349,0.96,0.514s0.624,0.365,0.869,0.599
		c0.388,0.363,0.719,0.715,0.986,1.054c0.265,0.341,0.494,0.758,0.689,1.254c0.057,0.147,0.099,0.309,0.125,0.483
		s0.057,0.351,0.092,0.526c0.007,0.053,0.007,0.1-0.002,0.141c-0.007,0.041-0.007,0.079,0.004,0.115
		c0.016,0.274-0.013,0.609-0.09,1.003c0.018,0.089,0.003,0.171-0.046,0.246l-0.085,0.443c-0.065,0.175-0.127,0.341-0.185,0.5
		c-0.055,0.159-0.122,0.316-0.203,0.471c-0.153,0.277-0.313,0.527-0.474,0.751c-0.162,0.225-0.348,0.437-0.554,0.635
		c-0.081,0.07-0.16,0.127-0.236,0.172c-0.077,0.045-0.147,0.104-0.213,0.176c-0.101,0.084-0.21,0.161-0.324,0.232
		c-0.116,0.071-0.238,0.137-0.37,0.197c-0.094,0.051-0.192,0.099-0.296,0.147c-0.103,0.049-0.21,0.097-0.319,0.144
		c-0.313,0.128-0.634,0.22-0.958,0.276c-0.326,0.058-0.663,0.112-1.014,0.165c-0.245,0.037-0.493,0.046-0.743,0.023
		c-0.251-0.022-0.506-0.032-0.76-0.029c-0.12,0.011-0.234,0.002-0.34-0.026c-0.104-0.029-0.21-0.036-0.315-0.021l-0.194-0.037
		c-0.035-0.007-0.079-0.019-0.134-0.038c-0.057-0.019-0.103-0.023-0.138-0.014c-0.086,0.001-0.229-0.017-0.423-0.055
		c-0.197-0.037-0.335-0.072-0.414-0.104l-0.246-0.047c-0.109-0.054-0.226-0.089-0.351-0.104s-0.234-0.049-0.324-0.101
		c-0.083-0.015-0.155-0.033-0.221-0.054c-0.063-0.021-0.136-0.047-0.215-0.079c-0.187-0.087-0.384-0.167-0.592-0.24
		c-0.206-0.073-0.395-0.16-0.561-0.26c-0.756-0.414-1.397-0.881-1.928-1.399c-0.53-0.517-0.938-1.143-1.225-1.877
		c-0.187-0.443-0.305-0.949-0.349-1.52c-0.013-0.105-0.015-0.207-0.006-0.307c0.011-0.101,0.011-0.211,0-0.332
		c-0.009-0.138-0.002-0.303,0.018-0.494s0.078-0.329,0.18-0.412c0.109-0.115,0.24-0.17,0.402-0.165
		c0.16,0.005,0.34,0.026,0.537,0.063l1.549,0.295c0.131,0.024,0.271,0.051,0.418,0.079c0.149,0.028,0.274,0.078,0.381,0.148
		c0.165,0.117,0.246,0.272,0.243,0.467c-0.004,0.195,0.018,0.398,0.062,0.611c0.028,0.21,0.077,0.406,0.143,0.589
		c0.068,0.183,0.145,0.357,0.23,0.527c0.063,0.114,0.138,0.222,0.219,0.322c0.083,0.102,0.169,0.193,0.254,0.278
		c0.317,0.298,0.726,0.571,1.223,0.818c0.107,0.055,0.215,0.092,0.322,0.112s0.224,0.06,0.349,0.117l0.122,0.023
		c0.125,0.058,0.303,0.108,0.532,0.152c0.23,0.043,0.412,0.062,0.55,0.053c0.053-0.006,0.136,0.001,0.252,0.022
		c0.084,0,0.174,0.004,0.266,0.013s0.182,0.005,0.271-0.013c0.583-0.042,1.064-0.154,1.439-0.338c0.376-0.185,0.683-0.55,0.924-1.1
		c0.055-0.108,0.083-0.239,0.088-0.392c0.002-0.151-0.005-0.271-0.022-0.36c-0.078-0.475-0.293-0.872-0.64-1.192
		c-0.043-0.043-0.124-0.108-0.242-0.2c-0.22-0.194-0.472-0.365-0.759-0.514c-0.284-0.147-0.567-0.299-0.843-0.453
		c-0.109-0.054-0.213-0.104-0.315-0.148c-0.104-0.045-0.217-0.097-0.34-0.154c-0.247-0.132-0.502-0.252-0.762-0.361
		c-0.259-0.109-0.504-0.228-0.734-0.357c-0.076-0.048-0.138-0.077-0.188-0.087c-0.048-0.009-0.103-0.035-0.162-0.081
		c-0.125-0.058-0.239-0.113-0.338-0.166c-0.103-0.054-0.215-0.108-0.339-0.166c-0.354-0.203-0.688-0.407-1.006-0.612
		s-0.606-0.426-0.87-0.663c-0.328-0.317-0.619-0.67-0.867-1.058c-0.25-0.387-0.425-0.811-0.523-1.272
		c-0.039-0.16-0.059-0.32-0.062-0.482c-0.004-0.162-0.013-0.338-0.026-0.528c-0.004-0.153,0.012-0.371,0.046-0.654
		c0.038-0.281,0.088-0.51,0.156-0.684c0.028-0.062,0.057-0.159,0.081-0.291c0.083-0.171,0.157-0.335,0.221-0.494
		c0.063-0.157,0.145-0.312,0.241-0.463c0.354-0.528,0.765-0.955,1.227-1.284s0.978-0.609,1.549-0.841
		c0.366-0.134,0.75-0.223,1.148-0.266s0.821-0.073,1.266-0.091c0.171-0.002,0.336,0.009,0.491,0.029
		c0.157,0.022,0.322,0.032,0.493,0.03c0.052-0.007,0.131,0.008,0.234,0.045C114.332,17.21,114.404,17.215,114.443,17.189z"/>
	<path fill="#FFFFFF" d="M140.204,26.848l2.276,1.162c0.192,0.099,0.381,0.199,0.562,0.302s0.313,0.221,0.396,0.355
		c0.028,0.054,0.037,0.118,0.024,0.197c-0.011,0.078-0.028,0.158-0.051,0.24l-0.057,0.111c-0.018,0.067-0.044,0.138-0.081,0.212
		s-0.077,0.148-0.114,0.223l-0.444,0.87c-0.053,0.105-0.101,0.207-0.143,0.307c-0.041,0.102-0.101,0.188-0.175,0.263
		c-0.204,0.215-0.421,0.272-0.653,0.174c-0.229-0.099-0.501-0.228-0.812-0.388l-2.278-1.162c-0.296-0.151-0.559-0.271-0.786-0.358
		c-0.226-0.089-0.44-0.025-0.645,0.19c-0.055,0.067-0.087,0.134-0.103,0.201c-0.018,0.066-0.059,0.13-0.125,0.189
		c-0.062,0.082-0.116,0.18-0.164,0.295c-0.051,0.116-0.099,0.217-0.145,0.307l-1.012,1.986l-3.279,6.425l-1.071,2.099
		c-0.123,0.237-0.239,0.437-0.347,0.596c-0.109,0.159-0.265,0.235-0.466,0.226c-0.121-0.023-0.248-0.069-0.382-0.137
		c-0.133-0.068-0.261-0.133-0.379-0.194l-1.516-0.773c-0.164-0.084-0.313-0.17-0.446-0.256c-0.134-0.087-0.215-0.194-0.243-0.322
		c-0.016-0.156,0.025-0.328,0.12-0.514c0.097-0.186,0.192-0.376,0.291-0.569l1.14-2.23l3.165-6.203l0.968-1.896
		c0.053-0.104,0.112-0.21,0.176-0.318c0.065-0.107,0.104-0.213,0.12-0.318c0.024-0.081,0.057-0.148,0.104-0.2
		c0.046-0.052,0.067-0.115,0.069-0.189c0.053-0.291-0.028-0.507-0.247-0.646c-0.219-0.141-0.486-0.29-0.798-0.45l-2.076-1.059
		c-0.164-0.083-0.346-0.172-0.552-0.268c-0.204-0.095-0.359-0.188-0.463-0.277c-0.096-0.106-0.15-0.219-0.166-0.338
		c-0.007-0.097,0.018-0.207,0.072-0.33c0.053-0.123,0.109-0.244,0.171-0.362l0.557-1.094c0.099-0.193,0.197-0.358,0.296-0.496
		c0.098-0.138,0.226-0.213,0.383-0.227c0.06-0.007,0.155,0.005,0.291,0.036l0.112,0.057L140.204,26.848z"/>
	<path fill="#FFFFFF" d="M152.268,34.914l6.845,6.396l1.593,1.488c0.145,0.137,0.278,0.273,0.403,0.411
		c0.122,0.138,0.173,0.277,0.155,0.42c-0.009,0.06-0.035,0.116-0.072,0.171c-0.042,0.056-0.072,0.117-0.092,0.189l-0.188,0.201
		c-0.068,0.098-0.151,0.191-0.247,0.283c-0.099,0.092-0.187,0.181-0.268,0.266c-0.09,0.099-0.176,0.195-0.254,0.293
		c-0.079,0.097-0.165,0.183-0.257,0.257c-0.07,0.05-0.162,0.136-0.275,0.257c-0.174,0.113-0.327,0.153-0.456,0.122
		c-0.12-0.019-0.234-0.08-0.344-0.184c-0.109-0.102-0.226-0.211-0.349-0.324l-1.262-1.181l-3.314-3.096
		c-0.096-0.091-0.205-0.199-0.328-0.325s-0.252-0.245-0.386-0.358c-0.134-0.114-0.263-0.213-0.39-0.298
		c-0.127-0.084-0.232-0.131-0.315-0.14c-0.143-0.019-0.276,0.021-0.403,0.12c-0.127,0.1-0.259,0.222-0.396,0.368l-0.975,1.043
		l-0.495,0.53c-0.068,0.121-0.12,0.227-0.157,0.316c-0.04,0.09-0.044,0.182-0.018,0.274c0.028,0.118,0.087,0.225,0.18,0.322
		c0.092,0.098,0.192,0.197,0.302,0.3l0.988,0.924l3.149,2.941c0.083,0.08,0.195,0.177,0.329,0.29s0.256,0.23,0.374,0.351
		c0.114,0.12,0.22,0.235,0.312,0.344c0.094,0.109,0.146,0.204,0.162,0.287c0.026,0.094,0,0.207-0.079,0.339
		c-0.076,0.133-0.173,0.266-0.287,0.4c-0.113,0.134-0.236,0.265-0.365,0.393c-0.132,0.129-0.243,0.242-0.336,0.34
		c-0.078,0.086-0.159,0.171-0.238,0.257c-0.081,0.084-0.162,0.146-0.243,0.186c-0.116,0.074-0.239,0.108-0.368,0.101
		c-0.094-0.021-0.201-0.073-0.315-0.158c-0.116-0.084-0.236-0.187-0.365-0.307c-0.13-0.119-0.252-0.242-0.375-0.368
		c-0.125-0.126-0.226-0.229-0.312-0.308l-3.57-3.335c-0.146-0.138-0.282-0.271-0.412-0.402c-0.129-0.133-0.26-0.243-0.392-0.332
		c-0.134-0.091-0.265-0.146-0.396-0.165c-0.129-0.02-0.265,0.009-0.405,0.085c-0.068,0.05-0.134,0.108-0.197,0.175
		c-0.062,0.067-0.122,0.132-0.18,0.193l-0.65,0.694l-0.955,1.025c-0.138,0.146-0.252,0.286-0.342,0.42
		c-0.09,0.133-0.12,0.27-0.092,0.409c0.002,0.071,0.028,0.136,0.076,0.192c0.051,0.059,0.095,0.127,0.132,0.208l0.184,0.172
		c0.049,0.069,0.112,0.136,0.191,0.197c0.078,0.062,0.148,0.122,0.21,0.179l0.769,0.718l3.441,3.216l0.971,0.906
		c0.096,0.092,0.192,0.18,0.282,0.266c0.092,0.085,0.158,0.18,0.197,0.285c0.063,0.128,0.068,0.259,0.013,0.39
		c-0.032,0.084-0.087,0.171-0.159,0.263c-0.075,0.091-0.156,0.186-0.248,0.283l-0.786,0.842c-0.138,0.146-0.271,0.277-0.403,0.395
		c-0.131,0.116-0.275,0.16-0.429,0.129c-0.132-0.007-0.255-0.064-0.37-0.172c-0.116-0.109-0.241-0.226-0.375-0.352l-1.373-1.283
		l-5.418-5.062l-1.445-1.351c-0.171-0.16-0.312-0.31-0.423-0.447s-0.151-0.283-0.12-0.438c0.018-0.119,0.083-0.236,0.19-0.353
		c0.109-0.116,0.215-0.229,0.317-0.339l1.231-1.318l4.65-4.977l3.73-3.99l1.058-1.135c0.104-0.11,0.206-0.22,0.309-0.33
		c0.104-0.109,0.206-0.172,0.313-0.188c0.127-0.04,0.276-0.016,0.445,0.073c0.034,0.011,0.063,0.03,0.083,0.06
		C152.204,34.882,152.232,34.903,152.268,34.914z"/>
	<path fill="#FFFFFF" d="M160.756,73.871c-0.072,0.078-0.153,0.119-0.248,0.124c-0.092,0.005-0.166-0.007-0.219-0.034
		c-0.123-0.047-0.224-0.149-0.3-0.305c-0.079-0.158-0.165-0.316-0.255-0.477l-0.672-1.202c-0.13-0.233-0.232-0.443-0.309-0.631
		c-0.077-0.187-0.066-0.365,0.03-0.534c0.125-0.223,0.319-0.419,0.589-0.588c0.268-0.17,0.509-0.353,0.726-0.55
		c0.059-0.032,0.111-0.067,0.157-0.104s0.092-0.065,0.136-0.09c0.151-0.142,0.324-0.268,0.521-0.378
		c0.195-0.11,0.366-0.224,0.511-0.344c0.035-0.039,0.097-0.083,0.184-0.132c0.145-0.119,0.294-0.236,0.449-0.352
		c0.155-0.116,0.3-0.241,0.436-0.374c0.272-0.305,0.491-0.61,0.664-0.918c0.173-0.307,0.243-0.643,0.21-1.008
		c-0.011-0.09-0.03-0.174-0.057-0.255s-0.048-0.174-0.067-0.277c-0.06-0.312-0.187-0.639-0.377-0.98
		c-0.193-0.342-0.381-0.681-0.569-1.017l-1.004-1.792c-0.096-0.1-0.175-0.188-0.238-0.269c-0.063-0.079-0.147-0.128-0.252-0.146
		c-0.213-0.034-0.467,0.041-0.765,0.228c-0.298,0.186-0.569,0.348-0.817,0.486l-2.797,1.566c-0.116,0.066-0.239,0.13-0.368,0.192
		c-0.127,0.062-0.25,0.125-0.366,0.19c-0.115,0.065-0.223,0.124-0.317,0.178c-0.094,0.053-0.186,0.085-0.275,0.097
		c-0.156,0.03-0.292-0.009-0.408-0.115c-0.069-0.057-0.133-0.137-0.19-0.237c-0.057-0.103-0.118-0.212-0.184-0.328l-0.552-0.983
		c-0.132-0.233-0.272-0.479-0.428-0.737c-0.153-0.258-0.217-0.48-0.188-0.669c0.007-0.157,0.109-0.291,0.307-0.401
		s0.391-0.219,0.581-0.324l13.285-7.443c0.16-0.09,0.326-0.188,0.497-0.293c0.169-0.105,0.326-0.15,0.469-0.134
		c0.121,0.009,0.254,0.077,0.403,0.205c0.03,0.021,0.053,0.052,0.067,0.092c0.012,0.041,0.033,0.071,0.063,0.093l4.162,7.43
		c0.132,0.233,0.252,0.457,0.364,0.673c0.111,0.215,0.199,0.43,0.261,0.644c0.011,0.089,0.039,0.174,0.085,0.254
		c0.044,0.081,0.072,0.165,0.083,0.254c0.029,0.118,0.058,0.237,0.086,0.355c0.026,0.117,0.048,0.241,0.062,0.367
		c0.044,0.453,0.035,0.899-0.026,1.336s-0.188,0.842-0.379,1.218c-0.042,0.1-0.093,0.189-0.151,0.27
		c-0.06,0.082-0.109,0.172-0.151,0.271c-0.138,0.23-0.3,0.437-0.486,0.617c-0.186,0.181-0.39,0.381-0.611,0.601
		c-0.05,0.047-0.107,0.083-0.168,0.109c-0.063,0.025-0.116,0.068-0.158,0.131l-0.195,0.11c-0.101,0.094-0.238,0.181-0.413,0.26
		c-0.176,0.079-0.322,0.134-0.44,0.161c-0.134,0.036-0.248,0.081-0.342,0.134c-0.095,0.054-0.202,0.093-0.32,0.121
		c-0.261,0.05-0.508,0.093-0.747,0.131c-0.236,0.037-0.473,0.047-0.714,0.028c-0.062-0.005-0.129-0.015-0.203-0.03
		c-0.077-0.015-0.146-0.024-0.204-0.029c-0.083-0.012-0.169-0.026-0.254-0.044c-0.088-0.019-0.169-0.045-0.245-0.078
		c-0.123-0.047-0.243-0.094-0.366-0.14c-0.123-0.047-0.248-0.102-0.377-0.162c-0.076-0.033-0.157-0.065-0.241-0.095
		c-0.083-0.03-0.168-0.039-0.258-0.027c-0.104,0.02-0.169,0.075-0.193,0.165c-0.026,0.092-0.041,0.167-0.046,0.228
		c-0.035,0.21-0.07,0.422-0.104,0.633c-0.035,0.211-0.105,0.412-0.209,0.604c-0.148,0.314-0.326,0.595-0.532,0.845
		c-0.206,0.248-0.451,0.51-0.735,0.785c-0.116,0.103-0.243,0.198-0.386,0.288c-0.141,0.088-0.27,0.184-0.384,0.286
		c-0.087,0.049-0.171,0.1-0.245,0.152c-0.076,0.052-0.157,0.103-0.245,0.151c-0.051,0.047-0.109,0.086-0.18,0.115
		s-0.138,0.072-0.201,0.127c-0.051,0.048-0.107,0.084-0.169,0.109c-0.063,0.025-0.127,0.065-0.19,0.121
		c-0.13,0.11-0.274,0.212-0.437,0.3c-0.159,0.09-0.304,0.191-0.434,0.302l-0.356,0.286c-0.114,0.103-0.229,0.204-0.345,0.308
		C160.964,73.678,160.856,73.776,160.756,73.871z M168.591,64.744c0.178-0.061,0.377-0.167,0.599-0.319
		c0.219-0.152,0.379-0.275,0.479-0.37c0.041-0.062,0.085-0.105,0.129-0.13s0.079-0.063,0.107-0.117
		c0.353-0.428,0.502-0.932,0.444-1.513c-0.023-0.312-0.115-0.633-0.28-0.962c-0.166-0.329-0.346-0.668-0.543-1.018l-1.419-2.535
		c-0.047-0.013-0.073-0.035-0.082-0.069c-0.011-0.033-0.021-0.063-0.037-0.093c-0.142-0.15-0.28-0.227-0.416-0.228
		c-0.157-0.008-0.326,0.043-0.501,0.152c-0.18,0.109-0.355,0.214-0.53,0.312l-2.033,1.138c-0.175,0.099-0.349,0.196-0.523,0.294
		s-0.294,0.212-0.354,0.342c-0.055,0.107-0.06,0.234-0.016,0.383c0.044,0.147,0.103,0.305,0.18,0.473
		c0.074,0.169,0.164,0.339,0.27,0.51c0.107,0.171,0.194,0.321,0.27,0.452l0.721,1.29c0.057,0.102,0.116,0.213,0.173,0.333
		c0.057,0.121,0.127,0.217,0.206,0.288l0.157,0.284c0.095,0.101,0.173,0.205,0.234,0.314s0.134,0.207,0.222,0.291
		c0.21,0.207,0.427,0.373,0.65,0.498c0.224,0.123,0.464,0.198,0.728,0.223c0.182,0.015,0.363-0.001,0.547-0.047
		C168.155,64.873,168.363,64.814,168.591,64.744z"/>
</g>
<g>
	<path fill="#FFFFFF" d="M65.821,157.598l1.936,1.053c0.174,0.098,0.358,0.197,0.549,0.301c0.19,0.105,0.328,0.217,0.414,0.34
		c0.121,0.162,0.182,0.375,0.18,0.639c-0.002,0.268,0.008,0.502,0.031,0.703c0.033,0.533,0.053,1.057,0.057,1.57
		c0.004,0.516,0.022,1.041,0.057,1.572c0.029,0.398,0.043,0.789,0.041,1.18c-0.002,0.389,0.012,0.779,0.042,1.176
		c0.009,0.158,0.013,0.326,0.011,0.506c-0.003,0.18,0.068,0.328,0.214,0.445c0.095,0.07,0.202,0.082,0.324,0.035
		c0.122-0.051,0.22-0.09,0.296-0.125c0.244-0.133,0.476-0.273,0.699-0.418c0.221-0.145,0.454-0.285,0.698-0.418
		c0.579-0.332,1.153-0.668,1.724-1.016c0.566-0.346,1.146-0.691,1.733-1.037c0.222-0.125,0.466-0.279,0.734-0.457
		c0.269-0.176,0.528-0.254,0.782-0.229c0.172-0.002,0.396,0.082,0.674,0.254c0.278,0.17,0.52,0.311,0.725,0.422l1.231,0.674
		c0.116,0.062,0.236,0.133,0.357,0.207c0.12,0.076,0.205,0.156,0.255,0.238c0.077,0.139,0.045,0.268-0.098,0.391
		c-0.143,0.121-0.256,0.209-0.34,0.256c-0.337,0.197-0.666,0.393-0.99,0.588c-0.325,0.193-0.655,0.389-0.99,0.586
		c-0.932,0.52-1.842,1.051-2.734,1.592c-0.896,0.539-1.799,1.072-2.715,1.6c-0.289,0.148-0.569,0.305-0.84,0.469
		c-0.272,0.168-0.549,0.336-0.831,0.504c-0.206,0.1-0.399,0.203-0.583,0.312s-0.36,0.25-0.531,0.422
		c-0.055,0.066-0.096,0.135-0.125,0.203c-0.028,0.07-0.069,0.139-0.123,0.205c-0.039,0.035-0.075,0.08-0.107,0.141
		c-0.031,0.059-0.063,0.117-0.096,0.174l-0.371,0.684l-1.56,2.859c-0.151,0.277-0.312,0.58-0.479,0.908
		c-0.17,0.324-0.369,0.494-0.601,0.5c-0.12,0.012-0.249-0.021-0.39-0.1c-0.139-0.076-0.274-0.148-0.406-0.221l-1.54-0.838
		c-0.161-0.09-0.304-0.176-0.427-0.264c-0.125-0.086-0.2-0.193-0.225-0.322c-0.025-0.127-0.006-0.25,0.057-0.367
		c0.064-0.117,0.133-0.26,0.207-0.43l0.467-0.857l1.559-2.859l0.457-0.836c0.047-0.086,0.097-0.18,0.148-0.275
		c0.053-0.094,0.084-0.186,0.094-0.275c0.062-0.252,0.09-0.496,0.082-0.725c-0.006-0.232-0.024-0.463-0.055-0.688
		c-0.004-0.307-0.01-0.609-0.018-0.908c-0.008-0.301-0.021-0.607-0.039-0.922c-0.031-0.227-0.039-0.453-0.027-0.684
		c0.012-0.232,0.003-0.461-0.027-0.686c-0.053-0.809-0.091-1.609-0.115-2.402c-0.025-0.793-0.057-1.59-0.095-2.391
		c-0.017-0.391-0.031-0.764-0.044-1.123c-0.014-0.359-0.022-0.73-0.022-1.111c-0.013-0.08-0.02-0.215-0.024-0.398
		c-0.006-0.184,0.049-0.309,0.164-0.381c0.061-0.043,0.123-0.061,0.186-0.055c0.064,0.006,0.129,0.018,0.195,0.035
		c0.037,0.002,0.069,0.016,0.094,0.037C65.751,157.584,65.783,157.596,65.821,157.598z"/>
	<path fill="#FFFFFF" d="M98.838,175.768c0.024,0.104,0.028,0.275,0.015,0.518c-0.015,0.24-0.044,0.412-0.086,0.508l-0.032,0.324
		c-0.048,0.162-0.082,0.334-0.099,0.52c-0.018,0.182-0.051,0.363-0.102,0.543c-0.045,0.113-0.081,0.227-0.108,0.342
		c-0.027,0.113-0.063,0.227-0.107,0.342c-0.112,0.291-0.218,0.576-0.321,0.85c-0.102,0.275-0.223,0.541-0.363,0.797
		c-0.609,1.115-1.375,2.02-2.297,2.713c-0.92,0.693-2.023,1.189-3.311,1.484c-0.188,0.051-0.377,0.084-0.562,0.098
		c-0.186,0.016-0.372,0.031-0.558,0.049c-0.087,0.027-0.176,0.033-0.269,0.023c-0.089-0.008-0.178-0.008-0.263,0l-0.83-0.002
		c-0.068,0.01-0.186,0.002-0.351-0.02c-0.164-0.025-0.271-0.047-0.319-0.07c-0.083-0.023-0.161-0.035-0.236-0.035
		c-0.076,0.004-0.155-0.01-0.236-0.035l-0.274-0.025c-0.131-0.043-0.254-0.076-0.367-0.096c-0.115-0.02-0.238-0.053-0.369-0.1
		c-0.129-0.045-0.26-0.088-0.391-0.125s-0.262-0.078-0.391-0.125c-0.177-0.082-0.356-0.168-0.542-0.252
		c-0.185-0.084-0.364-0.176-0.539-0.277c-0.957-0.525-1.747-1.186-2.367-1.975c-0.622-0.787-1.101-1.701-1.438-2.74
		c-0.078-0.24-0.139-0.494-0.18-0.758c-0.043-0.264-0.093-0.533-0.15-0.809c-0.026-0.084-0.035-0.156-0.029-0.217
		c0.005-0.057,0.002-0.119-0.008-0.188c-0.022-0.121-0.036-0.244-0.041-0.371c-0.005-0.123-0.018-0.256-0.038-0.391
		c-0.009-0.086-0.005-0.164,0.011-0.24c0.016-0.074,0.009-0.146-0.018-0.213c-0.008-0.104,0.002-0.207,0.029-0.314
		c0.027-0.105,0.036-0.211,0.029-0.311c-0.025-0.086-0.029-0.217-0.014-0.393c0.018-0.172,0.045-0.301,0.087-0.381
		c0.024-0.082,0.032-0.16,0.022-0.236c-0.009-0.076-0.002-0.156,0.023-0.236l0.014-0.152c0.045-0.111,0.067-0.223,0.069-0.332
		c0.001-0.107,0.023-0.211,0.067-0.307c0.04-0.082,0.066-0.166,0.074-0.258c0.009-0.09,0.033-0.176,0.074-0.258
		c0.111-0.273,0.203-0.545,0.279-0.816c0.076-0.27,0.177-0.533,0.303-0.789c0.158-0.27,0.311-0.541,0.453-0.812
		s0.31-0.523,0.5-0.758c0.574-0.75,1.211-1.359,1.91-1.832c0.698-0.471,1.531-0.852,2.498-1.146
		c0.225-0.062,0.459-0.107,0.706-0.135c0.245-0.027,0.487-0.062,0.726-0.107c0.087-0.025,0.168-0.035,0.243-0.025
		c0.073,0.006,0.154,0.004,0.239-0.004l0.755-0.002c0.034-0.014,0.08-0.012,0.137,0.012c0.058,0.023,0.102,0.027,0.138,0.014
		c1.183,0.076,2.193,0.293,3.033,0.65c0.837,0.357,1.575,0.809,2.21,1.355c0.202,0.17,0.411,0.361,0.626,0.574
		c0.215,0.215,0.387,0.428,0.518,0.641c0.076,0.092,0.15,0.186,0.225,0.287c0.076,0.098,0.141,0.191,0.2,0.281
		c0.157,0.283,0.314,0.572,0.472,0.863s0.285,0.6,0.391,0.93c0.076,0.242,0.143,0.475,0.197,0.697
		c0.055,0.225,0.11,0.465,0.171,0.721c0.035,0.172,0.059,0.346,0.076,0.525c0.017,0.176,0.041,0.357,0.073,0.547
		c0.022,0.121,0.028,0.234,0.019,0.342c-0.011,0.107-0.004,0.215,0.021,0.314c0.023,0.104,0.025,0.209,0.007,0.316
		s-0.022,0.203-0.014,0.289L98.838,175.768z M94.874,176.449c0.04-0.082,0.069-0.199,0.084-0.357
		c0.016-0.158,0.009-0.281-0.016-0.367l0.041-0.424c-0.012-0.068-0.01-0.131,0.005-0.188c0.013-0.059,0.007-0.121-0.02-0.191
		c-0.021-0.135-0.03-0.268-0.026-0.393c0.002-0.125-0.006-0.246-0.028-0.367c0.008-0.084,0-0.176-0.024-0.279
		c-0.031-0.188-0.064-0.375-0.097-0.562c-0.033-0.188-0.082-0.377-0.147-0.566c-0.287-0.883-0.748-1.619-1.389-2.209
		c-0.641-0.588-1.576-0.941-2.807-1.057c-0.034,0.012-0.072,0.012-0.112,0c-0.042-0.012-0.08-0.012-0.114,0.002
		c-0.068,0.01-0.136,0.008-0.201-0.006c-0.066-0.014-0.143-0.01-0.228,0.016c-0.186,0.016-0.367,0.037-0.546,0.062
		c-0.18,0.023-0.346,0.062-0.504,0.115c-0.725,0.232-1.316,0.596-1.775,1.088c-0.457,0.496-0.848,1.105-1.168,1.828
		c-0.066,0.18-0.121,0.355-0.162,0.525c-0.041,0.174-0.096,0.348-0.163,0.525c-0.023,0.066-0.036,0.127-0.043,0.184
		c-0.005,0.061-0.019,0.121-0.041,0.188c-0.042,0.078-0.059,0.17-0.052,0.271c0.008,0.1-0.002,0.193-0.025,0.273
		c-0.042,0.082-0.076,0.232-0.105,0.455c-0.03,0.225-0.033,0.379-0.008,0.465l-0.025,0.273c0.011,0.068,0.012,0.141,0.004,0.215
		c-0.006,0.074-0.006,0.146,0.005,0.215c-0.005,0.068-0.009,0.129-0.005,0.189c0.004,0.059,0.002,0.121-0.006,0.188
		c0.033,0.188,0.054,0.375,0.062,0.559c0.006,0.186,0.035,0.365,0.086,0.537c0.131,0.549,0.309,1.066,0.533,1.549
		c0.222,0.48,0.52,0.883,0.891,1.201c0.076,0.094,0.157,0.168,0.244,0.227c0.086,0.059,0.177,0.117,0.271,0.178
		c0.174,0.133,0.359,0.242,0.562,0.328c0.2,0.088,0.414,0.176,0.641,0.264c0.081,0.041,0.157,0.061,0.233,0.059
		c0.076,0,0.154,0.01,0.236,0.035c0.097,0.043,0.195,0.07,0.295,0.078c0.1,0.01,0.207,0.02,0.324,0.031l0.199,0.018
		c0.085-0.008,0.159-0.004,0.226,0.008c0.065,0.016,0.142,0.012,0.228-0.016c0.17-0.016,0.34-0.029,0.506-0.039
		c0.17-0.008,0.332-0.039,0.488-0.092c0.742-0.215,1.337-0.527,1.787-0.938s0.85-0.959,1.2-1.646
		c0.102-0.176,0.183-0.371,0.245-0.584c0.061-0.209,0.137-0.42,0.223-0.633l0.131-0.588c0.023-0.066,0.039-0.137,0.046-0.211
		c0.008-0.074,0.016-0.154,0.022-0.236L94.874,176.449z"/>
	<path fill="#FFFFFF" d="M111.735,164.936c1.641-0.389,3.082-0.393,4.326-0.012s2.282,0.998,3.112,1.844
		c0.423,0.455,0.807,1.004,1.15,1.648c0.057,0.107,0.111,0.244,0.166,0.412c0.051,0.168,0.047,0.303-0.017,0.4
		c-0.058,0.131-0.156,0.221-0.301,0.27c-0.143,0.049-0.305,0.092-0.483,0.129l-1.593,0.344c-0.18,0.037-0.349,0.07-0.504,0.098
		c-0.158,0.023-0.294,0.006-0.41-0.055c-0.166-0.066-0.3-0.182-0.394-0.35c-0.097-0.168-0.204-0.324-0.32-0.471
		c-0.194-0.197-0.396-0.379-0.604-0.547c-0.208-0.17-0.442-0.311-0.707-0.426c-0.355-0.146-0.768-0.236-1.238-0.271
		c-0.087-0.016-0.182-0.018-0.28-0.004c-0.101,0.014-0.192,0.02-0.278,0.021c-0.053-0.006-0.127,0.002-0.226,0.025
		c-0.201,0.008-0.449,0.057-0.738,0.145c-0.287,0.086-0.51,0.166-0.666,0.234c-0.107,0.057-0.208,0.104-0.302,0.141
		c-0.097,0.037-0.187,0.09-0.274,0.16c-0.385,0.271-0.719,0.566-1.001,0.883c-0.283,0.316-0.506,0.691-0.671,1.117
		c-0.162,0.359-0.267,0.734-0.321,1.119c-0.053,0.389-0.093,0.799-0.118,1.232c-0.012,0.189-0.005,0.377,0.018,0.559
		c0.021,0.184,0.037,0.369,0.043,0.557l0.068,0.316c-0.014,0.105-0.002,0.215,0.03,0.326c0.033,0.111,0.062,0.227,0.086,0.34
		c0.062,0.279,0.129,0.555,0.203,0.828c0.077,0.273,0.174,0.525,0.292,0.758c0.03,0.062,0.053,0.117,0.062,0.164
		c0.011,0.051,0.03,0.105,0.061,0.166c0.41,0.785,0.873,1.424,1.39,1.92c0.515,0.494,1.177,0.826,1.98,0.994
		c0.162,0.035,0.324,0.059,0.49,0.074c0.167,0.016,0.344,0.029,0.535,0.037c0.101-0.004,0.194-0.02,0.282-0.047
		s0.178-0.033,0.265-0.018c0.105,0.01,0.232,0.002,0.379-0.031c0.147-0.031,0.274-0.074,0.382-0.133
		c0.078-0.033,0.15-0.053,0.219-0.061c0.065-0.004,0.129-0.023,0.19-0.055c0.079-0.033,0.146-0.053,0.206-0.057
		c0.06-0.002,0.118-0.027,0.175-0.076c0.217-0.113,0.417-0.221,0.601-0.32c0.184-0.098,0.353-0.217,0.511-0.355
		c0.356-0.332,0.622-0.684,0.799-1.055c0.176-0.371,0.303-0.811,0.382-1.324c0.026-0.193,0.023-0.416-0.003-0.666
		c-0.028-0.248-0.142-0.404-0.344-0.463c-0.111-0.045-0.245-0.051-0.4-0.018c-0.155,0.035-0.307,0.066-0.454,0.098l-1.248,0.268
		c-0.099,0.021-0.204,0.051-0.315,0.084c-0.114,0.031-0.222,0.041-0.326,0.029l-0.222,0.049c-0.067-0.002-0.136,0-0.203,0.004
		c-0.068,0.008-0.13-0.002-0.185-0.023c-0.097-0.049-0.173-0.135-0.234-0.256c-0.062-0.123-0.111-0.264-0.153-0.416
		c-0.042-0.154-0.076-0.316-0.105-0.49c-0.028-0.172-0.059-0.334-0.09-0.479c-0.03-0.131-0.052-0.254-0.067-0.371
		c-0.018-0.115-0.018-0.219-0.002-0.309c0.032-0.16,0.101-0.277,0.206-0.35c0.092-0.055,0.168-0.088,0.234-0.104l0.269-0.057
		c0.047-0.027,0.104-0.049,0.178-0.064c0.074-0.018,0.143-0.031,0.208-0.045l0.712-0.154l3.575-0.768
		c0.276-0.061,0.592-0.127,0.941-0.205c0.351-0.074,0.601-0.053,0.747,0.07c0.109,0.115,0.187,0.277,0.232,0.488
		c0.046,0.213,0.09,0.416,0.129,0.613l0.55,2.547l0.865,4.014c0.066,0.312,0.128,0.609,0.18,0.898
		c0.055,0.287-0.018,0.494-0.212,0.623c-0.088,0.07-0.202,0.117-0.34,0.148s-0.271,0.059-0.403,0.088
		c-0.326,0.07-0.61,0.117-0.852,0.145c-0.241,0.025-0.437-0.064-0.583-0.271c-0.099-0.131-0.182-0.285-0.254-0.459
		c-0.072-0.172-0.162-0.314-0.271-0.426c-0.04-0.027-0.088-0.055-0.146-0.086c-0.058-0.029-0.125-0.029-0.204,0.006
		c-0.123,0.062-0.219,0.15-0.287,0.268c-0.07,0.117-0.145,0.229-0.224,0.328c-0.136,0.168-0.265,0.318-0.39,0.457
		c-0.125,0.137-0.263,0.283-0.418,0.436c-0.185,0.178-0.386,0.33-0.604,0.465c-0.22,0.131-0.443,0.264-0.671,0.4
		c-0.074,0.051-0.155,0.088-0.243,0.115c-0.09,0.027-0.171,0.057-0.247,0.092c-0.125,0.062-0.261,0.107-0.408,0.139
		c-0.146,0.033-0.291,0.078-0.431,0.145c-0.062,0.031-0.153,0.055-0.278,0.072s-0.213,0.023-0.266,0.02l-0.243,0.053
		c-0.085,0-0.166,0.01-0.238,0.023c-0.074,0.018-0.153,0.025-0.239,0.027l-0.197,0.041c-0.138-0.004-0.273,0-0.404,0.012
		c-0.134,0.014-0.27,0.016-0.408,0.01c-0.122-0.008-0.243-0.01-0.363-0.01c-0.118,0-0.239-0.004-0.361-0.014
		c-0.52-0.041-0.99-0.117-1.406-0.234c-1.073-0.297-1.987-0.729-2.741-1.293c-0.751-0.564-1.452-1.314-2.099-2.252
		c-0.146-0.207-0.27-0.42-0.368-0.637c-0.099-0.219-0.212-0.434-0.344-0.645c-0.032-0.078-0.055-0.146-0.067-0.203
		c-0.012-0.057-0.044-0.123-0.095-0.197c-0.057-0.107-0.099-0.221-0.125-0.344s-0.069-0.246-0.131-0.371
		c-0.051-0.074-0.077-0.139-0.081-0.199c-0.005-0.059-0.024-0.127-0.058-0.205l-0.096-0.439c-0.051-0.076-0.095-0.197-0.13-0.369
		c-0.037-0.172-0.048-0.303-0.032-0.393l-0.06-0.27c-0.004-0.1-0.021-0.203-0.055-0.309c-0.03-0.102-0.037-0.199-0.021-0.289
		c0-0.152-0.016-0.305-0.046-0.451c-0.033-0.146-0.046-0.289-0.042-0.428c0.011-0.188,0.013-0.373,0.009-0.551
		c-0.005-0.18,0.009-0.363,0.035-0.559c0.033-0.246,0.062-0.486,0.088-0.723s0.063-0.471,0.115-0.705
		c0.051-0.248,0.116-0.498,0.2-0.748c0.083-0.248,0.168-0.484,0.256-0.707c0.342-0.793,0.771-1.494,1.288-2.109
		s1.181-1.182,1.993-1.697c0.162-0.121,0.344-0.225,0.546-0.312c0.206-0.084,0.407-0.176,0.608-0.271
		c0.075-0.049,0.158-0.084,0.248-0.104c0.09-0.018,0.171-0.053,0.246-0.104c0.106-0.057,0.217-0.09,0.326-0.098
		c0.109-0.006,0.217-0.037,0.324-0.096c0.03-0.021,0.074-0.033,0.136-0.027C111.658,164.969,111.704,164.959,111.735,164.936z"/>
	<path fill="#FFFFFF" d="M146.021,166.957c0.052,0.047,0.122,0.096,0.214,0.156c0.093,0.057,0.18,0.125,0.264,0.199
		c0.081,0.074,0.145,0.158,0.188,0.25c0.043,0.092,0.037,0.188-0.016,0.283c-0.063,0.148-0.226,0.301-0.488,0.463
		c-0.264,0.162-0.478,0.301-0.643,0.416l-0.966,0.67c-0.109,0.078-0.208,0.152-0.291,0.221c-0.086,0.068-0.176,0.117-0.278,0.146
		c-0.18,0.062-0.346,0.059-0.502-0.018c-0.145-0.062-0.278-0.143-0.396-0.244c-0.12-0.098-0.252-0.189-0.39-0.275
		c-0.221-0.172-0.447-0.342-0.675-0.508c-0.228-0.168-0.455-0.324-0.679-0.475c-0.127-0.094-0.243-0.182-0.351-0.26
		c-0.105-0.078-0.208-0.145-0.307-0.199c-0.099-0.053-0.21-0.084-0.335-0.088s-0.266,0.029-0.421,0.096
		c-0.07,0.047-0.136,0.09-0.204,0.125c-0.065,0.037-0.133,0.08-0.201,0.127l-3.251,2.26c-0.231,0.162-0.486,0.332-0.758,0.512
		c-0.271,0.178-0.444,0.375-0.519,0.59c-0.053,0.158-0.053,0.32,0.002,0.486s0.103,0.334,0.143,0.51
		c0.052,0.311,0.129,0.617,0.229,0.924s0.188,0.617,0.266,0.93c0.039,0.176,0.087,0.355,0.145,0.539
		c0.057,0.186,0.059,0.357,0.006,0.514c-0.03,0.104-0.103,0.209-0.219,0.32s-0.252,0.221-0.409,0.332
		c-0.158,0.109-0.322,0.219-0.491,0.326s-0.317,0.203-0.44,0.289c-0.177,0.125-0.39,0.277-0.64,0.461
		c-0.249,0.186-0.451,0.279-0.608,0.287c-0.099,0.008-0.18-0.029-0.243-0.107c-0.063-0.076-0.114-0.168-0.158-0.271
		c-0.041-0.102-0.076-0.205-0.107-0.307c-0.028-0.1-0.048-0.188-0.059-0.262c-0.083-0.412-0.18-0.822-0.292-1.232
		c-0.113-0.408-0.217-0.816-0.312-1.217c-0.022-0.146-0.058-0.285-0.105-0.414s-0.083-0.268-0.105-0.414
		c-0.092-0.365-0.186-0.736-0.284-1.115c-0.101-0.377-0.197-0.746-0.287-1.113c-0.081-0.35-0.167-0.691-0.257-1.025
		s-0.175-0.676-0.256-1.029c-0.21-0.973-0.447-1.936-0.712-2.889c-0.268-0.953-0.506-1.916-0.714-2.893
		c-0.02-0.086-0.042-0.162-0.066-0.227c-0.025-0.064-0.048-0.141-0.067-0.229c-0.09-0.363-0.187-0.734-0.285-1.113
		c-0.101-0.379-0.19-0.752-0.267-1.127c-0.035-0.197-0.086-0.393-0.147-0.582c-0.061-0.193-0.063-0.381-0.006-0.562
		c0.039-0.086,0.104-0.184,0.194-0.289c0.018-0.031,0.044-0.055,0.075-0.066c0.032-0.012,0.059-0.033,0.076-0.066l1.81-1.26
		c0.151-0.105,0.302-0.215,0.455-0.33c0.153-0.117,0.301-0.176,0.445-0.174c0.208-0.021,0.392,0.029,0.55,0.154
		c0.157,0.125,0.326,0.244,0.508,0.361c0.259,0.166,0.509,0.334,0.747,0.504c0.241,0.168,0.488,0.334,0.747,0.5
		c0.085,0.064,0.169,0.127,0.254,0.191c0.086,0.064,0.169,0.127,0.254,0.191c0.301,0.197,0.592,0.396,0.874,0.598
		c0.28,0.199,0.572,0.398,0.872,0.596c0.751,0.496,1.489,1.01,2.217,1.541c0.726,0.533,1.47,1.041,2.234,1.527
		c0.065,0.035,0.118,0.074,0.16,0.119c0.039,0.043,0.092,0.082,0.157,0.117c0.237,0.162,0.472,0.324,0.706,0.486
		s0.469,0.324,0.705,0.486c0.129,0.072,0.245,0.152,0.344,0.234c0.099,0.084,0.208,0.166,0.324,0.248
		c0.481,0.312,0.953,0.639,1.408,0.973c0.456,0.332,0.923,0.65,1.396,0.953c0.055,0.021,0.097,0.051,0.118,0.082
		C145.925,166.906,145.964,166.936,146.021,166.957z M137.419,165.951c0.132-0.191,0.132-0.367,0.005-0.521
		c-0.128-0.154-0.278-0.283-0.452-0.387c-0.065-0.035-0.115-0.078-0.148-0.127s-0.083-0.09-0.149-0.125
		c-0.501-0.342-0.994-0.701-1.479-1.076c-0.486-0.375-0.99-0.736-1.518-1.082c-0.074-0.051-0.162-0.115-0.261-0.201
		c-0.097-0.084-0.197-0.156-0.3-0.215c-0.104-0.061-0.208-0.105-0.312-0.139c-0.101-0.027-0.192-0.014-0.276,0.043
		c-0.009,0.045-0.021,0.086-0.039,0.117c-0.018,0.033-0.03,0.072-0.039,0.119c-0.016,0.215,0.021,0.434,0.107,0.658
		c0.085,0.227,0.155,0.453,0.21,0.678c0.103,0.498,0.228,0.99,0.375,1.479c0.145,0.488,0.28,0.984,0.407,1.488
		c0.039,0.174,0.083,0.342,0.134,0.498c0.05,0.16,0.104,0.33,0.171,0.51c0.034,0.137,0.127,0.258,0.277,0.354
		c0.136,0.051,0.287,0.027,0.451-0.07c0.169-0.096,0.333-0.201,0.5-0.314l1.562-1.086c0.125-0.086,0.261-0.184,0.412-0.287
		C137.209,166.158,137.329,166.055,137.419,165.951z"/>
</g>
<g>
	<path fill="#FFFFFF" d="M53,87.662l-0.019-0.647c-0.104-3.641,1.075-10.353,10.151-14.407c0.564-0.252,1.276-0.135,1.896,0.024
		c0.297,0.076,0.577,0.148,0.816,0.148h0c0.072,0,0.136-0.006,0.196-0.02c1.241-0.28,2.492-0.422,3.72-0.422
		c5.765,0,9.333,3.043,9.482,3.172l0.56,0.487l-3.995,2.212l-0.225-0.084c-0.054-0.021-13.117-4.921-16.137,8.861l-0.116,0.526
		l-0.522-0.135c-1.611-0.418-3.179-0.379-5.18,0.126L53,87.662z M63.92,73.486c-0.14,0-0.259,0.023-0.365,0.07
		c-8.013,3.579-9.474,9.308-9.54,12.791c1.681-0.357,3.106-0.385,4.533-0.095c3.211-13.189,15.336-9.792,17.168-9.18l2.228-1.233
		c-1.213-0.821-4.143-2.463-8.184-2.463c-1.151,0-2.326,0.134-3.491,0.396c-0.133,0.03-0.276,0.046-0.426,0.046l0,0
		c-0.37,0-0.728-0.092-1.074-0.181C64.464,73.56,64.175,73.486,63.92,73.486z"/>
	<path fill="#FFFFFF" d="M61.056,127.192l-13.831-1.99l0.973-6.225c-1.555-1.162-9.16-7.377-7.431-16.532
		c1.934-10.189,11.228-15.229,17.93-14.192c0.868,0.236,1.904,1.031,2.267,2.246c0.266,0.891,0.256,2.326-1.304,4.103l-0.079,0.073
		c-0.51,0.382-1.353,0.372-2.46,0.349c-0.263-0.005-0.538-0.011-0.823-0.011c-0.667,0-1.538,0.028-2.362,0.248
		c-2.104,0.568-5.897,3.001-6.759,8.513c-0.748,4.766,3.621,10.33,8.82,11.233c5.195,0.89,6.228,0.972,6.27,0.975l0.564,0.041
		L61.056,127.192z M48.414,124.323l11.777,1.695l1.442-9.066c-0.746-0.097-2.388-0.336-5.812-0.923
		c-5.708-0.992-10.497-7.143-9.669-12.417c0.945-6.038,5.169-8.722,7.516-9.356c0.942-0.251,1.901-0.283,2.631-0.283
		c0.292,0,0.575,0.006,0.844,0.011c0.238,0.005,0.465,0.01,0.677,0.01c0.22,0,0.867,0,1.104-0.129
		c0.954-1.105,1.315-2.166,1.045-3.069c-0.265-0.888-1.055-1.41-1.49-1.53c-0.469-0.069-1.022-0.111-1.585-0.111
		c-6.083,0-13.444,4.726-15.106,13.483c-1.786,9.453,7.171,15.612,7.262,15.674l0.273,0.185L48.414,124.323z M56.502,123.443
		l-3.301-0.586l0.527-4.366l3.522,0.402L56.502,123.443z M54.35,122.006l1.298,0.23l0.401-2.435l-1.414-0.162L54.35,122.006z
		 M57.147,93.155c-0.734,0-1.367-0.474-1.575-1.179c-0.124-0.417-0.078-0.858,0.131-1.244c0.21-0.387,0.558-0.668,0.979-0.793
		c0.85-0.25,1.791,0.264,2.041,1.105c0.125,0.419,0.08,0.862-0.128,1.248c-0.208,0.386-0.556,0.668-0.977,0.793
		C57.464,93.132,57.306,93.155,57.147,93.155z M57.15,90.91c-0.058,0-0.116,0.009-0.173,0.025c-0.155,0.046-0.284,0.149-0.361,0.292
		c-0.076,0.141-0.094,0.302-0.048,0.453c0.094,0.319,0.433,0.506,0.755,0.41c0.155-0.046,0.282-0.149,0.359-0.292
		c0.077-0.141,0.093-0.304,0.047-0.458C57.654,91.087,57.416,90.91,57.15,90.91z"/>
</g>
<g>
	<path fill="#FFFFFF" d="M110.06,52.076c-0.068,0-0.138-0.019-0.199-0.057c-0.176-0.11-0.229-0.342-0.118-0.517
		c0.034-0.056,3.499-5.584,4.232-7.051c0.093-0.186,0.319-0.26,0.503-0.168c0.185,0.093,0.26,0.318,0.167,0.503
		c-0.749,1.499-4.124,6.886-4.268,7.115C110.306,52.014,110.184,52.076,110.06,52.076z"/>
	<path fill="#FFFFFF" d="M111.81,57.076c-0.086,0-0.173-0.029-0.243-0.089c-0.157-0.134-0.177-0.371-0.043-0.529
		c0.076-0.089,7.598-8.932,8.832-10.414c0.132-0.16,0.369-0.182,0.528-0.048c0.159,0.133,0.181,0.369,0.048,0.528
		c-1.237,1.484-8.761,10.33-8.836,10.419C112.021,57.031,111.916,57.076,111.81,57.076z"/>
	<path fill="#FFFFFF" d="M113.31,61.826c-0.102,0-0.203-0.041-0.276-0.122c-0.14-0.153-0.13-0.39,0.023-0.53
		c0.48-0.439,11.774-10.771,12.778-11.523c0.165-0.124,0.4-0.091,0.524,0.075c0.124,0.166,0.091,0.401-0.075,0.525
		c-0.974,0.731-12.604,11.37-12.722,11.477C113.491,61.793,113.4,61.826,113.31,61.826z"/>
	<path fill="#FFFFFF" d="M115.31,67.826c-0.107,0-0.214-0.046-0.288-0.135c-0.133-0.159-0.111-0.396,0.049-0.528
		c0.162-0.135,16.253-13.506,17.724-14.977c0.146-0.146,0.385-0.146,0.531,0c0.146,0.146,0.146,0.384,0,0.53
		c-1.495,1.495-17.112,14.472-17.776,15.023C115.479,67.798,115.395,67.826,115.31,67.826z"/>
	<path fill="#FFFFFF" d="M117.06,73.326c-0.124,0-0.245-0.062-0.316-0.174c-0.111-0.175-0.06-0.407,0.115-0.518
		c0.158-0.1,15.825-10.044,21.763-13.507c0.176-0.104,0.407-0.044,0.513,0.135c0.104,0.179,0.044,0.409-0.136,0.513
		c-5.925,3.457-21.58,13.393-21.737,13.493C117.198,73.307,117.129,73.326,117.06,73.326z"/>
	<path fill="#FFFFFF" d="M117.31,79.326c-0.142,0-0.277-0.081-0.341-0.218c-0.086-0.188-0.004-0.411,0.185-0.498
		c0.249-0.115,24.976-11.501,27.405-13.688c0.155-0.139,0.392-0.126,0.529,0.028c0.139,0.154,0.127,0.391-0.027,0.53
		c-2.514,2.262-26.571,13.341-27.595,13.812C117.415,79.315,117.362,79.326,117.31,79.326z"/>
	<path fill="#FFFFFF" d="M119.06,83.826c-0.159,0-0.307-0.102-0.357-0.261c-0.062-0.197,0.046-0.408,0.243-0.472
		c0.305-0.097,30.506-9.755,32.712-10.735c0.191-0.084,0.411,0.001,0.495,0.19c0.084,0.189-0.001,0.411-0.19,0.495
		c-2.243,0.997-31.542,10.366-32.788,10.765C119.136,83.82,119.098,83.826,119.06,83.826z"/>
	<path fill="#FFFFFF" d="M121.31,88.826c-0.173,0-0.329-0.12-0.366-0.296c-0.044-0.203,0.085-0.402,0.287-0.446
		c1.329-0.286,32.571-7.008,35.329-7.008c0.207,0,0.375,0.168,0.375,0.375s-0.168,0.375-0.375,0.375
		c-2.679,0-34.847,6.922-35.171,6.992C121.362,88.824,121.335,88.826,121.31,88.826z"/>
	<path fill="#FFFFFF" d="M122.31,95.076c-0.193,0-0.356-0.147-0.374-0.343c-0.018-0.207,0.136-0.388,0.342-0.406
		c0.32-0.027,32.029-2.755,35.479-3.248c0.2-0.035,0.395,0.113,0.424,0.318s-0.113,0.395-0.318,0.424
		c-3.471,0.496-34.214,3.14-35.521,3.252C122.331,95.076,122.32,95.076,122.31,95.076z"/>
	<path fill="#FFFFFF" d="M123.81,101.576c-0.206,0-0.374-0.166-0.375-0.373c-0.001-0.207,0.166-0.375,0.373-0.377
		c0.332-0.002,33.226-0.201,36.192-0.201c0.207,0,0.375,0.168,0.375,0.375s-0.168,0.375-0.375,0.375
		c-2.965,0-35.856,0.199-36.188,0.201C123.812,101.576,123.811,101.576,123.81,101.576z"/>
	<path fill="#FFFFFF" d="M158.81,112.326c-0.009,0-0.018,0-0.026-0.001c-3.467-0.248-31.54-3.255-31.823-3.285
		c-0.206-0.022-0.354-0.207-0.333-0.413c0.021-0.205,0.19-0.353,0.413-0.333c0.283,0.03,28.343,3.036,31.796,3.283
		c0.207,0.015,0.362,0.194,0.348,0.4C159.17,112.176,159.005,112.326,158.81,112.326z"/>
	<path fill="#FFFFFF" d="M156.333,121.708c-0.027,0-0.055-0.003-0.083-0.009c-5.099-1.152-22.084-4.099-22.255-4.129
		c-0.204-0.035-0.341-0.229-0.305-0.434c0.034-0.203,0.211-0.348,0.434-0.305c0.171,0.029,17.175,2.979,22.292,4.135
		c0.201,0.046,0.328,0.247,0.283,0.449C156.659,121.59,156.505,121.708,156.333,121.708z"/>
	<path fill="#FFFFFF" d="M119.527,156.369c-0.168,0-0.321-0.113-0.364-0.284c-0.243-0.977-2.231-7.12-2.251-7.183
		c-0.064-0.197,0.044-0.408,0.241-0.472c0.197-0.064,0.409,0.044,0.472,0.241c0.082,0.254,2.016,6.23,2.267,7.231
		c0.05,0.201-0.072,0.404-0.273,0.455C119.588,156.365,119.558,156.369,119.527,156.369z"/>
	<path fill="#FFFFFF" d="M112,158.542c-0.176,0-0.332-0.123-0.368-0.302c-0.249-1.249-2.439-11.712-2.439-11.712l0.734-0.154
		c0,0,2.19,10.469,2.441,11.72c0.04,0.203-0.092,0.4-0.295,0.441C112.049,158.54,112.024,158.542,112,158.542z"/>
	<path fill="#FFFFFF" d="M104,160.042c-0.157,0-0.304-0.1-0.355-0.257c-0.51-1.528-1.421-15.947-1.459-16.561
		c-0.014-0.207,0.144-0.385,0.351-0.397c0.197-0.026,0.384,0.144,0.397,0.351c0.261,4.149,1.024,15.178,1.422,16.371
		c0.065,0.196-0.04,0.408-0.237,0.474C104.079,160.036,104.039,160.042,104,160.042z"/>
	<path fill="#FFFFFF" d="M97.166,160.041c-0.148,0-0.289-0.089-0.347-0.234c-0.516-1.29,0.352-17.421,0.452-19.256
		c0.012-0.207,0.19-0.39,0.395-0.354c0.207,0.011,0.365,0.188,0.354,0.395c-0.376,6.86-0.846,18.067-0.505,18.936
		c0.076,0.192-0.018,0.411-0.21,0.487C97.259,160.032,97.212,160.041,97.166,160.041z"/>
	<path fill="#FFFFFF" d="M89.31,157.826c-0.03,0-0.061-0.004-0.091-0.011c-0.201-0.051-0.323-0.254-0.273-0.455
		c0.74-2.96,3.222-14.374,3.248-14.489c0.044-0.201,0.244-0.328,0.446-0.286c0.203,0.044,0.331,0.243,0.287,0.446
		c-0.025,0.114-2.51,11.54-3.252,14.511C89.631,157.713,89.478,157.826,89.31,157.826z"/>
	<path fill="#FFFFFF" d="M90.06,53.076c-0.121,0-0.24-0.059-0.312-0.167c-1-1.5-5.248-7.747-5.248-7.747l0.62-0.422
		c0,0,4.251,6.252,5.252,7.752c0.115,0.172,0.068,0.405-0.104,0.52C90.204,53.056,90.131,53.076,90.06,53.076z"/>
	<path fill="#FFFFFF" d="M87.81,57.326c-0.096,0-0.192-0.037-0.265-0.11c-1.987-1.987-9.052-10.172-9.352-10.52
		c-0.135-0.157-0.118-0.394,0.039-0.529c0.156-0.136,0.394-0.119,0.529,0.039c0.073,0.085,7.347,8.512,9.314,10.479
		c0.146,0.146,0.146,0.384,0,0.53C88.001,57.29,87.906,57.326,87.81,57.326z"/>
	<path fill="#FFFFFF" d="M85.31,62.326c-0.084,0-0.168-0.028-0.238-0.085c-4.205-3.463-13.663-11.674-13.758-11.756
		c-0.156-0.136-0.173-0.373-0.037-0.529c0.137-0.156,0.373-0.173,0.529-0.037C71.9,50,81.351,58.205,85.548,61.662
		c0.16,0.132,0.183,0.368,0.051,0.528C85.525,62.28,85.417,62.326,85.31,62.326z"/>
	<path fill="#FFFFFF" d="M83.809,68.326c-0.056,0-0.113-0.013-0.167-0.04c-2.994-1.497-19.838-13.761-20.553-14.282
		c-0.167-0.122-0.205-0.356-0.083-0.524c0.123-0.167,0.356-0.205,0.524-0.083c0.175,0.127,17.509,12.749,20.447,14.218
		c0.186,0.093,0.261,0.318,0.168,0.503C84.079,68.25,83.947,68.326,83.809,68.326z"/>
	<path fill="#FFFFFF" d="M83.059,73.576c-0.054,0-0.109-0.012-0.161-0.037c-5.699-2.726-25.083-14.15-25.279-14.265
		c-0.178-0.105-0.238-0.335-0.133-0.514s0.334-0.238,0.514-0.133c0.195,0.115,19.552,11.523,25.221,14.235
		c0.187,0.089,0.266,0.313,0.177,0.5C83.333,73.498,83.199,73.576,83.059,73.576z"/>
	<path fill="#FFFFFF" d="M60.06,71.576c-0.032,0-0.065-0.004-0.099-0.013c-2.783-0.759-8.863-5.122-9.121-5.308
		c-0.168-0.121-0.206-0.355-0.085-0.523c0.121-0.167,0.354-0.206,0.523-0.085c0.062,0.044,6.226,4.469,8.879,5.192
		c0.2,0.055,0.318,0.261,0.263,0.46C60.376,71.467,60.225,71.576,60.06,71.576z"/>
	<path fill="#FFFFFF" d="M53.31,77.826c-0.039,0-0.079-0.006-0.119-0.019c-2.25-0.75-7.496-3.409-7.718-3.521
		c-0.185-0.094-0.258-0.319-0.165-0.504c0.094-0.184,0.319-0.258,0.504-0.165c0.054,0.027,5.418,2.746,7.616,3.479
		c0.196,0.066,0.303,0.278,0.237,0.475C53.613,77.727,53.467,77.826,53.31,77.826z"/>
	<path fill="#FFFFFF" d="M50.56,84.326c-0.027,0-0.054-0.003-0.082-0.009c-0.977-0.217-1.632-0.468-2.461-0.787
		c-1.432-0.549-3.394-1.302-8.54-2.464c-0.202-0.045-0.329-0.246-0.283-0.448c0.045-0.202,0.245-0.33,0.448-0.283
		c5.199,1.174,7.19,1.938,8.644,2.495c0.8,0.307,1.433,0.549,2.355,0.754c0.202,0.045,0.33,0.246,0.285,0.448
		C50.887,84.208,50.732,84.326,50.56,84.326z"/>
	<path fill="#FFFFFF" d="M44.5,90.125c-0.021,0-0.042-0.001-0.063-0.005c-1.232-0.21-1.576-0.251-1.882-0.287
		c-0.492-0.058-0.881-0.104-4.398-0.763c-0.203-0.038-0.337-0.234-0.299-0.438c0.038-0.204,0.233-0.338,0.438-0.299
		c3.491,0.655,3.869,0.699,4.347,0.756c0.312,0.037,0.663,0.078,1.92,0.292c0.204,0.035,0.341,0.229,0.307,0.433
		C44.838,89.997,44.68,90.125,44.5,90.125z"/>
	<path fill="#FFFFFF" d="M79.56,87.576c-0.048,0-0.096-0.009-0.143-0.028c-4.197-1.728-13.705-5.349-13.8-5.385
		c-0.194-0.074-0.291-0.291-0.217-0.484c0.074-0.194,0.289-0.291,0.484-0.217c0.096,0.037,9.613,3.661,13.819,5.393
		c0.192,0.079,0.283,0.298,0.204,0.489C79.847,87.489,79.707,87.576,79.56,87.576z"/>
	<path fill="#FFFFFF" d="M77.155,92.329c-0.051,0-0.103-0.01-0.152-0.032c-1.423-0.632-2.886-1.088-6.092-2.087
		c-2.002-0.624-4.668-1.455-8.402-2.665c-0.197-0.064-0.305-0.275-0.241-0.473c0.064-0.197,0.275-0.305,0.473-0.241
		c3.729,1.209,6.394,2.04,8.394,2.663c3.234,1.008,4.71,1.468,6.173,2.118c0.189,0.084,0.274,0.306,0.19,0.495
		C77.436,92.246,77.299,92.329,77.155,92.329z"/>
	<path fill="#FFFFFF" d="M75.06,97.076c-1.354,0-2.902-0.341-4.86-0.773c-1.969-0.434-4.201-0.926-6.931-1.229
		c-0.206-0.022-0.354-0.208-0.331-0.414c0.023-0.205,0.206-0.357,0.414-0.331c2.77,0.307,5.121,0.825,7.01,1.242
		c1.914,0.422,3.426,0.755,4.699,0.755c0.207,0,0.375,0.168,0.375,0.375S75.267,97.076,75.06,97.076z"/>
	<path fill="#FFFFFF" d="M73.06,102.326c-0.011,0-0.023-0.001-0.035-0.002c-2.7-0.246-22.632-0.015-22.833-0.012
		c-0.231-0.028-0.377-0.164-0.379-0.37c-0.002-0.208,0.164-0.377,0.371-0.38c0.822-0.009,20.173-0.234,22.911,0.016
		c0.206,0.019,0.358,0.201,0.339,0.407C73.416,102.18,73.252,102.326,73.06,102.326z"/>
	<path fill="#FFFFFF" d="M52.059,109.576c-0.199,0-0.364-0.156-0.374-0.356c-0.01-0.207,0.149-0.383,0.356-0.394
		c0.143-0.007,14.322-0.706,19.256-1.199c0.203-0.018,0.39,0.13,0.41,0.336s-0.13,0.39-0.336,0.41
		c-4.952,0.495-19.15,1.195-19.293,1.203C52.072,109.576,52.065,109.576,52.059,109.576z"/>
	<path fill="#FFFFFF" d="M64.759,114.596c-0.197,0-0.362-0.153-0.374-0.353c-0.012-0.207,0.146-0.385,0.353-0.396
		c0.02-0.002,2.013-0.126,6.195-0.882c0.209-0.035,0.399,0.099,0.436,0.303c0.037,0.203-0.099,0.398-0.302,0.436
		c-4.235,0.766-6.204,0.887-6.285,0.892C64.774,114.596,64.767,114.596,64.759,114.596z"/>
	<path fill="#FFFFFF" d="M39.31,101.326c-0.009,0-0.018,0-0.026-0.001l-4.144-0.284c-0.207-0.014-0.362-0.193-0.348-0.4
		c0.014-0.207,0.193-0.355,0.4-0.348l4.144,0.284c0.207,0.014,0.362,0.193,0.348,0.4C39.67,101.175,39.505,101.326,39.31,101.326z"
		/>
	<path fill="#FFFFFF" d="M35.059,111.326c-0.189,0-0.351-0.142-0.372-0.334c-0.023-0.206,0.125-0.392,0.332-0.414l4.106-0.451
		c0.21-0.014,0.391,0.126,0.414,0.332c0.023,0.206-0.125,0.392-0.332,0.414l-4.106,0.451
		C35.086,111.325,35.073,111.326,35.059,111.326z"/>
	<path fill="#FFFFFF" d="M36.666,118.042c-0.187,0-0.349-0.14-0.372-0.33c-0.025-0.205,0.121-0.393,0.327-0.417l5.5-0.667
		c0.204-0.023,0.392,0.121,0.417,0.327c0.025,0.205-0.121,0.393-0.327,0.417l-5.5,0.667
		C36.696,118.041,36.681,118.042,36.666,118.042z"/>
	<path fill="#FFFFFF" d="M38.833,124.875c-0.167,0-0.319-0.112-0.363-0.281c-0.051-0.201,0.069-0.405,0.27-0.457l5.832-1.5
		c0.197-0.051,0.405,0.069,0.457,0.27c0.051,0.201-0.069,0.405-0.27,0.457l-5.832,1.5C38.896,124.871,38.865,124.875,38.833,124.875
		z"/>
	<path fill="#FFFFFF" d="M82.31,82.326c-0.045,0-0.09-0.008-0.135-0.025l-5.06-1.951c-0.193-0.075-0.29-0.292-0.215-0.485
		c0.075-0.194,0.291-0.29,0.485-0.215l5.06,1.951c0.193,0.075,0.29,0.292,0.215,0.485C82.602,82.235,82.46,82.326,82.31,82.326z"/>
</g>
<path fill="#FFFFFF" stroke="#000000" stroke-linecap="round" stroke-miterlimit="10" d="M99.836,83.463"/>
<path fill="#FFFFFF" d="M87.326,103.471c-0.046,0-0.092-0.006-0.138-0.02c-0.266-0.075-0.419-0.353-0.344-0.618
	c0.009-0.03,0.873-3.06,1.014-4.184c0.1-0.797,0.561-2.531,0.932-3.925c0.188-0.707,0.345-1.294,0.396-1.546
	c0.026-0.131,0-0.45-0.028-0.788c-0.096-1.163-0.256-3.11,0.628-5.875c0.692-2.161,1.256-6.265,1.667-9.262
	c0.343-2.494,0.531-3.816,0.725-4.268c0.158-0.371,0.278-2.043,0.375-3.386c0.255-3.55,0.399-4.552,0.923-4.835
	c0.809-0.436,2.369-0.49,3.79,0.247c1.398,0.726,2.277,2.042,2.476,3.705c0.033,0.274-0.163,0.523-0.438,0.556
	c-0.281,0.03-0.523-0.164-0.556-0.438c-0.203-1.697-1.169-2.533-1.944-2.935c-1.017-0.527-2.181-0.561-2.779-0.292
	c-0.218,0.48-0.372,2.626-0.476,4.064c-0.142,1.972-0.239,3.207-0.453,3.707c-0.15,0.351-0.406,2.211-0.653,4.012
	c-0.44,3.202-0.988,7.188-1.706,9.431c-0.824,2.577-0.673,4.399-0.583,5.489c0.038,0.462,0.065,0.797,0.012,1.065
	c-0.053,0.263-0.214,0.874-0.41,1.607c-0.344,1.292-0.815,3.062-0.906,3.792c-0.15,1.2-1.008,4.207-1.044,4.335
	C87.744,103.328,87.543,103.471,87.326,103.471z"/>
<path fill="#FFFFFF" d="M112.263,104.59c-0.015,0-0.028-0.001-0.042-0.002c-0.275-0.022-0.479-0.265-0.457-0.539
	c0.001-0.018,0.134-1.698-0.277-3.205c-0.333-1.219-0.494-3.573-0.624-5.465c-0.046-0.676-0.086-1.265-0.126-1.666l-0.024-0.244
	c-0.146-1.504-0.452-4.634-1.259-6.513c-0.392-0.913-0.951-3.142-1.6-5.722c-0.767-3.053-1.722-6.852-2.259-7.619l-0.084-0.119
	l-0.006-0.146c-0.108-2.412-0.344-6.451-0.519-7.022c-0.138-0.232-1.356-0.606-2.752-0.282c-1.062,0.246-2.357,0.924-2.49,2.764
	c-0.02,0.275-0.256,0.488-0.535,0.462c-0.275-0.02-0.482-0.259-0.462-0.534c0.151-2.108,1.617-3.521,3.92-3.779
	c1.38-0.154,3.001,0.171,3.275,1.078c0.255,0.835,0.505,6.059,0.554,7.135c0.585,0.99,1.309,3.768,2.326,7.818
	c0.611,2.433,1.188,4.731,1.549,5.571c0.867,2.021,1.184,5.255,1.335,6.81l0.024,0.241c0.041,0.408,0.082,1.008,0.129,1.697
	c0.12,1.75,0.283,4.147,0.591,5.271c0.458,1.682,0.315,3.475,0.309,3.551C112.738,104.393,112.52,104.59,112.263,104.59z"/>
<path fill="#FFFFFF" d="M113.125,88.812c-0.225,0-0.429-0.152-0.485-0.379c-0.306-1.228-0.59-2.196-1.011-3.454
	c-0.491-1.477-0.857-4.199-0.981-5.433c-0.145-1.437-1.761-9.508-2.337-11.671c-0.604-2.268-1.19-8.832-1.19-9.529
	c0-0.088,0.01-0.266,0.023-0.513c0.352-6.264-0.71-7.396-1.374-7.513c-0.97-0.171-2.214-0.265-3.216,0.547
	c-1.34,1.086-2.086,3.608-2.218,7.496c-0.146,2.034-0.148,8.583-0.148,8.648c0,0.276-0.224,0.5-0.5,0.5s-0.5-0.224-0.5-0.5
	c0-0.271,0.001-6.651,0.15-8.702c0.143-4.229,0.989-6.924,2.587-8.219c1.33-1.079,2.932-0.948,4.019-0.755
	c2.378,0.418,2.394,5.082,2.198,8.553c-0.012,0.22-0.021,0.378-0.021,0.457c0,0.664,0.586,7.128,1.157,9.271
	c0.601,2.254,2.214,10.324,2.364,11.829c0.141,1.388,0.506,3.924,0.937,5.216c0.424,1.267,0.723,2.29,1.032,3.528
	c0.066,0.268-0.097,0.54-0.364,0.606C113.205,88.808,113.165,88.812,113.125,88.812z"/>
<path fill="#FFFFFF" d="M87.375,85.375c-0.015,0-0.031,0-0.046-0.002c-0.275-0.025-0.477-0.269-0.452-0.544
	c0.148-1.609,1.137-6.265,2.351-9.897c1.151-3.457,3.214-11.981,3.803-14.637c0.571-2.57,0.724-9.651,0.724-10.513
	c0-0.498,0.38-1.087,0.992-1.537c0.997-0.732,2.317-0.919,3.622-0.51c2.768,0.865,2.994,2.59,2.994,4.59c0,0.276-0.224,0.5-0.5,0.5
	s-0.5-0.224-0.5-0.5c0-2.059-0.318-3.019-2.292-3.636c-1.419-0.442-2.383,0.105-2.731,0.362c-0.446,0.328-0.584,0.65-0.584,0.731
	c0,0.875-0.158,8.075-0.747,10.729c-0.613,2.759-2.652,11.195-3.831,14.737c-1.173,3.511-2.164,8.146-2.304,9.672
	C87.849,85.18,87.631,85.375,87.375,85.375z"/>
<path fill="#FFFFFF" d="M65.16,121.814c-0.196,0-0.382-0.116-0.462-0.309c-0.106-0.255,0.015-0.548,0.271-0.653
	c1.808-0.75,6.726-2.864,7.762-3.641c0.973-0.729,2.731-3.009,3.176-3.751c0.248-0.416,1.306-4.179,2.006-6.669
	c0.473-1.681,0.912-3.24,1.178-4.091c0.498-1.597,0.764-2.871,0.979-3.895c0.099-0.472,0.187-0.89,0.28-1.261
	c0.295-1.184,0.574-2.749,0.711-3.988c0.152-1.367,0.909-3.129,1.642-4.834c0.456-1.061,0.886-2.062,1.106-2.833
	c0.296-1.037,0.85-2.27,1.437-3.574c0.68-1.515,1.384-3.081,1.616-4.239c0.13-0.653,0.248-1.41,0.372-2.209
	c0.296-1.906,0.631-4.066,1.27-5.662c0.437-1.093,0.769-3.026,1.089-4.895c0.306-1.782,0.594-3.465,0.97-4.365
	c0.36-0.865,0.893-3.169,1.409-5.398c0.502-2.174,0.979-4.231,1.345-5.229c0.015-0.544,0.096-3.602,0.096-5.188
	c0-0.78,0.805-1.919,2.105-2.4c0.996-0.368,3.006-0.589,5.287,2.072c0.18,0.209,0.155,0.525-0.055,0.705
	c-0.208,0.179-0.524,0.156-0.705-0.055c-1.397-1.631-2.881-2.264-4.18-1.785c-0.939,0.348-1.452,1.148-1.452,1.462
	c0,1.75-0.098,5.264-0.099,5.299l-0.033,0.166c-0.346,0.897-0.849,3.073-1.335,5.176c-0.549,2.374-1.067,4.615-1.46,5.558
	c-0.332,0.796-0.624,2.501-0.907,4.15c-0.33,1.92-0.67,3.905-1.146,5.097c-0.597,1.491-0.923,3.591-1.21,5.444
	c-0.126,0.815-0.247,1.587-0.38,2.252c-0.254,1.27-0.981,2.888-1.684,4.453c-0.571,1.271-1.11,2.472-1.387,3.439
	c-0.238,0.833-0.681,1.863-1.149,2.954c-0.671,1.561-1.431,3.33-1.566,4.549c-0.142,1.279-0.431,2.896-0.735,4.12
	c-0.091,0.36-0.175,0.766-0.271,1.223c-0.219,1.045-0.491,2.345-1.003,3.988c-0.265,0.846-0.7,2.395-1.169,4.064
	c-1.085,3.857-1.818,6.423-2.112,6.911c-0.473,0.789-2.307,3.194-3.434,4.038c-1.348,1.009-7.708,3.651-7.979,3.764
	C65.289,121.803,65.224,121.814,65.16,121.814z"/>
<path fill="#FFFFFF" d="M107.178,51.21c-0.269,0-0.49-0.212-0.5-0.482c-0.006-0.162-0.145-3.989-0.145-5.159
	c0-0.364-0.39-1.157-1.228-1.701c-0.593-0.386-1.559-0.732-2.771-0.192c-2.321,1.031-2.444,5.049-2.445,5.09
	c-0.007,0.276-0.233,0.475-0.512,0.488c-0.276-0.006-0.494-0.235-0.488-0.511c0.004-0.191,0.138-4.691,3.039-5.981
	c1.27-0.562,2.59-0.467,3.723,0.268c0.975,0.633,1.682,1.702,1.682,2.54c0,1.152,0.143,5.083,0.145,5.123
	c0.01,0.276-0.206,0.508-0.481,0.518C107.189,51.21,107.184,51.21,107.178,51.21z"/>
<path fill="#FFFFFF" d="M99.98,84.785c0,0,0.312,0.842,0.52,6.277c0.034,0.881-0.091,6.578,0,9c0.077,2.06-0.077,6.461-0.664,6.312
	c-0.074-1.469-0.493-6.391-0.419-7.125c0.074-0.735-0.138-7.108,0.011-8.136C99.573,90.086,99.688,84.711,99.98,84.785z"/>
<path fill="#FFFFFF" d="M128.476,149.202c-0.075,0-0.151-0.017-0.224-0.053c-4.153-2.075-10.671-5.265-12.153-5.857
	c-0.544-0.217-1.147-0.278-1.912-0.355c-1.114-0.112-2.501-0.253-4.326-0.966c-3.14-1.225-6.12-3.802-6.906-4.9
	c-0.751-1.052-3.572-6.459-3.962-7.707c-0.083-0.264,0.064-0.544,0.328-0.627c0.265-0.083,0.544,0.064,0.626,0.328
	c0.351,1.121,3.14,6.469,3.822,7.425c0.685,0.956,3.584,3.43,6.456,4.55c1.699,0.664,2.955,0.791,4.063,0.902
	c0.81,0.082,1.509,0.152,2.183,0.423c1.594,0.636,8.348,3.951,12.229,5.891c0.247,0.123,0.347,0.424,0.224,0.671
	C128.835,149.101,128.658,149.202,128.476,149.202z"/>
<path fill="#FFFFFF" d="M76.81,144.951c-0.174,0-0.342-0.091-0.435-0.252c-0.137-0.24-0.054-0.546,0.186-0.683
	c2.18-1.243,4.488-2.437,6.606-2.738c2.5-0.359,7.44-1.959,10.092-5.671c0.732-1.024,1.416-1.879,2.019-2.634
	c1.834-2.293,3.046-3.809,3.471-7.32c0.033-0.273,0.278-0.475,0.557-0.436c0.274,0.033,0.47,0.282,0.437,0.557
	c-0.459,3.793-1.812,5.484-3.683,7.824c-0.595,0.744-1.27,1.588-1.986,2.591c-2.848,3.985-8.106,5.696-10.764,6.079
	c-1.953,0.278-4.159,1.422-6.252,2.617C76.979,144.93,76.894,144.951,76.81,144.951z"/>
<path fill="#FFFFFF" d="M97.682,105.445c-0.022-0.146-0.638,0.098-1.616,0.44c-0.979,0.344-2.594,0.833-3.23,1.077
	c-0.637,0.245-1.615,0.637-1.371,0.685c0.244,0.051,4.406-1.124,4.797-1.271C96.653,106.229,97.729,105.788,97.682,105.445z"/>
<path fill="#FFFFFF" d="M103.509,111.026c0,0,1.174,0.392,1.517,0.539c0.342,0.146,1.322,0.637,1.859,0.88
	c0.539,0.246-0.587-0.047-1.713-0.538C104.045,111.418,103.36,111.222,103.509,111.026z"/>
<path fill="#FFFFFF" d="M98.905,112.935c0,0-1.076,0.591-1.861,0.833c-0.783,0.247-1.762,0.59-1.076,0.686
	c0.686,0.098,1.812-0.438,2.007-0.537C98.17,113.818,98.953,113.424,98.905,112.935z"/>
<path fill="#FFFFFF" d="M82.405,98.396c0,0-0.685,2.987-0.979,3.916c-0.294,0.932-1.566,4.506-1.762,4.946
	c-0.197,0.44-2.105,5.336-2.204,5.681c-0.098,0.34,0.782-0.834,1.42-2.304c0.636-1.468,2.938-7.245,3.183-8.714
	C82.31,100.452,82.748,99.228,82.405,98.396z"/>
<path fill="#FFFFFF" d="M81.034,110.439c0,0-0.293,0.734-0.341,1.567c-0.05,0.83-0.148,2.642,0.341,3.622
	c0.49,0.979-0.832-0.245-0.93-1.321C80.006,113.231,80.496,111.174,81.034,110.439z"/>
<path fill="#FFFFFF" d="M99.887,80.724c0,0,1.515,0.734,2.69,0.88c1.174,0.147,0,0.489-1.321,0.049c-0.88-0.294-1.42-0.44-1.42-0.44
	L99.887,80.724z"/>
<path fill="#FFFFFF" d="M99.688,80.329c0,0-0.978,0.198-1.518,0.198c-0.536,0-2.152,0.147-2.594,0.293
	c-0.442,0.148,0.685,0.197,1.272,0.148c0.59-0.05,2.987,0.048,2.987,0.048L99.688,80.329z"/>
<path fill="#FFFFFF" d="M100.373,92.765c0,0,1.615,0.931,2.646,1.372c0.392,0.197-1.447-0.289-2.057-0.392
	C100.08,93.597,100.228,93.009,100.373,92.765z"/>
<path fill="#FFFFFF" d="M100.178,99.864c0,0,0.785,2.009,2.009,2.891c1.225,0.881,0.391,0.782-1.079-0.393
	c-1.467-1.175-1.076-1.322-1.076-1.322L100.178,99.864z"/>
<path fill="#FFFFFF" d="M99.688,99.105c0,0-0.635,0.909-1.123,1.446c-0.492,0.539-1.471,1.322-1.813,1.519
	c-0.342,0.195-0.393,0.392,0.147,0.244c0.54-0.146,2.938-2.35,2.938-2.35L99.688,99.105z"/>
<path fill="#FFFFFF" d="M111.781,73.233c0,0-0.587,0.489-0.88,0.587c-0.294,0.098,0.734,0.098,1.076-0.049
	C112.32,73.625,111.781,73.233,111.781,73.233z"/>
<path fill="#FFFFFF" d="M89.162,77.59c0,0,0.688,0.685,1.028,0.929c0.344,0.245-1.174-0.391-1.174-0.391L89.162,77.59z"/>
<path fill="#FFFFFF" d="M88.868,79.744c0,0,1.322,0.489-0.098,0.538C88.526,80.136,88.868,79.744,88.868,79.744z"/>
<path fill="#FFFFFF" d="M99.785,64.763c0.786,0.294,1.716,0.294,1.225,0.05c-0.489-0.246-1.174-0.734-1.174-0.734L99.785,64.763z"/>
<path fill="#FFFFFF" d="M99.542,63.784c-0.883,0.195-1.713-0.343-1.125-0.391c0.586-0.049,1.321-0.049,1.321-0.049"/>
<path fill="#FFFFFF" d="M107.621,58.311c-0.025,0-0.051-0.002-0.076-0.006c-1.163-0.177-2.231-1.254-2.857-2.883
	c-0.483-1.259-0.688-2.878-0.051-3.656c1.004-1.226,2.248-1.352,2.3-1.357c0.268-0.029,0.519,0.177,0.544,0.453
	c0.024,0.273-0.176,0.516-0.448,0.543c-0.038,0.004-0.895,0.107-1.622,0.995c-0.267,0.326-0.246,1.475,0.211,2.664
	c0.383,0.995,1.128,2.109,2.074,2.253c0.273,0.042,0.461,0.296,0.419,0.569C108.077,58.134,107.863,58.311,107.621,58.311z"/>
<path fill="#FFFFFF" d="M94.358,55.691L94.05,54.74c0.726-0.235,1.075-1.126,1.219-1.637c0.322-1.144,0.162-2.151,0.025-2.311
	c-0.479-0.557-1.173-0.774-1.18-0.776l0.282-0.959c0.04,0.012,0.98,0.295,1.657,1.084c0.513,0.6,0.493,2.115,0.178,3.233
	C95.889,54.588,95.224,55.411,94.358,55.691z"/>
<path fill="#FFFFFF" d="M95.954,48.615l-0.951-0.308c0.245-0.761,0.371-1.767,0.166-2.053c-0.347-0.486-1.058-0.941-1.303-1.076
	l0.481-0.877c0.044,0.024,1.087,0.603,1.636,1.372C96.588,46.52,96.065,48.272,95.954,48.615z"/>
<path fill="#FFFFFF" d="M103.992,49.658c-0.125-0.861-0.375-2.937,0.012-3.603c0.391-0.667,2.061-1.52,2.562-1.765l0.439,0.898
	c-0.903,0.441-1.979,1.097-2.138,1.37c-0.129,0.259-0.077,1.643,0.114,2.956L103.992,49.658z"/>
<path fill="#FFFFFF" d="M93.393,73.167c-0.317,0-0.625-0.155-0.762-0.234c-0.239-0.139-0.32-0.445-0.182-0.684
	s0.443-0.321,0.684-0.182c0.047,0.027,0.109,0.055,0.163,0.074c1.093-1.575,0.95-5.377,0.759-5.877
	c-0.084-0.131-0.422-0.321-0.617-0.397c-0.257-0.1-0.385-0.389-0.286-0.646c0.099-0.257,0.387-0.386,0.645-0.287
	c0.133,0.051,0.811,0.33,1.127,0.839c0.353,0.565,0.568,5.127-0.888,7.051c-0.09,0.149-0.23,0.258-0.401,0.309
	C93.555,73.157,93.474,73.167,93.393,73.167z"/>
<path fill="#FFFFFF" d="M106.004,73.829c-0.009,0-0.019,0-0.027-0.001c-0.606-0.033-1.174-0.383-1.641-1.01
	c-1.002-1.348-1.459-3.885-1.169-5.087c0.418-1.721,2.143-2.028,2.216-2.04c0.268-0.048,0.529,0.138,0.575,0.411
	c0.045,0.271-0.138,0.528-0.408,0.575c-0.053,0.01-1.151,0.222-1.41,1.29c-0.209,0.864,0.126,3.081,0.999,4.255
	c0.288,0.387,0.589,0.592,0.893,0.609c0.276,0.015,0.487,0.251,0.472,0.526C106.488,73.623,106.268,73.829,106.004,73.829z"/>
<path fill="#FFFFFF" d="M110.791,90.326c0,0-1.076,1.859-2.496,2.349s-0.441,0.391,0.146,0.293c0.59-0.097,1.714-1.027,2.597-2.251
	C111.182,90.57,110.791,90.326,110.791,90.326z"/>
<path fill="#FFFFFF" d="M111.084,92.088c0,0-0.731,1.076-1.713,1.469c-0.978,0.391-1.224,0.636-0.782,0.587s2.3-1.175,2.593-1.518
	C111.28,92.479,111.084,92.088,111.084,92.088z"/>
<path fill="#FFFFFF" d="M111.182,93.997c0,0-0.34,1.029-0.978,1.42c-0.637,0.393-0.783,0.588-0.344,0.44
	c0.441-0.146,1.372-0.978,1.518-1.174C111.526,94.487,111.182,93.997,111.182,93.997z"/>
<path fill="#FFFFFF" d="M110.45,89.004c0,0-1.47,0.978-2.01,1.615c-0.536,0.636-1.468,1.518-1.812,1.909
	c-0.341,0.392,0.344,0.001,0.638-0.245c0.293-0.244,2.89-2.644,3.427-2.937C110.743,89.199,110.45,89.004,110.45,89.004z"/>
<path fill="#FFFFFF" d="M110.057,96.005c0,0-1.076,0.931-1.957,0.979c-0.884,0.049,0.294,0.342,1.321-0.196
	C110.105,96.445,110.889,95.613,110.057,96.005z"/>
<path fill="#FFFFFF" d="M89.817,94.046c0,0,0.392,0.882,0.735,1.176c0.342,0.293-0.295,0.098-0.784-0.196
	C89.277,94.733,89.817,94.046,89.817,94.046z"/>
<path fill="#FFFFFF" d="M89.965,92.822c0,0,0.244,0.588,0.783,0.882c0.538,0.293-0.539,0.148-0.783-0.049
	C89.72,93.459,89.965,92.822,89.965,92.822z"/>
<path fill="#FFFFFF" d="M90.258,88.27c0,0,0.49,1.371,1.127,1.958c0.635,0.588,1.418,1.126,1.859,1.568
	c0.441,0.44-0.391,0.049-1.225-0.54c-0.832-0.587-1.662-2.057-1.957-2.595C89.769,88.123,90.258,88.27,90.258,88.27z"/>
<path fill="#FFFFFF" d="M89.965,90.816c0,0,0.537,1.223,1.027,1.468c0.49,0.245,1.713,0.979,0.98,0.783
	c-0.735-0.196-1.714-0.538-2.057-1.811C89.67,90.914,89.965,90.816,89.965,90.816z"/>
<path fill="#FFFFFF" d="M110.948,78.419c0,0-0.491,1.273-1.614,1.86c-1.127,0.588,0.734,0.392,1.811-1.321
	C111.145,78.714,110.948,78.419,110.948,78.419z"/>
<path fill="#FFFFFF" d="M107.962,62.46c0,0-0.834,0.44-1.469,0.636c-0.637,0.196,0.635,0.146,1.469-0.196
	C108.255,62.754,107.962,62.46,107.962,62.46z"/>
<path fill="#FFFFFF" d="M88.281,73.573c0,0,0.832,0.588,0.489,0.636c-0.342,0.049-0.734,0.049-0.734,0.049L88.281,73.573z"/>
<path fill="#FFFFFF" d="M88.967,70.391c0,0,1.224,1.664,0.782,1.419c-0.439-0.245-0.93-0.686-0.93-0.686L88.967,70.391z"/>
<path fill="#FFFFFF" d="M89.651,75.678c0,0,1.176,1.175,0.931,1.078c-0.245-0.098-1.028-0.489-1.028-0.489L89.651,75.678z"/>
<path fill="#FFFFFF" d="M108.258,65.544c0,0-0.884,0.539-1.323,0.539c-0.441,0,0.783,0.098,1.616-0.05L108.258,65.544z"/>
<path fill="#FFFFFF" d="M108.159,64.417c0,0-0.246,0.295-1.126,0.343c-0.883,0.049,1.174,0.098,1.174,0.098L108.159,64.417z"/>
<path fill="#FFFFFF" d="M111.34,70.88c0,0-0.341,1.029-0.587,1.273c-0.245,0.244,0.489-0.196,0.782-0.783
	C111.829,70.782,111.34,70.88,111.34,70.88z"/>
<path fill="#FFFFFF" d="M108.011,79.057c0,0-0.145,0.391-1.225,0.734c-1.076,0.342-1.567,0.636-0.782,0.538
	c0.782-0.097,2.203-0.637,2.203-0.637L108.011,79.057z"/>
<path fill="#FFFFFF" d="M107.472,77.049c0,0-0.635,0.245-1.224,0.931c-0.587,0.685-0.196,0.391,0.1,0.244
	c0.294-0.146,1.175-0.587,1.175-0.587L107.472,77.049z"/>
<path fill="#FFFFFF" d="M92.001,76.608c0,0,0.834,0.636,1.275,1.224c0.438,0.587-0.98-0.588-1.275-0.637
	C91.708,77.146,92.001,76.608,92.001,76.608z"/>
<path fill="#FFFFFF" d="M91.659,79.105c0,0,0.49,0.783,0.93,1.076c0.441,0.294-0.048,0.196-0.539,0
	c-0.489-0.196-0.732-0.44-0.732-0.44L91.659,79.105z"/>
<path fill="#FFFFFF" d="M90.455,87.388c0,0,0.88,1.763,1.418,2.204c0.538,0.44,1.371,1.565,1.617,1.713
	c0.242,0.147-0.246-0.636-0.59-1.126c-0.342-0.49-1.271-1.322-1.565-1.86c-0.294-0.54-0.833-1.42-0.833-1.42L90.455,87.388z"/>
<path fill="#FFFFFF" d="M109.91,87.289c0,0-1.372,2.253-2.154,2.742c-0.783,0.489-0.685,0.784-0.442,0.685
	c0.246-0.098,1.714-1.566,2.105-2.104c0.394-0.538,0.785-0.882,0.785-0.882L109.91,87.289z"/>
<path fill="#FFFFFF" d="M99.688,107.109c0,0,0,1.225-0.047,1.909c-0.051,0.685-0.148,2.889-0.099,3.866
	c0.048,0.981-0.1,3.331-0.148,3.918c-0.047,0.587-0.248,5.38-0.346,6.308c-0.101,0.931-0.3,4.359-1.279,6.315
	c-0.98,1.959,0.548,0.177,1.079,0.039c0.338-0.088,0.654,1.008,0.799,1.399c0.148,0.391,0.673-0.463,0.28-2.078
	c-0.303-1.25-0.166-4.442-0.166-4.934c0-0.489,0.142-6.31,0.189-6.996c0.051-0.686-0.017-5.685-0.017-6.859
	C99.934,108.821,100.08,106.62,99.688,107.109z"/>
<path fill="#FFFFFF" d="M99.735,113.472c0,0,1.322,1.274,1.764,1.616c0.439,0.343-0.031,0.617-0.98-0.244
	c-0.538-0.489-0.831-0.782-0.831-0.782L99.735,113.472z"/>
<path fill="#FFFFFF" d="M116.358,100.28c0,0,0.22,2.202,0.513,3.305c0.296,1.102,0.735,3.45,1.029,4.407
	c0.293,0.954,1.176,4.626,1.176,6.022c0,1.393,0.146,4.552,0.807,5.358c0.661,0.81-0.22-2.351-0.22-3.377
	c0-1.027-0.66-5.435-1.174-7.197C117.974,107.035,116.507,99.326,116.358,100.28z"/>
<path fill="#FFFFFF" d="M114.812,85.758c0,0,0.22,3.158,0.735,4.039c0.513,0.881,0.881,2.571,1.028,2.204
	c0.146-0.367-0.221-1.101-0.587-2.13C115.621,88.842,114.96,84.877,114.812,85.758z"/>
<path fill="#FFFFFF" d="M108.523,140.894c0,0,1.321,0.513,3.086,0.22c1.761-0.294,3.302-0.438,4.846-1.909
	c1.542-1.468,2.644-2.425,1.322-0.734c-1.322,1.689-2.132,2.424-3.673,2.937c-1.541,0.516-4.185,0.223-4.771,0.148
	C108.742,141.48,108.523,140.894,108.523,140.894z"/>
<path fill="#FFFFFF" d="M89.628,139.497c0,0-1.984,0.438-3.452,0c-1.469-0.442-5.067-1.69-6.608-6.391
	c-0.148-0.368-0.735,0.147,1.908,4.185c0.881,1.029,2.863,3.16,7.638,2.793L89.628,139.497z"/>
<path fill="#FFFFFF" d="M84.12,141.773c0,0-2.645-1.912-3.673-3.086s-0.515,0.148,2.791,3.086
	C83.679,141.918,84.12,141.773,84.12,141.773z"/>
<path fill="#FFFFFF" d="M126.125,126.276c0,0-2.422,5.875-3.524,7.491c-1.103,1.615,0.587-0.146,2.276-3.673
	C126.567,126.57,126.86,124.367,126.125,126.276z"/>
<path fill="#FFFFFF" d="M99.688,92.716c0,0-0.832,0.636-2.006,0.735c-1.175,0.098,0.636,0.636,1.908,0.195
	C99.836,93.255,99.688,92.716,99.688,92.716z"/>
<path fill="#FFFFFF" d="M84.5,147.875c-0.085,0-0.17-0.028-0.24-0.087c-0.159-0.133-0.18-0.369-0.048-0.528
	c0.884-1.061,2.042-3.824,2.053-3.853c0.08-0.191,0.302-0.284,0.49-0.201c0.191,0.079,0.282,0.299,0.202,0.49
	c-0.049,0.117-1.212,2.896-2.169,4.044C84.714,147.829,84.607,147.875,84.5,147.875z"/>
<path fill="#FFFFFF" d="M124.75,154.125c-0.163,0-0.312-0.106-0.36-0.271c-0.395-1.368-1.109-3.33-1.117-3.35
	c-0.07-0.195,0.029-0.41,0.224-0.481s0.41,0.03,0.481,0.224c0.007,0.021,0.73,2.006,1.133,3.4c0.058,0.198-0.058,0.406-0.257,0.464
	C124.819,154.12,124.784,154.125,124.75,154.125z"/>
<path fill="#FFFFFF" d="M149.287,136.961c-0.06,0-0.119-0.014-0.175-0.043c-0.058-0.03-5.793-3.046-7.265-3.7
	c-0.189-0.084-0.274-0.306-0.19-0.495c0.085-0.188,0.305-0.272,0.495-0.19c1.494,0.664,7.072,3.598,7.31,3.722
	c0.183,0.097,0.254,0.323,0.157,0.507C149.552,136.888,149.422,136.961,149.287,136.961z"/>
<path fill="#FFFFFF" d="M144.347,143.25c0,0-4.679-3.078-6.179-4.078c-0.172-0.115-0.219-0.349-0.104-0.521
	c0.115-0.173,0.351-0.216,0.521-0.104c1.5,1,6.175,4.076,6.175,4.076L144.347,143.25z"/>
<path fill="#FFFFFF" d="M138.168,148.209c-0.094,0-0.188-0.035-0.26-0.104c-0.032-0.03-3.186-3.058-4.796-4.024
	c-0.177-0.106-0.234-0.337-0.128-0.515c0.107-0.178,0.338-0.232,0.515-0.128c1.683,1.01,4.797,3.999,4.929,4.126
	c0.149,0.144,0.154,0.381,0.011,0.53C138.364,148.171,138.267,148.209,138.168,148.209z"/>
<path fill="#FFFFFF" d="M153.097,129.687c-0.018,0-0.035-0.001-0.053-0.004c-1.179-0.169-8.502-2.233-8.812-2.321
	c-0.199-0.057-0.315-0.264-0.26-0.463c0.057-0.2,0.259-0.312,0.463-0.26c0.076,0.021,7.586,2.14,8.715,2.302
	c0.205,0.029,0.348,0.219,0.318,0.424C153.441,129.552,153.28,129.687,153.097,129.687z"/>
<path fill="#FFFFFF" d="M42.334,130.375c-0.164,0-0.315-0.108-0.361-0.273c-0.056-0.2,0.061-0.407,0.26-0.463l4.166-1.167
	c0.2-0.051,0.407,0.062,0.462,0.26c0.056,0.2-0.061,0.407-0.26,0.463l-4.166,1.167C42.401,130.37,42.367,130.375,42.334,130.375z"/>
<path fill="#FFFFFF" d="M45.5,136.042c-0.144,0-0.282-0.084-0.344-0.225c-0.083-0.189,0.003-0.411,0.193-0.494l2.666-1.167
	c0.188-0.084,0.41,0.003,0.494,0.193c0.083,0.189-0.003,0.411-0.193,0.494l-2.666,1.167C45.602,136.032,45.55,136.042,45.5,136.042z
	"/>
<path fill="#FFFFFF" d="M138.451,126.078c-0.054,0-0.108-0.009-0.162-0.027c-8.691-2.973-12.68-7.113-12.846-7.288
	c-0.907-1.413-1.458-2.76-2.679-7.642c-0.362-1.45-0.921-3.54-1.515-5.766c-1.192-4.462-2.543-9.519-2.745-11.039
	c-0.293-2.191-1.874-6.483-3.27-10.269c-0.97-2.631-1.886-5.116-2.343-6.792c-1.111-4.076-5.579-20.023-5.624-20.184
	c-0.074-0.266,0.081-0.542,0.347-0.616c0.266-0.078,0.542,0.081,0.616,0.347c0.045,0.161,4.514,16.111,5.626,20.191
	c0.445,1.633,1.354,4.098,2.316,6.708c1.482,4.022,3.015,8.181,3.322,10.482c0.194,1.457,1.536,6.48,2.72,10.914
	c0.596,2.231,1.155,4.327,1.52,5.781c1.285,5.142,1.8,6.178,2.493,7.272l0,0c0.014,0,3.982,4.079,12.385,6.954
	c0.261,0.089,0.4,0.373,0.311,0.635C138.854,125.947,138.659,126.078,138.451,126.078z"/>
<path fill="#FFFFFF" d="M100,67.625c0,0-0.375,1.938-0.25,3.479c0.128,1.581,0.5,6.917,0.5,7.583s-0.1,2.663-0.051,3.416
	c0.047,0.719-0.343,1.311-0.354,1.228c-0.146-1.184-0.44-3.87-0.44-4.453S99,69.083,98.583,67.833S100,67.625,100,67.625z"/>
<path fill="#FFFFFF" d="M113.326,87.062c0,0,1,4.25,1.062,5s-0.158,1.2-0.625-0.062c-1.062-2.875-1.312-4.938-1.5-5.812
	S113.326,87.062,113.326,87.062z"/>
<path fill="#FFFFFF" d="M87.083,83.958c0,0-0.771,3.729-0.958,5.229s-0.25,3.312,0.25,2.062s0.5-2.062,0.75-3
	s0.792-3.604,0.792-4.042S87.521,81.708,87.083,83.958z"/>
<path fill="#FFFFFF" d="M86.611,155.256l-3.117-5.278c-0.596-0.995-1.706-1.59-2.97-1.59c-0.746,0-1.492,0.209-2.158,0.604
	l-1.163,0.691c-0.098,0.058-0.179,0.131-0.271,0.194l-0.855-0.384c0.338-1.781-0.492-3.544-2.062-4.144l-5.731-2.166
	c-0.354-0.136-0.727-0.204-1.107-0.204c-1.116,0-2.176,0.58-2.891,1.515l-0.681-0.328c0.14-0.403,0.233-0.818,0.235-1.238
	c0.006-0.896-0.319-1.722-0.916-2.324l-4.302-4.359c-0.663-0.671-1.628-0.957-2.609-0.887l-0.133-0.818
	c1.569-0.452,2.715-1.743,2.713-3.273l0.035-2.812l-3.158-0.458l-0.022,3.263c-0.012,0.045-0.092,0.128-0.231,0.198
	c-0.254-0.347-0.655-0.577-1.118-0.577c-0.076,0-0.153,0.006-0.241,0.02c-0.396,0.071-0.724,0.299-0.933,0.603
	c-0.21-0.077-0.336-0.189-0.349-0.238l0.018-3.553l-3.359-0.428l0.2,3.972c-0.003,0.938,0.411,1.815,1.165,2.474
	c0.666,0.581,1.533,0.912,2.458,0.972l0.304,1.872l-0.913,0.904c-0.794,0.78-1.253,1.832-1.259,2.884
	c-0.006,0.897,0.319,1.723,0.913,2.32l4.304,4.37c0.6,0.606,1.429,0.939,2.333,0.939c1.041,0,2.089-0.445,2.875-1.222l0.303-0.3
	l1.218,0.588c-0.644,1.966,0.179,4.044,1.906,4.696l5.732,2.177c0.351,0.13,0.719,0.196,1.096,0.196
	c1.302,0,2.527-0.781,3.225-1.997l0.198,0.09c-0.202,0.826-0.125,1.69,0.314,2.438l3.122,5.272c0.591,0.998,1.696,1.594,2.959,1.594
	c0.749,0,1.498-0.211,2.163-0.609l1.17-0.687C86.866,159.124,87.58,156.895,86.611,155.256z M51.008,132.739
	c-0.667-0.771-0.646-1.562-0.709-4.291l1.292,0.166c0,0-0.083,2.625-0.021,2.854s0.312,0.792,1.083,1
	c0.125,0.5,0.229,1.229,0.229,1.229S51.675,133.51,51.008,132.739z M67.513,144.01c0.672,0.188,3.172,1.141,3.578,1.297
	s2.484,0.953,2.797,1.062c0.307,0.107,1.433,1.031,1.225,2.689l-1.106-0.497c-0.024-0.282-0.151-1.008-0.853-1.271
	c-0.875-0.328-4.969-1.906-5.344-2.031c-0.374-0.125-0.949-0.326-1.494,0.214l-1.119-0.54
	C65.261,144.861,66.272,143.737,67.513,144.01z M71.494,150.09c0.128,0.328,0.373,0.584,0.683,0.723
	c-0.115,0.113-0.229,0.169-0.293,0.17l-5.729-2.172c-0.046-0.031-0.104-0.178-0.105-0.384c0.095,0.021,0.191,0.033,0.29,0.033
	c0.529,0,1.021-0.319,1.249-0.804c0.163-0.333,0.193-0.707,0.084-1.055c-0.043-0.138-0.122-0.255-0.202-0.368l5.136,1.943
	c-0.455,0.073-0.878,0.368-1.083,0.816C71.369,149.342,71.358,149.741,71.494,150.09z M57.841,136.9
	c0.219,0.203,3.562,3.531,4.469,4.531c0.882,0.973,0.421,2.232,0.395,2.3l-1.051-0.507c0.153-0.7-0.25-1.105-0.344-1.184
	s-4-4.094-4.25-4.328c-0.243-0.229-0.688-0.277-0.711-0.28l-0.185-1.141C56.91,136.204,57.623,136.698,57.841,136.9z
	 M56.568,138.788l-0.029-0.183l4.1,4.151c-0.632-0.196-1.36,0.107-1.672,0.74c-0.163,0.346-0.185,0.746-0.058,1.098
	c0.023,0.065,0.071,0.114,0.104,0.174c-0.201,0.071-0.366,0.072-0.371,0.071h-0.001l-4.298-4.354
	c-0.028-0.046-0.025-0.188,0.04-0.362c0.224,0.148,0.483,0.249,0.774,0.249c0.079,0,0.158-0.006,0.237-0.02
	C56.155,140.229,56.683,139.53,56.568,138.788z M56.403,131.656c0.104-0.354,0.042-2.5,0.042-2.5l1.188,0.208
	c0,0-0.001,2.043-0.146,2.459c-0.146,0.415-0.209,1.038-1.76,1.765l-0.02-0.117c-0.033-0.332-0.158-1.064-0.158-1.064
	S56.299,132.011,56.403,131.656z M53.94,131.768c0.273-0.046,0.531,0.132,0.58,0.404c0.041,0.23,1.003,5.644,1.189,6.822
	c0.043,0.272-0.144,0.529-0.416,0.572c-0.026,0.004-0.053,0.006-0.079,0.006c-0.241,0-0.454-0.176-0.493-0.422
	c-0.185-1.169-1.176-6.747-1.186-6.803C53.487,132.075,53.669,131.815,53.94,131.768z M58.95,147.01
	c-1.141,0.062-1.703-0.516-2.375-1.188s-3.578-3.594-3.75-3.797s-0.953-1.172-0.531-2.406c0.171-0.56,0.344-1.011,1.267-1.814
	l0.228,1.399c-0.035,0.036-0.583,0.613-0.447,1.431c0.062,0.281,0.156,0.453,0.75,1.047s3.906,3.969,4.016,4.031
	s0.75,0.375,1.734-0.219c0.469,0.188,1.125,0.531,1.125,0.531S60.091,146.947,58.95,147.01z M59.918,144.457
	c-0.249-0.119-0.354-0.418-0.235-0.667s0.418-0.355,0.667-0.235c0.211,0.102,5.173,2.478,6.239,3.014
	c0.247,0.124,0.346,0.424,0.222,0.671c-0.087,0.175-0.264,0.275-0.446,0.275c-0.076,0-0.152-0.017-0.225-0.054
	C65.082,146.93,59.97,144.481,59.918,144.457z M72.669,152.994c-0.812,0.219-1.078,0.219-2.688-0.422s-3.719-1.422-4.266-1.641
	s-1.5-0.656-1.719-1.703c-0.125-0.578-0.141-1.156,0.016-1.734c0.297,0.156,1.078,0.516,1.078,0.516s-0.172,0.984,0.297,1.438
	c0.297,0.25,1.375,0.656,1.953,0.875s3.859,1.484,4.203,1.594c0.516,0.062,0.922,0.078,1.531-0.609
	c0.484,0.203,1.062,0.484,1.062,0.484S73.481,152.775,72.669,152.994z M72.641,149.999c-0.251-0.115-0.361-0.412-0.247-0.663
	c0.115-0.252,0.414-0.359,0.663-0.247c0.213,0.098,5.215,2.387,6.291,2.904c0.249,0.119,0.354,0.418,0.233,0.667
	c-0.086,0.179-0.265,0.283-0.45,0.283c-0.073,0-0.146-0.016-0.217-0.05C77.847,152.381,72.692,150.022,72.641,149.999z
	 M80.297,151.829c-0.03-0.082-0.089-0.144-0.133-0.217c0.128-0.051,0.256-0.086,0.375-0.086c0.161,0,0.239,0.048,0.247,0.055
	l3.117,5.278c0.026,0.086-0.084,0.416-0.486,0.653l-1.168,0.696c-0.186,0.109-0.388,0.17-0.568,0.17
	c-0.163,0-0.243-0.049-0.248-0.051l-2.725-4.603c0.092,0.021,0.187,0.031,0.283,0.031c0.545,0,1.041-0.333,1.262-0.839
	C80.413,152.569,80.429,152.183,80.297,151.829z M85.56,158.369c-0.422,0.562-0.609,0.719-1.328,1.156s-1.516,0.906-2,0.953
	s-1.234,0.094-1.75-0.219s-0.766-0.547-1.531-1.891s-2.172-3.734-2.344-4s-0.562-0.938-0.422-1.656l1.141,0.516
	c0,0,0,0.125,0.328,0.688s2.875,4.828,3.047,5.078s0.859,0.562,1.406,0.281s2.344-1.219,2.516-1.547s0.469-0.828-0.156-1.875
	s-2.422-4.094-2.594-4.344s-0.469-0.828-1.219-0.953c-0.691-0.115-1.157,0.238-1.362,0.381L78,150.357
	c0.274-0.164,1.107-0.655,1.497-0.785c0.469-0.156,1.375-0.422,2.438,0.203c0.406,0.281,0.625,0.609,1.328,1.812s2.438,4,2.547,4.25
	S86.419,157.15,85.56,158.369z"/>
</svg>
