<?xml version="1.0" encoding="utf-8"?>
<!-- Generator: Adobe Illustrator 16.0.0, SVG Export Plug-In . SVG Version: 6.00 Build 0)  -->
<!DOCTYPE svg PUBLIC "-//W3C//DTD SVG 1.1//EN" "http://www.w3.org/Graphics/SVG/1.1/DTD/svg11.dtd">
<svg version="1.1" id="Layer_1" xmlns="http://www.w3.org/2000/svg" xmlns:xlink="http://www.w3.org/1999/xlink" x="0px" y="0px"
	 width="200px" height="200px" viewBox="0 0 200 200" enable-background="new 0 0 200 200" xml:space="preserve">
<g>
	<path d="M94.942,174.529c0.002-0.125-0.006-0.246-0.028-0.367c0.008-0.084,0-0.176-0.024-0.279
		c-0.031-0.188-0.064-0.375-0.097-0.562c-0.033-0.188-0.082-0.377-0.147-0.566c-0.287-0.883-0.748-1.619-1.389-2.209
		c-0.641-0.588-1.576-0.941-2.807-1.057c-0.034,0.012-0.072,0.012-0.112,0c-0.042-0.012-0.08-0.012-0.114,0.002
		c-0.068,0.01-0.136,0.008-0.201-0.006c-0.066-0.014-0.143-0.01-0.228,0.016c-0.186,0.016-0.367,0.037-0.546,0.062
		c-0.18,0.023-0.346,0.062-0.504,0.115c-0.725,0.232-1.316,0.596-1.775,1.088c-0.457,0.496-0.848,1.105-1.168,1.828
		c-0.066,0.18-0.121,0.355-0.162,0.525c-0.041,0.174-0.096,0.348-0.163,0.525c-0.023,0.066-0.036,0.127-0.043,0.184
		c-0.005,0.061-0.019,0.121-0.041,0.188c-0.042,0.078-0.059,0.17-0.052,0.271c0.008,0.1-0.002,0.193-0.025,0.273
		c-0.042,0.082-0.076,0.232-0.105,0.455c-0.03,0.225-0.033,0.379-0.008,0.465l-0.025,0.273c0.011,0.068,0.012,0.141,0.004,0.215
		c-0.006,0.074-0.006,0.146,0.005,0.215c-0.005,0.068-0.009,0.129-0.005,0.189c0.004,0.059,0.002,0.121-0.006,0.188
		c0.033,0.188,0.054,0.375,0.062,0.559c0.006,0.186,0.035,0.365,0.086,0.537c0.131,0.549,0.309,1.066,0.533,1.549
		c0.222,0.48,0.52,0.883,0.891,1.201c0.076,0.094,0.157,0.168,0.244,0.227c0.086,0.059,0.177,0.117,0.271,0.178
		c0.174,0.133,0.359,0.242,0.562,0.328c0.2,0.088,0.414,0.176,0.641,0.264c0.081,0.041,0.157,0.061,0.233,0.059
		c0.076,0,0.154,0.01,0.236,0.035c0.097,0.043,0.195,0.07,0.295,0.078c0.1,0.01,0.207,0.02,0.324,0.031l0.199,0.018
		c0.085-0.008,0.159-0.004,0.226,0.008c0.065,0.016,0.142,0.012,0.228-0.016c0.17-0.016,0.34-0.029,0.506-0.039
		c0.17-0.008,0.332-0.039,0.488-0.092c0.742-0.215,1.337-0.527,1.787-0.938s0.85-0.959,1.2-1.646
		c0.102-0.176,0.183-0.371,0.245-0.584c0.061-0.209,0.137-0.42,0.223-0.633l0.131-0.588c0.023-0.066,0.039-0.137,0.046-0.211
		c0.008-0.074,0.016-0.154,0.022-0.236l0.02-0.199c0.04-0.082,0.069-0.199,0.084-0.357c0.016-0.158,0.009-0.281-0.016-0.367
		l0.041-0.424c-0.012-0.068-0.01-0.131,0.005-0.188c0.013-0.059,0.007-0.121-0.02-0.191
		C94.948,174.787,94.938,174.654,94.942,174.529z"/>
	<path d="M67.406,145.188c0.375,0.125,4.469,1.703,5.344,2.031c0.701,0.263,0.828,0.988,0.853,1.271l1.106,0.497
		c0.208-1.658-0.918-2.582-1.225-2.689c-0.312-0.109-2.391-0.906-2.797-1.062s-2.906-1.109-3.578-1.297
		c-1.24-0.272-2.252,0.852-2.316,0.924l1.119,0.54C66.457,144.861,67.032,145.062,67.406,145.188z"/>
	<path d="M71.99,149.264c-0.114,0.251-0.004,0.548,0.247,0.663c0.052,0.023,5.206,2.382,6.273,2.895
		c0.07,0.034,0.144,0.05,0.217,0.05c0.186,0,0.364-0.104,0.45-0.283c0.12-0.249,0.016-0.548-0.233-0.667
		c-1.076-0.518-6.078-2.807-6.291-2.904C72.404,148.904,72.105,149.012,71.99,149.264z"/>
	<path d="M80.25,150.484c0.75,0.125,1.047,0.703,1.219,0.953s1.969,3.297,2.594,4.344s0.328,1.547,0.156,1.875
		s-1.969,1.266-2.516,1.547s-1.234-0.031-1.406-0.281s-2.719-4.516-3.047-5.078s-0.328-0.688-0.328-0.688l-1.141-0.516
		c-0.141,0.719,0.25,1.391,0.422,1.656s1.578,2.656,2.344,4s1.016,1.578,1.531,1.891s1.266,0.266,1.75,0.219s1.281-0.516,2-0.953
		s0.906-0.594,1.328-1.156c0.859-1.219,0.359-2.281,0.25-2.531s-1.844-3.047-2.547-4.25s-0.922-1.531-1.328-1.812
		c-1.062-0.625-1.969-0.359-2.438-0.203c-0.39,0.13-1.223,0.621-1.497,0.785l1.291,0.58
		C79.093,150.723,79.559,150.369,80.25,150.484z"/>
	<path d="M78.588,153.685c-0.097,0-0.191-0.011-0.283-0.031l2.725,4.603c0.005,0.002,0.085,0.051,0.248,0.051
		c0.181,0,0.383-0.061,0.568-0.17l1.168-0.696c0.402-0.237,0.513-0.567,0.486-0.653l-3.117-5.278
		c-0.008-0.007-0.086-0.055-0.247-0.055c-0.119,0-0.247,0.035-0.375,0.086c0.044,0.073,0.103,0.135,0.133,0.217
		c0.132,0.354,0.116,0.74-0.044,1.089C79.629,153.352,79.133,153.685,78.588,153.685z"/>
	<path d="M65.961,147.442c0.183,0,0.359-0.101,0.446-0.275c0.124-0.247,0.025-0.547-0.222-0.671
		c-1.066-0.536-6.028-2.912-6.239-3.014c-0.249-0.12-0.548-0.014-0.667,0.235s-0.014,0.548,0.235,0.667
		c0.052,0.024,5.164,2.473,6.222,3.004C65.809,147.426,65.885,147.442,65.961,147.442z"/>
	<path d="M65.937,148.388c-0.099,0-0.195-0.012-0.29-0.033c0.002,0.206,0.06,0.353,0.105,0.384l5.729,2.172
		c0.064-0.001,0.178-0.057,0.293-0.17c-0.31-0.139-0.555-0.395-0.683-0.723c-0.136-0.349-0.125-0.748,0.029-1.097
		c0.205-0.448,0.628-0.743,1.083-0.816l-5.136-1.943c0.08,0.113,0.159,0.23,0.202,0.368c0.109,0.348,0.079,0.722-0.084,1.055
		C66.958,148.068,66.466,148.388,65.937,148.388z"/>
	<path d="M54.755,140.3c-0.291,0-0.551-0.101-0.774-0.249c-0.065,0.174-0.068,0.316-0.04,0.362l4.298,4.354h0.001
		c0.005,0.001,0.17,0,0.371-0.071c-0.033-0.06-0.081-0.108-0.104-0.174c-0.127-0.352-0.105-0.752,0.058-1.098
		c0.312-0.633,1.04-0.937,1.672-0.74l-4.1-4.151l0.029,0.183c0.114,0.742-0.413,1.441-1.173,1.564
		C54.913,140.294,54.834,140.3,54.755,140.3z"/>
	<path d="M57.703,145.641c-0.109-0.062-3.422-3.438-4.016-4.031s-0.688-0.766-0.75-1.047c-0.136-0.817,0.412-1.395,0.447-1.431
		l-0.228-1.399c-0.923,0.804-1.096,1.255-1.267,1.814c-0.422,1.234,0.359,2.203,0.531,2.406s3.078,3.125,3.75,3.797
		s1.234,1.25,2.375,1.188s2.016-0.984,2.016-0.984s-0.656-0.344-1.125-0.531C58.453,146.016,57.812,145.703,57.703,145.641z"/>
	<path d="M55.323,133.516c1.551-0.727,1.614-1.35,1.76-1.765c0.146-0.416,0.146-2.459,0.146-2.459l-1.188-0.208
		c0,0,0.062,2.146-0.042,2.5s-0.854,0.75-0.854,0.75s0.125,0.732,0.158,1.064L55.323,133.516z"/>
	<path d="M54.812,139.5c0.026,0,0.053-0.002,0.079-0.006c0.272-0.043,0.459-0.3,0.416-0.572c-0.187-1.179-1.148-6.592-1.189-6.822
		c-0.049-0.272-0.307-0.45-0.58-0.404c-0.271,0.048-0.453,0.308-0.404,0.58c0.01,0.056,1.001,5.634,1.186,6.803
		C54.357,139.324,54.57,139.5,54.812,139.5z"/>
	<path d="M56.656,137.641c0.25,0.234,4.156,4.25,4.25,4.328s0.497,0.483,0.344,1.184l1.051,0.507c0.026-0.067,0.487-1.327-0.395-2.3
		c-0.906-1-4.25-4.328-4.469-4.531c-0.218-0.202-0.931-0.696-1.677-0.608l0.185,1.141C55.969,137.363,56.413,137.412,56.656,137.641
		z"/>
	<path d="M49.303,118.506l-0.911,5.834l11.815,1.7l1.447-9.104c-0.735-0.095-2.376-0.333-5.83-0.925
		c-5.699-0.991-10.48-7.131-9.654-12.396c0.943-6.028,5.16-8.708,7.502-9.34c0.94-0.25,1.897-0.282,2.627-0.282
		c0.291,0,0.574,0.006,0.844,0.011c0.237,0.005,0.465,0.01,0.678,0.01c0.222,0,0.876,0,1.116-0.133
		c0.959-1.112,1.323-2.179,1.051-3.09c-0.268-0.895-1.064-1.421-1.503-1.542c-0.473-0.07-1.027-0.112-1.591-0.112
		c-6.09,0-13.461,4.731-15.125,13.499c-1.788,9.466,7.18,15.633,7.271,15.693L49.303,118.506z M53.745,118.513l3.482,0.397
		l-0.741,4.511l-3.264-0.58L53.745,118.513z M55.721,90.742c0.207-0.382,0.551-0.661,0.968-0.784
		c0.838-0.245,1.771,0.26,2.018,1.092c0.124,0.414,0.079,0.853-0.127,1.233c-0.206,0.382-0.55,0.661-0.966,0.784
		c-0.152,0.045-0.31,0.068-0.467,0.068c-0.725,0-1.351-0.468-1.556-1.165C55.468,91.559,55.514,91.122,55.721,90.742z"/>
	<path d="M57.329,92.109c0.159-0.047,0.291-0.154,0.37-0.301c0.079-0.146,0.096-0.313,0.049-0.472
		c-0.078-0.262-0.324-0.445-0.598-0.445c-0.061,0-0.12,0.009-0.179,0.026c-0.16,0.047-0.293,0.154-0.372,0.301
		c-0.079,0.146-0.097,0.312-0.05,0.468C56.646,92.015,56.995,92.205,57.329,92.109z"/>
	<path d="M75.719,77.093l2.262-1.252c-1.198-0.816-4.146-2.483-8.22-2.483c-1.153,0-2.329,0.134-3.495,0.397
		c-0.132,0.03-0.274,0.045-0.422,0.045c-0.367,0-0.724-0.092-1.069-0.18c-0.307-0.079-0.597-0.153-0.854-0.153
		c-0.143,0-0.264,0.023-0.372,0.072c-8.041,3.592-9.492,9.347-9.552,12.832c1.693-0.362,3.129-0.393,4.566-0.096
		C61.77,73.061,73.918,76.49,75.719,77.093z"/>
	<path d="M94.607,54.37c0.357-0.375,0.562-0.911,0.661-1.267c0.322-1.144,0.162-2.151,0.025-2.311
		c-0.169-0.196-0.363-0.348-0.546-0.465C94.732,51.151,94.69,52.688,94.607,54.37z"/>
	<path d="M71.141,151.844c-0.344-0.109-3.625-1.375-4.203-1.594s-1.656-0.625-1.953-0.875c-0.469-0.453-0.297-1.438-0.297-1.438
		s-0.781-0.359-1.078-0.516c-0.156,0.578-0.141,1.156-0.016,1.734c0.219,1.047,1.172,1.484,1.719,1.703s2.656,1,4.266,1.641
		s1.875,0.641,2.688,0.422s1.469-1.203,1.469-1.203s-0.578-0.281-1.062-0.484C72.062,151.922,71.656,151.906,71.141,151.844z"/>
	<path d="M93.898,66.122c-0.151,0.85-0.265,2.415-0.347,3.55c-0.07,0.968-0.129,1.757-0.196,2.37
		c1.023-1.627,0.886-5.288,0.699-5.777C94.026,66.221,93.967,66.171,93.898,66.122z"/>
	<path d="M105.41,52.4c-0.267,0.326-0.246,1.475,0.211,2.664c0.31,0.804,0.857,1.676,1.554,2.062c0.124-2.994-0.1-4.7-0.434-5.651
		C106.421,51.574,105.89,51.815,105.41,52.4z"/>
	<path d="M45.739,44.785c0.181,0.477,0.382,0.943,0.603,1.402s0.434,0.928,0.637,1.403c0.067,0.167,0.139,0.325,0.213,0.474
		c0.074,0.149,0.155,0.308,0.247,0.475c0.056,0.131,0.167,0.233,0.329,0.308c0.143,0.026,0.287-0.021,0.438-0.143
		c0.15-0.12,0.297-0.25,0.442-0.389l1.373-1.319c0.106-0.104,0.228-0.22,0.359-0.348c0.132-0.127,0.235-0.249,0.31-0.366
		c0.098-0.21,0.072-0.382-0.078-0.515c-0.152-0.133-0.322-0.237-0.508-0.312c-0.07-0.024-0.125-0.059-0.166-0.101
		c-0.041-0.043-0.096-0.076-0.167-0.102c-0.55-0.258-1.095-0.534-1.632-0.829c-0.537-0.293-1.092-0.57-1.666-0.83
		c-0.082-0.036-0.178-0.089-0.289-0.156c-0.111-0.066-0.223-0.122-0.334-0.166c-0.111-0.043-0.221-0.071-0.326-0.086
		c-0.105-0.014-0.195,0.014-0.267,0.083c-0.001,0.048-0.007,0.089-0.021,0.124c-0.012,0.035-0.018,0.077-0.02,0.124
		c0.02,0.213,0.089,0.424,0.208,0.633C45.545,44.359,45.65,44.571,45.739,44.785z"/>
	<path d="M51.167,131.396c-0.062-0.229,0.021-2.854,0.021-2.854l-1.292-0.166c0.062,2.729,0.042,3.521,0.709,4.291
		s1.875,0.959,1.875,0.959s-0.104-0.729-0.229-1.229C51.479,132.188,51.229,131.626,51.167,131.396z"/>
	<polygon points="54.328,122.022 55.664,122.259 56.071,119.785 54.618,119.618 	"/>
	<path d="M170.069,61.333c-0.166-0.329-0.346-0.668-0.543-1.018l-1.419-2.535c-0.047-0.013-0.073-0.035-0.082-0.069
		c-0.011-0.033-0.021-0.063-0.037-0.093c-0.142-0.15-0.28-0.227-0.416-0.228c-0.157-0.008-0.326,0.043-0.501,0.152
		c-0.18,0.109-0.355,0.214-0.53,0.312l-2.033,1.138c-0.175,0.099-0.349,0.196-0.523,0.294s-0.294,0.212-0.354,0.342
		c-0.055,0.107-0.06,0.234-0.016,0.383c0.044,0.147,0.103,0.305,0.18,0.473c0.074,0.169,0.164,0.339,0.27,0.51
		c0.107,0.171,0.194,0.321,0.27,0.452l0.721,1.29c0.057,0.102,0.116,0.213,0.173,0.333c0.057,0.121,0.127,0.217,0.206,0.288
		l0.157,0.284c0.095,0.101,0.173,0.205,0.234,0.314s0.134,0.207,0.222,0.291c0.21,0.207,0.427,0.373,0.65,0.498
		c0.224,0.123,0.464,0.198,0.728,0.223c0.182,0.015,0.363-0.001,0.547-0.047c0.185-0.047,0.393-0.105,0.62-0.176
		c0.178-0.061,0.377-0.167,0.599-0.319c0.219-0.152,0.379-0.275,0.479-0.37c0.041-0.062,0.085-0.105,0.129-0.13
		s0.079-0.063,0.107-0.117c0.353-0.428,0.502-0.932,0.444-1.513C170.326,61.982,170.234,61.662,170.069,61.333z"/>
	<path d="M106.493,63.096c0.334-0.103,0.721-0.273,1.015-0.411c-0.232-2.075-0.388-3.98-0.388-4.338c0-0.033,0.003-0.09,0.005-0.147
		c-0.997-0.343-1.888-1.348-2.438-2.778c-0.483-1.259-0.688-2.878-0.051-3.656c0.543-0.663,1.15-0.999,1.607-1.173
		c-0.164-0.167-0.329-0.247-0.475-0.272c-0.97-0.171-2.214-0.265-3.216,0.547c-1.34,1.086-2.087,3.608-2.218,7.496
		c-0.085,1.183-0.121,3.889-0.137,5.962c0.238,0.158,0.551,0.356,0.811,0.486c0.406,0.202-0.161,0.234-0.814,0.073
		c-0.002,0.383-0.004,0.738-0.005,1.039c0.646-0.511,1.477-0.853,2.478-0.965c1.305-0.145,2.808,0.143,3.203,0.939
		c0.015,0.021,0.023,0.043,0.034,0.066c0.011,0.025,0.03,0.046,0.038,0.073c0.005,0.016,0.01,0.043,0.015,0.062v0c0,0,0,0,0,0
		c0.25,0.98,0.491,6.013,0.539,7.07c0.572,0.955,1.41,3.658,2.501,7.343c0.031-0.051,0.134-0.129,0.336-0.235
		c0.581-0.304,0.99-0.79,1.252-1.189c-0.329-2.202-1.744-9.219-2.275-11.215c-0.119-0.449-0.238-1.071-0.353-1.778
		c-0.703,0.043-1.366-0.015-1.023-0.015c0.26,0,0.673-0.188,0.969-0.342c-0.044-0.29-0.088-0.586-0.13-0.895
		c-0.549-0.018-1.354-0.052-0.74-0.086c0.312-0.017,0.543-0.066,0.713-0.121c-0.07-0.526-0.137-1.066-0.198-1.603
		C106.777,63.25,105.956,63.261,106.493,63.096z"/>
	<path d="M104.14,67.965c-0.209,0.864,0.126,3.081,0.999,4.255c0.108,0.145,0.219,0.256,0.329,0.35
		c-0.098-1.993-0.255-4.585-0.395-5.725C104.725,67.016,104.291,67.343,104.14,67.965z"/>
	<path d="M95.863,43.668c-0.534,0.198-0.912,0.537-1.154,0.854c0.364,0.24,0.92,0.654,1.274,1.149
		c0.354,0.498,0.319,1.303,0.208,1.956c0.69-0.145,1.433-0.126,2.178,0.107c0.287,0.09,0.541,0.191,0.776,0.299
		c0.076-0.681,0.263-1.749,0.713-2.778C98.516,43.78,97.102,43.21,95.863,43.668z"/>
	<path d="M136.972,165.043c-0.065-0.035-0.115-0.078-0.148-0.127s-0.083-0.09-0.149-0.125c-0.501-0.342-0.994-0.701-1.479-1.076
		c-0.486-0.375-0.99-0.736-1.518-1.082c-0.074-0.051-0.162-0.115-0.261-0.201c-0.097-0.084-0.197-0.156-0.3-0.215
		c-0.104-0.061-0.208-0.105-0.312-0.139c-0.101-0.027-0.192-0.014-0.276,0.043c-0.009,0.045-0.021,0.086-0.039,0.117
		c-0.018,0.033-0.03,0.072-0.039,0.119c-0.016,0.215,0.021,0.434,0.107,0.658c0.085,0.227,0.155,0.453,0.21,0.678
		c0.103,0.498,0.228,0.99,0.375,1.479c0.145,0.488,0.28,0.984,0.407,1.488c0.039,0.174,0.083,0.342,0.134,0.498
		c0.05,0.16,0.104,0.33,0.171,0.51c0.034,0.137,0.127,0.258,0.277,0.354c0.136,0.051,0.287,0.027,0.451-0.07
		c0.169-0.096,0.333-0.201,0.5-0.314l1.562-1.086c0.125-0.086,0.261-0.184,0.412-0.287c0.151-0.105,0.271-0.209,0.361-0.312
		c0.132-0.191,0.132-0.367,0.005-0.521C137.296,165.275,137.146,165.146,136.972,165.043z"/>
	<path d="M101.925,50.092c0.638-0.517,1.337-0.752,2.013-0.839c-0.126-0.987-0.269-2.62,0.066-3.198
		c0.299-0.511,1.343-1.127,2.043-1.499c-0.191-0.241-0.424-0.482-0.741-0.688c-0.593-0.386-1.558-0.732-2.771-0.192
		c-2.069,0.919-2.391,4.206-2.438,4.938c0.718,0.592,1.033,1.331,1.167,2.162C101.47,50.52,101.687,50.285,101.925,50.092z"/>
	<path d="M104.868,46.558c-0.119,0.24-0.082,1.442,0.075,2.661c0.36,0.02,0.701,0.065,1,0.118c0.261,0.046,0.489,0.151,0.696,0.292
		c-0.043-1.266-0.106-3.269-0.106-4.06c0-0.033-0.021-0.084-0.026-0.123C105.744,45.855,104.999,46.335,104.868,46.558z"/>
	<path d="M100.238,5.513c-51.98,0-94.121,42.138-94.121,94.119c0,51.981,42.141,94.119,94.121,94.119
		c51.983-0.001,94.123-42.138,94.123-94.119C194.361,47.651,152.222,5.513,100.238,5.513z M149.979,36.374l1.058-1.135
		c0.104-0.11,0.206-0.22,0.309-0.33c0.104-0.109,0.206-0.172,0.313-0.188c0.127-0.04,0.276-0.016,0.445,0.073
		c0.034,0.011,0.063,0.03,0.083,0.06c0.018,0.028,0.046,0.049,0.081,0.06l6.845,6.396l1.593,1.488
		c0.145,0.137,0.278,0.273,0.403,0.411c0.122,0.138,0.173,0.277,0.155,0.42c-0.009,0.06-0.035,0.116-0.072,0.171
		c-0.042,0.056-0.072,0.117-0.092,0.189l-0.188,0.201c-0.068,0.098-0.151,0.191-0.247,0.283c-0.099,0.092-0.187,0.181-0.268,0.266
		c-0.09,0.099-0.176,0.195-0.254,0.293c-0.079,0.097-0.165,0.183-0.257,0.257c-0.07,0.05-0.162,0.136-0.275,0.257
		c-0.174,0.113-0.327,0.153-0.456,0.122c-0.12-0.019-0.234-0.08-0.344-0.184c-0.109-0.102-0.226-0.211-0.349-0.324l-1.262-1.181
		l-3.314-3.096c-0.096-0.091-0.205-0.199-0.328-0.325s-0.252-0.245-0.386-0.358c-0.134-0.114-0.263-0.213-0.39-0.298
		c-0.127-0.084-0.232-0.131-0.315-0.14c-0.143-0.019-0.276,0.021-0.403,0.12c-0.127,0.1-0.259,0.222-0.396,0.368l-0.975,1.043
		l-0.495,0.53c-0.068,0.121-0.12,0.227-0.157,0.316c-0.04,0.09-0.044,0.182-0.018,0.274c0.028,0.118,0.087,0.225,0.18,0.322
		c0.092,0.098,0.192,0.197,0.302,0.3l0.988,0.924l3.149,2.941c0.083,0.08,0.195,0.177,0.329,0.29s0.256,0.23,0.374,0.351
		c0.114,0.12,0.22,0.235,0.312,0.344c0.094,0.109,0.146,0.204,0.162,0.287c0.026,0.094,0,0.207-0.079,0.339
		c-0.076,0.133-0.173,0.266-0.287,0.4c-0.113,0.134-0.236,0.265-0.365,0.393c-0.132,0.129-0.243,0.242-0.336,0.34
		c-0.078,0.086-0.159,0.171-0.238,0.257c-0.081,0.084-0.162,0.146-0.243,0.186c-0.116,0.074-0.239,0.108-0.368,0.101
		c-0.094-0.021-0.201-0.073-0.315-0.158c-0.116-0.084-0.236-0.187-0.365-0.307c-0.13-0.119-0.252-0.242-0.375-0.368
		c-0.125-0.126-0.226-0.229-0.312-0.308l-3.57-3.335c-0.146-0.138-0.282-0.271-0.412-0.402c-0.129-0.133-0.26-0.243-0.392-0.332
		c-0.134-0.091-0.265-0.146-0.396-0.165c-0.129-0.02-0.265,0.009-0.405,0.085c-0.068,0.05-0.134,0.108-0.197,0.175
		c-0.062,0.067-0.122,0.132-0.18,0.193l-0.65,0.694l-0.955,1.025c-0.138,0.146-0.252,0.286-0.342,0.42
		c-0.09,0.133-0.12,0.27-0.092,0.409c0.002,0.071,0.028,0.136,0.076,0.192c0.051,0.059,0.095,0.127,0.132,0.208l0.184,0.172
		c0.049,0.069,0.112,0.136,0.191,0.197c0.078,0.062,0.148,0.122,0.21,0.179l0.769,0.718l3.441,3.216l0.971,0.906
		c0.096,0.092,0.192,0.18,0.282,0.266c0.092,0.085,0.158,0.18,0.197,0.285c0.063,0.128,0.068,0.259,0.013,0.39
		c-0.032,0.084-0.087,0.171-0.159,0.263c-0.075,0.091-0.156,0.186-0.248,0.283l-0.786,0.842c-0.138,0.146-0.271,0.277-0.403,0.395
		c-0.131,0.116-0.275,0.16-0.429,0.129c-0.132-0.007-0.255-0.064-0.37-0.172c-0.116-0.109-0.241-0.226-0.375-0.352l-1.373-1.283
		l-5.418-5.062l-1.445-1.351c-0.171-0.16-0.312-0.31-0.423-0.447s-0.151-0.283-0.12-0.438c0.018-0.119,0.083-0.236,0.19-0.353
		c0.109-0.116,0.215-0.229,0.317-0.339l1.231-1.318l4.65-4.977L149.979,36.374z M156.56,81.826c-2.679,0-34.847,6.922-35.171,6.992
		c-0.026,0.006-0.054,0.008-0.079,0.008c-0.173,0-0.329-0.12-0.366-0.296c-0.044-0.203,0.085-0.402,0.287-0.446
		c1.329-0.286,32.571-7.008,35.329-7.008c0.207,0,0.375,0.168,0.375,0.375S156.767,81.826,156.56,81.826z M157.757,91.08
		c0.199-0.035,0.395,0.113,0.424,0.318s-0.113,0.395-0.318,0.424c-3.471,0.496-34.214,3.14-35.521,3.252
		c-0.011,0.001-0.021,0.001-0.032,0.001c-0.193,0-0.356-0.147-0.374-0.343c-0.018-0.207,0.136-0.388,0.342-0.406
		C122.598,94.3,154.307,91.573,157.757,91.08z M116.858,72.635c0.158-0.1,15.825-10.044,21.763-13.507
		c0.175-0.104,0.406-0.044,0.513,0.135c0.104,0.179,0.044,0.409-0.136,0.513c-5.925,3.457-21.58,13.393-21.737,13.493
		c-0.062,0.04-0.132,0.059-0.201,0.059c-0.124,0-0.245-0.062-0.316-0.174C116.632,72.978,116.684,72.746,116.858,72.635z
		 M115.549,67.74c-0.069,0.058-0.154,0.086-0.239,0.086c-0.107,0-0.214-0.046-0.288-0.135c-0.133-0.159-0.111-0.396,0.049-0.528
		c0.162-0.135,16.253-13.506,17.724-14.977c0.146-0.146,0.385-0.146,0.531,0c0.146,0.146,0.146,0.384,0,0.53
		C131.83,54.211,116.213,67.188,115.549,67.74z M117.153,78.61c0.249-0.115,24.976-11.501,27.405-13.688
		c0.155-0.139,0.392-0.126,0.529,0.028c0.139,0.154,0.127,0.391-0.027,0.53c-2.514,2.262-26.571,13.341-27.595,13.812
		c-0.051,0.023-0.104,0.034-0.156,0.034c-0.142,0-0.277-0.081-0.341-0.218C116.883,78.92,116.965,78.697,117.153,78.61z
		 M118.945,83.094c0.305-0.097,30.506-9.755,32.712-10.735c0.19-0.084,0.41,0.001,0.495,0.19c0.084,0.189-0.001,0.411-0.19,0.495
		c-2.243,0.997-31.542,10.366-32.788,10.765c-0.038,0.012-0.076,0.018-0.114,0.018c-0.159,0-0.307-0.102-0.357-0.261
		C118.64,83.368,118.748,83.157,118.945,83.094z M127.668,39.673c0.097-0.186,0.192-0.376,0.291-0.569l1.14-2.23l3.165-6.203
		l0.968-1.896c0.053-0.104,0.112-0.21,0.176-0.318c0.065-0.107,0.104-0.213,0.12-0.318c0.024-0.081,0.057-0.148,0.104-0.2
		c0.046-0.052,0.067-0.115,0.069-0.189c0.053-0.291-0.028-0.507-0.247-0.646c-0.219-0.141-0.486-0.29-0.798-0.45l-2.076-1.059
		c-0.164-0.083-0.346-0.172-0.552-0.268c-0.204-0.095-0.359-0.188-0.463-0.277c-0.096-0.106-0.15-0.219-0.166-0.338
		c-0.007-0.097,0.018-0.207,0.072-0.33c0.053-0.123,0.109-0.244,0.171-0.362l0.557-1.094c0.099-0.193,0.197-0.358,0.296-0.496
		c0.098-0.138,0.226-0.213,0.383-0.227c0.06-0.007,0.155,0.005,0.291,0.036l0.112,0.057l8.924,4.555l2.276,1.162
		c0.192,0.099,0.381,0.199,0.562,0.302s0.313,0.221,0.396,0.355c0.028,0.054,0.037,0.118,0.024,0.197
		c-0.011,0.078-0.028,0.158-0.051,0.24l-0.057,0.111c-0.018,0.067-0.044,0.138-0.081,0.212s-0.077,0.148-0.114,0.223l-0.444,0.87
		c-0.053,0.105-0.101,0.207-0.143,0.307c-0.041,0.102-0.101,0.188-0.175,0.263c-0.204,0.215-0.421,0.272-0.653,0.174
		c-0.229-0.099-0.501-0.228-0.812-0.388l-2.278-1.162c-0.296-0.151-0.559-0.271-0.786-0.358c-0.226-0.089-0.44-0.025-0.645,0.19
		c-0.055,0.067-0.087,0.134-0.103,0.201c-0.018,0.066-0.059,0.13-0.125,0.189c-0.062,0.082-0.116,0.18-0.164,0.295
		c-0.051,0.116-0.099,0.217-0.145,0.307l-1.012,1.986l-3.279,6.425l-1.071,2.099c-0.123,0.237-0.239,0.437-0.347,0.596
		c-0.109,0.159-0.265,0.235-0.466,0.226c-0.121-0.023-0.248-0.069-0.382-0.137c-0.133-0.068-0.261-0.133-0.379-0.194l-1.516-0.773
		c-0.164-0.084-0.313-0.17-0.446-0.256c-0.134-0.087-0.215-0.194-0.243-0.322C127.532,40.031,127.573,39.859,127.668,39.673z
		 M126.359,49.726c0.124,0.166,0.091,0.401-0.075,0.525c-0.974,0.731-12.604,11.37-12.722,11.477
		c-0.071,0.065-0.162,0.098-0.253,0.098c-0.102,0-0.203-0.041-0.276-0.122c-0.14-0.153-0.13-0.39,0.023-0.53
		c0.48-0.439,11.774-10.771,12.778-11.523C126,49.527,126.235,49.561,126.359,49.726z M120.932,46.525
		c-1.237,1.484-8.761,10.33-8.836,10.419c-0.074,0.087-0.18,0.132-0.286,0.132c-0.086,0-0.173-0.029-0.243-0.089
		c-0.157-0.134-0.177-0.371-0.043-0.529c0.076-0.089,7.598-8.932,8.832-10.414c0.133-0.16,0.368-0.182,0.528-0.048
		C121.043,46.129,121.064,46.366,120.932,46.525z M110.377,51.9c-0.071,0.113-0.193,0.176-0.317,0.176
		c-0.068,0-0.138-0.019-0.199-0.057c-0.176-0.11-0.229-0.342-0.118-0.517c0.034-0.056,3.499-5.584,4.232-7.051
		c0.092-0.186,0.318-0.26,0.503-0.168c0.185,0.093,0.26,0.318,0.167,0.503C113.896,46.285,110.521,51.672,110.377,51.9z
		 M105.143,29.215c-0.009-0.138-0.002-0.303,0.018-0.494s0.078-0.329,0.18-0.412c0.109-0.115,0.24-0.17,0.402-0.165
		c0.16,0.005,0.34,0.026,0.537,0.063l1.549,0.295c0.131,0.024,0.271,0.051,0.418,0.079c0.149,0.028,0.274,0.078,0.381,0.148
		c0.165,0.117,0.246,0.272,0.243,0.467c-0.004,0.195,0.018,0.398,0.062,0.611c0.028,0.21,0.077,0.406,0.143,0.589
		c0.068,0.183,0.145,0.357,0.23,0.527c0.063,0.114,0.138,0.222,0.219,0.322c0.083,0.102,0.169,0.193,0.254,0.278
		c0.317,0.298,0.726,0.571,1.223,0.818c0.107,0.055,0.215,0.092,0.322,0.112s0.224,0.06,0.349,0.117l0.122,0.023
		c0.125,0.058,0.303,0.108,0.532,0.152c0.23,0.043,0.412,0.062,0.55,0.053c0.053-0.006,0.136,0.001,0.252,0.022
		c0.084,0,0.174,0.004,0.266,0.013s0.182,0.005,0.271-0.013c0.583-0.042,1.064-0.154,1.439-0.338c0.376-0.185,0.683-0.55,0.924-1.1
		c0.055-0.108,0.083-0.239,0.088-0.392c0.002-0.151-0.005-0.271-0.022-0.36c-0.078-0.475-0.293-0.872-0.64-1.192
		c-0.043-0.043-0.124-0.108-0.242-0.2c-0.22-0.194-0.472-0.365-0.759-0.514c-0.284-0.147-0.567-0.299-0.843-0.453
		c-0.109-0.054-0.213-0.104-0.315-0.148c-0.104-0.045-0.217-0.097-0.34-0.154c-0.247-0.132-0.502-0.252-0.762-0.361
		c-0.259-0.109-0.504-0.228-0.734-0.357c-0.076-0.048-0.138-0.077-0.188-0.087c-0.048-0.009-0.103-0.035-0.162-0.081
		c-0.125-0.058-0.239-0.113-0.338-0.166c-0.103-0.054-0.215-0.108-0.339-0.166c-0.354-0.203-0.688-0.407-1.006-0.612
		s-0.606-0.426-0.87-0.663c-0.328-0.317-0.619-0.67-0.867-1.058c-0.25-0.387-0.425-0.811-0.523-1.272
		c-0.039-0.16-0.059-0.32-0.062-0.482c-0.004-0.162-0.013-0.338-0.026-0.528c-0.004-0.153,0.012-0.371,0.046-0.654
		c0.038-0.281,0.088-0.51,0.156-0.684c0.028-0.062,0.057-0.159,0.081-0.291c0.083-0.171,0.157-0.335,0.221-0.494
		c0.063-0.157,0.145-0.312,0.241-0.463c0.354-0.528,0.765-0.955,1.227-1.284s0.978-0.609,1.549-0.841
		c0.366-0.134,0.75-0.223,1.148-0.266s0.821-0.073,1.266-0.091c0.171-0.002,0.336,0.009,0.491,0.029
		c0.157,0.022,0.322,0.032,0.493,0.03c0.052-0.007,0.131,0.008,0.234,0.045c0.103,0.036,0.175,0.041,0.214,0.015
		c3.189,0.556,5.201,1.915,6.031,4.079c0.113,0.294,0.19,0.588,0.228,0.885c0.037,0.296,0.065,0.615,0.085,0.959
		c0.007,0.139-0.009,0.292-0.05,0.463c-0.042,0.171-0.104,0.29-0.185,0.359c-0.101,0.083-0.226,0.123-0.379,0.12
		c-0.15-0.004-0.319-0.023-0.499-0.057l-1.549-0.296c-0.148-0.027-0.296-0.055-0.444-0.083c-0.147-0.028-0.268-0.068-0.359-0.119
		c-0.182-0.12-0.28-0.274-0.296-0.465c-0.013-0.189-0.044-0.383-0.092-0.579c-0.035-0.176-0.092-0.365-0.173-0.567
		c-0.079-0.203-0.178-0.365-0.289-0.489c-0.2-0.207-0.395-0.389-0.585-0.544c-0.183-0.12-0.41-0.235-0.686-0.348
		c-0.276-0.112-0.565-0.205-0.865-0.279c-0.301-0.074-0.603-0.122-0.903-0.146c-0.302-0.022-0.576-0.007-0.825,0.048
		c-0.41,0.092-0.736,0.229-0.983,0.412c-0.248,0.183-0.454,0.488-0.621,0.915c-0.055,0.108-0.087,0.233-0.096,0.377
		c-0.012,0.143-0.007,0.258,0.009,0.346c0.065,0.369,0.206,0.646,0.416,0.831c0.213,0.185,0.469,0.374,0.771,0.567
		c0.166,0.116,0.339,0.214,0.519,0.29c0.183,0.077,0.364,0.167,0.55,0.271c0.414,0.231,0.846,0.445,1.291,0.641
		c0.448,0.195,0.889,0.402,1.322,0.621c0.077,0.049,0.156,0.081,0.239,0.097c0.081,0.015,0.16,0.047,0.236,0.096
		c0.307,0.178,0.627,0.349,0.96,0.514s0.624,0.365,0.869,0.599c0.388,0.363,0.719,0.715,0.986,1.054
		c0.265,0.341,0.494,0.758,0.689,1.254c0.057,0.147,0.099,0.309,0.125,0.483s0.057,0.351,0.092,0.526
		c0.007,0.053,0.007,0.1-0.002,0.141c-0.007,0.041-0.007,0.079,0.004,0.115c0.016,0.274-0.013,0.609-0.09,1.003
		c0.018,0.089,0.003,0.171-0.046,0.246l-0.085,0.443c-0.065,0.175-0.127,0.341-0.185,0.5c-0.055,0.159-0.122,0.316-0.203,0.471
		c-0.153,0.277-0.313,0.527-0.474,0.751c-0.162,0.225-0.348,0.437-0.554,0.635c-0.081,0.07-0.16,0.127-0.236,0.172
		c-0.077,0.045-0.147,0.104-0.213,0.176c-0.101,0.084-0.21,0.161-0.324,0.232c-0.116,0.071-0.238,0.137-0.37,0.197
		c-0.094,0.051-0.192,0.099-0.296,0.147c-0.103,0.049-0.21,0.097-0.319,0.144c-0.313,0.128-0.634,0.22-0.958,0.276
		c-0.326,0.058-0.663,0.112-1.014,0.165c-0.245,0.037-0.493,0.046-0.743,0.023c-0.251-0.022-0.506-0.032-0.76-0.029
		c-0.12,0.011-0.234,0.002-0.34-0.026c-0.104-0.029-0.21-0.036-0.315-0.021l-0.194-0.037c-0.035-0.007-0.079-0.019-0.134-0.038
		c-0.057-0.019-0.103-0.023-0.138-0.014c-0.086,0.001-0.229-0.017-0.423-0.055c-0.197-0.037-0.335-0.072-0.414-0.104l-0.246-0.047
		c-0.109-0.054-0.226-0.089-0.351-0.104s-0.234-0.049-0.324-0.101c-0.083-0.015-0.155-0.033-0.221-0.054
		c-0.063-0.021-0.136-0.047-0.215-0.079c-0.187-0.087-0.384-0.167-0.592-0.24c-0.206-0.073-0.395-0.16-0.561-0.26
		c-0.756-0.414-1.397-0.881-1.928-1.399c-0.53-0.517-0.938-1.143-1.225-1.877c-0.187-0.443-0.305-0.949-0.349-1.52
		c-0.013-0.105-0.015-0.207-0.006-0.307C105.153,29.447,105.153,29.336,105.143,29.215z M100.363,44.323
		c0.429-0.651,0.998-1.22,1.766-1.561c1.27-0.562,2.59-0.467,3.723,0.268c0.975,0.633,1.682,1.702,1.682,2.54
		c0,1.152,0.143,5.083,0.145,5.123c0.004,0.098-0.029,0.186-0.075,0.265c0.482,1.212,0.618,2.936,0.612,4.653l0.039-0.008
		c0,0,1.321,6.311,1.615,7.631c0.112,0.507,0.464,1.762,0.836,3.09c0.602,2.146,1.282,4.579,1.377,5.328
		c0.131,1.054,0.787,3.871,1.311,5.963c0.198,0.797,0.453,2.281,0.699,3.717c0.243,1.414,0.575,3.35,0.714,3.642
		c0.167,0.25,0.48,1.118,1.103,2.899c0.321,0.92,0.653,1.871,0.836,2.298c0.408,0.948,1.038,3.165,1.595,5.121l0.189,0.667
		c0.218,0.761,0.515,1.921,0.825,3.136c0.512,2.001,1.093,4.268,1.355,4.882c0.243,0.566,0.638,2.4,1.094,4.523
		c0.414,1.93,0.843,3.926,1.124,4.768c0.293,0.875,1.095,1.894,1.87,2.879c0.695,0.883,1.352,1.717,1.647,2.455
		c0.379,0.946,2.673,2.446,4.03,3.17c0.053,0.023,7.908,3.627,10.496,4.491c0.262,0.088,0.403,0.371,0.316,0.633
		c-0.07,0.21-0.266,0.342-0.475,0.342c-0.053,0-0.105-0.008-0.158-0.025c-2.639-0.882-10.299-4.396-10.624-4.545
		c-0.419-0.222-3.878-2.102-4.514-3.693c-0.243-0.604-0.856-1.384-1.505-2.208c-0.829-1.053-1.686-2.142-2.034-3.181
		c-0.298-0.896-0.732-2.918-1.152-4.874c-0.39-1.811-0.83-3.863-1.035-4.34c-0.294-0.686-0.858-2.894-1.405-5.028
		c-0.308-1.205-0.603-2.355-0.817-3.11l-0.19-0.668c-0.548-1.926-1.169-4.11-1.552-5c-0.196-0.459-0.52-1.384-0.861-2.362
		c-0.365-1.045-0.865-2.478-1.006-2.7c-0.192-0.288-0.363-1.159-0.852-4.001c-0.243-1.417-0.495-2.883-0.685-3.644
		c-0.126-0.505-0.588-2.369-0.938-3.987c-0.385,0.037-0.778,0.017-0.582-0.049c0.136-0.045,0.333-0.176,0.507-0.301
		c-0.131-0.624-0.238-1.187-0.297-1.596c-0.272,0.262-0.515,0.386-0.358,0.23c0.097-0.096,0.208-0.314,0.308-0.543
		c-0.148-0.835-0.791-3.133-1.318-5.018c-0.392-1.4-0.73-2.609-0.85-3.143c-0.103-0.462-0.332-1.537-0.585-2.737
		c0.218,2.267,0.597,5.506,0.97,6.906c0.601,2.254,2.214,10.324,2.364,11.829c0.059,0.577,0.052,1.279,0.045,2.023
		c-0.011,1.129-0.023,2.409,0.226,3.157c0.278,0.833,0.598,2.747,0.879,4.437c0.176,1.057,0.342,2.055,0.454,2.503
		c0.287,1.147,1.013,3.475,1.021,3.498c0.082,0.264-0.064,0.544-0.328,0.626c-0.05,0.016-0.101,0.023-0.149,0.023
		c-0.213,0-0.41-0.137-0.478-0.351c-0.03-0.096-0.742-2.378-1.036-3.553c-0.121-0.487-0.283-1.458-0.47-2.582
		c-0.262-1.571-0.588-3.526-0.842-4.284c-0.302-0.907-0.289-2.217-0.276-3.483c0.007-0.695,0.013-1.35-0.036-1.867
		c-0.705,0.749-1.488,1.028-1.636,0.977c0.072,0.246,0.143,0.483,0.218,0.737c0.665,2.255,1.293,4.385,1.638,5.189
		c0.867,2.021,1.184,5.255,1.335,6.81l0.024,0.241c0.041,0.408,0.082,1.008,0.129,1.697c0.12,1.75,0.283,4.147,0.591,5.271
		c0.458,1.683,0.315,3.476,0.309,3.552c-0.021,0.261-0.24,0.458-0.497,0.458c-0.015,0-0.028-0.001-0.042-0.002
		c-0.275-0.022-0.479-0.265-0.457-0.539c0.001-0.018,0.134-1.698-0.277-3.206c-0.333-1.219-0.494-3.573-0.624-5.465
		c-0.007-0.108-0.015-0.21-0.021-0.313c-0.339,0.292-0.767,0.616-1.027,0.702c-0.439,0.148-0.293-0.047,0.344-0.44
		c0.274-0.168,0.49-0.455,0.651-0.727c-0.025-0.346-0.049-0.652-0.072-0.888l-0.024-0.244c-0.016-0.163-0.034-0.353-0.055-0.551
		c-0.668,0.463-1.786,1.099-2.115,1.136c-0.441,0.049-0.195-0.196,0.782-0.587c0.529-0.212,0.981-0.62,1.29-0.954
		c-0.041-0.38-0.088-0.79-0.147-1.23c-0.767,0.886-1.595,1.518-2.073,1.596c-0.587,0.098-1.565,0.197-0.146-0.293
		c0.937-0.323,1.716-1.234,2.143-1.822c-0.058-0.387-0.122-0.78-0.197-1.173c-0.926,0.739-2.731,2.402-2.974,2.604
		c-0.294,0.246-0.979,0.636-0.638,0.245c0.344-0.391,1.275-1.273,1.812-1.909c0.387-0.457,1.243-1.083,1.703-1.404
		c-0.085-0.392-0.18-0.771-0.286-1.135c-0.132,0.144-0.281,0.316-0.438,0.531c-0.392,0.538-1.859,2.007-2.105,2.104
		c-0.242,0.099-0.341-0.196,0.442-0.685c0.602-0.375,1.545-1.785,1.952-2.421c-0.066-0.194-0.133-0.389-0.208-0.564
		c-0.368-0.859-0.976-2.917-1.678-5.3c-0.166-0.562-0.339-1.148-0.514-1.738c-0.483,0.167-1.251,0.414-1.756,0.476
		c-0.785,0.098-0.294-0.196,0.782-0.538c0.394-0.125,0.66-0.256,0.843-0.372c-0.161-0.539-0.323-1.076-0.483-1.594
		c-0.277,0.139-0.631,0.315-0.798,0.398c-0.296,0.147-0.687,0.44-0.1-0.244c0.258-0.3,0.521-0.512,0.739-0.659
		c-0.505-1.607-0.976-2.965-1.297-3.546c-0.498-0.112-0.963-0.43-1.354-0.957c-1.002-1.348-1.459-3.885-1.169-5.087
		c0.213-0.877,0.764-1.384,1.265-1.675c-0.514-0.139-1.32-0.211-2.197-0.008c-1.058,0.245-2.344,0.92-2.485,2.74
		c0.216,1.842,0.218,3.689,0.218,5.643c0,1.937,0,3.94,0.218,6.044c0.014,0.134,0.024,0.268,0.036,0.4
		c0.509,0.222,1.515,0.625,2.356,0.729c1.174,0.147,0,0.489-1.321,0.049c-0.42-0.141-0.757-0.245-1-0.318
		c0.077,1.134,0.08,2.079,0.08,2.128c0,0.276-0.224,0.5-0.5,0.5s-0.5-0.224-0.5-0.5c0-0.013-0.003-1.192-0.108-2.469
		c-0.75-0.025-1.978-0.06-2.379-0.026c-0.588,0.049-1.715,0-1.272-0.148c0.441-0.146,2.058-0.293,2.594-0.293
		c0.284,0,0.688-0.055,1.008-0.106c-0.208-2.096-0.211-4.076-0.211-5.99c0-1.949,0-3.789-0.217-5.596
		c-0.203-1.698-1.169-2.533-1.944-2.936c-0.73-0.379-1.531-0.496-2.148-0.436c0.1,0.092,0.193,0.193,0.266,0.309
		c0.354,0.565,0.568,5.127-0.888,7.051c-0.09,0.149-0.23,0.258-0.401,0.309c-0.079,0.024-0.16,0.034-0.24,0.034
		c-0.073,0-0.146-0.01-0.217-0.024c-0.024,0.091-0.05,0.17-0.078,0.235c-0.141,0.328-0.414,1.831-0.716,3.544
		c0.278,0.239,0.646,0.581,0.894,0.911c0.348,0.465-0.468-0.172-0.969-0.482c-0.015,0.082-0.028,0.162-0.043,0.244
		c-0.106,0.608-0.22,1.25-0.336,1.897c0.181,0.241,0.427,0.534,0.66,0.69c0.441,0.294-0.048,0.196-0.539,0
		c-0.086-0.035-0.155-0.071-0.226-0.106c-0.459,2.525-0.976,5.13-1.501,6.771c-0.048,0.15-0.082,0.289-0.124,0.434
		c0.162,0.272,0.347,0.587,0.48,0.834c0.294,0.538,1.224,1.37,1.565,1.86c0.344,0.49,0.832,1.273,0.59,1.126
		c-0.246-0.148-1.079-1.273-1.617-1.713c-0.349-0.286-0.837-1.121-1.141-1.678c-0.087,0.341-0.157,0.667-0.213,0.978
		c0.204,0.441,0.51,1.008,0.865,1.335c0.635,0.588,1.418,1.126,1.859,1.568c0.441,0.44-0.391,0.049-1.225-0.54
		c-0.587-0.414-1.169-1.264-1.567-1.919c-0.12,0.849-0.142,1.578-0.121,2.18c0.19,0.319,0.43,0.652,0.661,0.768
		c0.49,0.245,1.713,0.979,0.98,0.783c-0.52-0.138-1.156-0.357-1.608-0.918c0.01,0.138,0.021,0.271,0.03,0.391
		c0.032,0.387,0.046,0.672,0.021,0.916c0.096,0.091,0.205,0.179,0.333,0.249c0.371,0.203-0.026,0.194-0.389,0.106
		c-0.05,0.212-0.126,0.505-0.22,0.86c0.127,0.215,0.273,0.432,0.413,0.552c0.287,0.246-0.116,0.146-0.542-0.065
		c-0.005,0.02-0.01,0.036-0.015,0.056c-0.344,1.292-0.815,3.062-0.906,3.792c-0.15,1.2-1.008,4.208-1.045,4.335
		c-0.062,0.22-0.263,0.362-0.48,0.362c-0.045,0-0.092-0.006-0.138-0.02c-0.266-0.075-0.419-0.353-0.343-0.618
		c0.009-0.03,0.873-3.061,1.014-4.184c0.1-0.797,0.562-2.531,0.933-3.925c0.188-0.707,0.345-1.294,0.396-1.546
		c0.026-0.131,0-0.45-0.028-0.788c-0.096-1.163-0.256-3.11,0.628-5.875c0.682-2.128,1.362-6.005,1.909-9.12
		c0.444-2.529,0.705-3.982,0.899-4.436c0.158-0.371,0.278-2.043,0.375-3.386c0.256-3.55,0.399-4.552,0.923-4.835
		c0.81-0.436,2.37-0.49,3.79,0.247c0.842,0.437,1.491,1.091,1.921,1.902c0-0.354,0.002-1.607,0.015-3.088
		c-0.735,0.021-1.296-0.39-0.785-0.432c0.261-0.022,0.548-0.034,0.79-0.04c0.019-1.892,0.056-4.012,0.13-5.042
		c0.085-2.533,0.429-4.504,1.029-5.965c0-0.007-0.004-0.014-0.004-0.021c0-2.059-0.318-3.019-2.292-3.636
		c-1.416-0.442-2.383,0.105-2.73,0.362c-0.132,0.097-0.23,0.191-0.312,0.281c0.317,0.172,0.701,0.431,1.025,0.81
		c0.514,0.6,0.493,2.115,0.179,3.233c-0.316,1.124-0.919,1.892-1.692,2.225c-0.115,1.902-0.285,3.804-0.531,4.912
		c-0.612,2.759-2.651,11.195-3.831,14.737c-0.082,0.246-0.151,0.493-0.221,0.739c0.329,0.341,0.788,0.833,0.626,0.768
		c-0.148-0.06-0.492-0.226-0.742-0.348c-0.132,0.515-0.237,1.024-0.324,1.524c0.221,0.209,0.495,0.459,0.675,0.588
		c0.22,0.157-0.321-0.047-0.74-0.214c-0.088,0.563-0.147,1.101-0.195,1.622c0.177,0.108,0.281,0.237-0.028,0.307
		c-0.068,0.823-0.104,1.582-0.13,2.217c-0.022,0.531-0.041,0.988-0.074,1.351c-0.145,1.619-1.28,7.856-1.328,8.122
		c-0.044,0.241-0.255,0.41-0.491,0.41c-0.03,0-0.061-0.002-0.091-0.008c-0.271-0.049-0.451-0.31-0.402-0.582
		c0.012-0.064,1.176-6.458,1.316-8.032c0.032-0.351,0.05-0.791,0.07-1.301c0.076-1.857,0.19-4.663,1.131-7.479
		c1.151-3.457,3.214-11.981,3.804-14.637c0.364-1.639,0.558-5.106,0.65-7.631c-0.234,0.935-0.488,2.029-0.738,3.108
		c-0.549,2.374-1.067,4.615-1.459,5.558c-0.332,0.796-0.625,2.501-0.907,4.15c-0.329,1.92-0.67,3.905-1.146,5.097
		c-0.04,0.099-0.075,0.207-0.112,0.311c0.322,0.469,0.71,1.078,0.431,0.923c-0.209-0.116-0.427-0.276-0.601-0.413
		c-0.226,0.741-0.408,1.567-0.563,2.415c0.195,0.169,0.38,0.37,0.186,0.397c-0.086,0.012-0.176,0.021-0.261,0.028
		c-0.104,0.601-0.199,1.204-0.289,1.783c-0.127,0.815-0.247,1.587-0.38,2.252c-0.205,1.024-0.476,2.994-0.737,4.897
		c-0.359,2.614-0.589,4.235-0.748,4.711c-0.315,0.944-1.079,2.459-1.656,3.467c-0.577,1.012-1.435,3.472-1.709,4.573
		c-0.146,0.582-0.625,1.624-1.179,2.831c-0.646,1.406-1.378,3.001-1.767,4.247c-0.265,0.846-0.7,2.395-1.17,4.064
		c-1.085,3.857-1.817,6.423-2.111,6.911c-0.236,0.396-0.83,1.046-1.518,1.798c-0.675,0.738-1.438,1.575-1.8,2.117
		c-0.644,0.968-6.715,3.989-8.561,4.893c-0.07,0.034-0.146,0.051-0.22,0.051c-0.185,0-0.362-0.103-0.449-0.28
		c-0.121-0.248-0.019-0.548,0.229-0.669c3.719-1.82,7.791-4.02,8.168-4.55c0.403-0.604,1.161-1.434,1.894-2.235
		c0.596-0.653,1.213-1.328,1.398-1.638c0.248-0.416,1.306-4.179,2.007-6.669c0.473-1.681,0.911-3.24,1.177-4.091
		c0.408-1.308,1.154-2.933,1.812-4.367c0.512-1.113,0.994-2.164,1.117-2.656c0.295-1.181,1.185-3.728,1.812-4.827
		c0.57-0.998,1.295-2.447,1.575-3.288c0.142-0.422,0.441-2.604,0.706-4.53c0.264-1.919,0.537-3.903,0.748-4.958
		c0.131-0.653,0.248-1.41,0.372-2.209c0.296-1.906,0.631-4.066,1.271-5.662c0.437-1.093,0.768-3.026,1.089-4.895
		c0.306-1.782,0.594-3.465,0.969-4.365c0.36-0.865,0.894-3.169,1.409-5.398c0.503-2.174,0.979-4.231,1.346-5.229
		c0.015-0.544,0.096-3.602,0.096-5.188c0-0.78,0.805-1.919,2.105-2.4C96.447,42.386,98.266,42.172,100.363,44.323z M138.168,139.172
		c-0.172-0.115-0.219-0.349-0.104-0.521c0.116-0.173,0.352-0.216,0.521-0.104c1.465,0.978,6.914,3.772,6.969,3.801
		c0.185,0.095,0.257,0.32,0.163,0.505c-0.066,0.13-0.198,0.204-0.334,0.204c-0.058,0-0.116-0.014-0.171-0.041
		C144.985,142.899,139.669,140.172,138.168,139.172z M138.441,148.091c-0.073,0.078-0.174,0.118-0.273,0.118
		c-0.092,0-0.184-0.033-0.257-0.102c-0.026-0.024-2.658-2.484-4.271-3.452c-0.177-0.106-0.234-0.337-0.128-0.515
		c0.107-0.179,0.339-0.233,0.515-0.128c1.681,1.009,4.287,3.444,4.397,3.548C138.575,147.702,138.583,147.939,138.441,148.091z
		 M124.877,130.095c-1.689,3.527-3.379,5.288-2.276,3.673c1.103-1.616,3.524-7.491,3.524-7.491
		C126.86,124.367,126.567,126.57,124.877,130.095z M119.883,119.373c-0.661-0.807-0.807-3.966-0.807-5.358
		c0-1.396-0.883-5.068-1.176-6.022c-0.294-0.957-0.733-3.306-1.029-4.407c-0.293-1.103-0.513-3.305-0.513-3.305
		c0.148-0.955,1.615,6.755,2.131,8.519c0.514,1.763,1.174,6.17,1.174,7.197C119.663,117.022,120.544,120.183,119.883,119.373z
		 M115.478,92.422c-0.147,0.368-0.516-1.322-1.028-2.204c-0.516-0.881-0.735-4.039-0.735-4.039c0.148-0.88,0.81,3.084,1.177,4.113
		C115.257,91.321,115.624,92.055,115.478,92.422z M109.872,96.633c-1.027,0.538-2.205,0.245-1.321,0.196
		c0.881-0.048,1.957-0.979,1.957-0.979C111.34,95.458,110.557,96.291,109.872,96.633z M105.172,111.907
		c-1.127-0.489-1.812-0.686-1.663-0.881c0,0,1.174,0.392,1.517,0.539c0.342,0.146,1.322,0.637,1.859,0.88
		C107.424,112.691,106.298,112.398,105.172,111.907z M102.187,102.755c1.225,0.881,0.391,0.782-1.079-0.393
		c-0.427-0.342-0.685-0.589-0.852-0.778c-0.097,2.052,0.135,4.932-0.42,4.791c-0.059-1.151-0.161-4.505-0.168-6.259
		c-0.538,0.488-2.312,2.073-2.77,2.197c-0.54,0.147-0.489-0.049-0.147-0.244c0.343-0.196,1.321-0.979,1.813-1.519
		c0.488-0.537,1.123-1.446,1.123-1.446c0.046-0.455-0.077-3.186-0.143-5.446c-1.27,0.413-3.024-0.112-1.863-0.208
		c0.867-0.073,1.545-0.438,1.841-0.625c-0.022-1.024-0.025-1.855,0.02-2.166c0.146-1.028,0.146-5.949,0.438-5.875
		c0,0,0.442,5.434,0.442,6.315c0,0.223,0,0.849-0.002,1.692c0.231,0.132,1.653,0.94,2.599,1.345
		c0.392,0.197-1.447-0.289-2.057-0.392c-0.272-0.046-0.438-0.135-0.545-0.242c-0.008,2.067-0.031,4.938-0.093,6.7
		C100.606,100.814,101.274,102.098,102.187,102.755z M97.044,113.768c0.785-0.242,1.861-0.833,1.861-0.833
		c0.048,0.489-0.735,0.884-0.931,0.981c-0.195,0.099-1.321,0.635-2.007,0.537C95.282,114.357,96.261,114.015,97.044,113.768z
		 M91.464,107.647c-0.244-0.048,0.734-0.439,1.371-0.685c0.637-0.244,2.252-0.733,3.23-1.077c0.979-0.343,1.594-0.586,1.616-0.44
		c0.048,0.343-1.028,0.784-1.421,0.931C95.87,106.523,91.708,107.698,91.464,107.647z M81.034,115.629
		c0.49,0.979-0.832-0.245-0.93-1.321c-0.099-1.076,0.392-3.134,0.93-3.868c0,0-0.293,0.734-0.341,1.567
		C80.644,112.837,80.545,114.648,81.034,115.629z M78.881,110.635c-0.638,1.47-1.518,2.644-1.42,2.304
		c0.099-0.345,2.007-5.24,2.204-5.681c0.195-0.44,1.468-4.015,1.762-4.946c0.294-0.929,0.979-3.916,0.979-3.916
		c0.343,0.832-0.096,2.056-0.342,3.525C81.818,103.39,79.517,109.167,78.881,110.635z M40.786,102.449
		c1.933-10.178,11.211-15.215,17.908-14.177c0.86,0.234,1.89,1.024,2.251,2.232c0.265,0.886,0.254,2.314-1.3,4.084l-0.076,0.07
		c-0.505,0.379-1.348,0.369-2.447,0.345c-0.264-0.005-0.539-0.011-0.823-0.011c-0.668,0-1.541,0.028-2.367,0.249
		c-2.108,0.569-5.909,3.007-6.773,8.528c-0.749,4.775,3.627,10.351,8.836,11.256c5.198,0.89,6.229,0.971,6.271,0.974l0.543,0.04
		l-1.77,11.132l-13.792-1.985l0.972-6.217C46.688,117.827,39.055,111.612,40.786,102.449z M38.157,89.07
		c-0.203-0.038-0.338-0.234-0.299-0.438c0.037-0.203,0.229-0.338,0.438-0.299c3.491,0.655,3.869,0.699,4.348,0.756
		c0.312,0.037,0.662,0.078,1.92,0.292c0.204,0.035,0.341,0.229,0.307,0.433c-0.031,0.183-0.19,0.312-0.37,0.312
		c-0.021,0-0.042-0.001-0.063-0.005c-1.232-0.21-1.575-0.251-1.881-0.287C42.062,89.775,41.674,89.729,38.157,89.07z
		 M39.684,100.977c-0.014,0.198-0.179,0.349-0.374,0.349c-0.008,0-0.017,0-0.025-0.001l-4.144-0.284
		c-0.207-0.014-0.363-0.193-0.349-0.4c0.014-0.205,0.171-0.361,0.399-0.348l4.144,0.284
		C39.542,100.591,39.698,100.77,39.684,100.977z M83.978,67.616c0.185,0.093,0.26,0.318,0.167,0.503
		c-0.065,0.132-0.197,0.208-0.335,0.208c-0.057,0-0.114-0.013-0.168-0.04c-2.993-1.497-19.837-13.761-20.553-14.282
		c-0.168-0.122-0.204-0.356-0.082-0.524c0.122-0.168,0.358-0.204,0.523-0.083C63.705,53.525,81.039,66.147,83.978,67.616z
		 M71.276,49.955c0.137-0.155,0.373-0.172,0.529-0.037C71.9,50,81.351,58.205,85.548,61.662c0.16,0.132,0.183,0.368,0.051,0.528
		c-0.074,0.09-0.181,0.137-0.289,0.137c-0.084,0-0.169-0.028-0.238-0.085c-4.205-3.463-13.662-11.674-13.758-11.756
		C71.157,50.349,71.141,50.112,71.276,49.955z M83.222,72.863c0.187,0.089,0.266,0.313,0.176,0.5
		c-0.064,0.135-0.198,0.213-0.338,0.213c-0.055,0-0.109-0.012-0.162-0.037c-5.698-2.726-25.083-14.15-25.278-14.265
		c-0.179-0.105-0.237-0.335-0.133-0.514c0.105-0.18,0.337-0.236,0.514-0.133C58.195,58.743,77.552,70.151,83.222,72.863z
		 M70.199,96.303c-1.969-0.434-4.201-0.926-6.931-1.229c-0.206-0.022-0.354-0.208-0.332-0.414c0.023-0.205,0.213-0.36,0.414-0.331
		c2.77,0.307,5.121,0.825,7.01,1.242c1.914,0.422,3.426,0.755,4.699,0.755c0.207,0,0.375,0.168,0.375,0.375
		s-0.168,0.375-0.375,0.375C73.705,97.076,72.158,96.735,70.199,96.303z M73.433,101.985c-0.018,0.194-0.181,0.341-0.373,0.341
		c-0.011,0-0.022-0.001-0.034-0.002c-2.698-0.246-22.632-0.015-22.833-0.012c-0.002,0-0.004,0-0.004,0
		c-0.206,0-0.374-0.165-0.376-0.37c-0.002-0.208,0.163-0.377,0.37-0.38c0.823-0.01,20.174-0.234,22.911,0.016
		C73.3,101.597,73.452,101.779,73.433,101.985z M70.911,90.209c-2.002-0.624-4.669-1.455-8.401-2.665
		c-0.197-0.064-0.306-0.275-0.241-0.473c0.063-0.197,0.275-0.305,0.472-0.241c3.73,1.209,6.394,2.04,8.395,2.663
		c3.233,1.008,4.71,1.468,6.173,2.118c0.189,0.084,0.274,0.306,0.19,0.495c-0.062,0.14-0.199,0.223-0.343,0.223
		c-0.051,0-0.103-0.01-0.152-0.032C75.58,91.664,74.117,91.208,70.911,90.209z M59.426,86.982l-0.111,0.507l-0.502-0.13
		c-1.616-0.419-3.188-0.379-5.19,0.126l-0.604,0.152L53,87.014c-0.104-3.635,1.074-10.339,10.14-14.389
		c0.561-0.25,1.268-0.131,1.884,0.025c0.298,0.077,0.579,0.149,0.82,0.149c0.074,0,0.14-0.007,0.2-0.021
		c1.24-0.28,2.489-0.422,3.717-0.422c5.758,0,9.319,3.039,9.469,3.168l0.539,0.469l-3.964,2.194l-0.216-0.082
		C75.533,78.087,62.449,73.182,59.426,86.982z M65.616,82.163c-0.193-0.074-0.29-0.291-0.217-0.484s0.29-0.29,0.484-0.217
		c0.096,0.037,9.612,3.661,13.818,5.393c0.191,0.079,0.283,0.298,0.204,0.489c-0.06,0.145-0.199,0.232-0.347,0.232
		c-0.048,0-0.096-0.009-0.143-0.028C75.22,85.82,65.712,82.199,65.616,82.163z M77.115,80.35c-0.193-0.075-0.29-0.292-0.215-0.485
		c0.074-0.194,0.294-0.29,0.484-0.215l5.06,1.951c0.193,0.075,0.29,0.292,0.215,0.485c-0.058,0.149-0.199,0.24-0.35,0.24
		c-0.045,0-0.091-0.008-0.135-0.025L77.115,80.35z M60.158,70.839c0.2,0.055,0.317,0.261,0.263,0.46
		c-0.045,0.167-0.196,0.276-0.361,0.276c-0.032,0-0.065-0.004-0.099-0.013c-2.783-0.759-8.863-5.122-9.12-5.308
		c-0.168-0.121-0.207-0.355-0.086-0.523c0.122-0.167,0.356-0.205,0.523-0.085C51.341,65.691,57.505,70.116,60.158,70.839z
		 M53.428,77.095c0.197,0.066,0.303,0.278,0.237,0.475c-0.052,0.157-0.198,0.256-0.355,0.256c-0.039,0-0.079-0.006-0.118-0.019
		c-2.251-0.75-7.496-3.409-7.719-3.521c-0.185-0.094-0.258-0.319-0.164-0.504c0.093-0.185,0.319-0.257,0.504-0.165
		C45.866,73.644,51.23,76.363,53.428,77.095z M48.286,82.831c0.8,0.307,1.432,0.549,2.354,0.754c0.202,0.045,0.33,0.246,0.285,0.448
		c-0.039,0.175-0.194,0.293-0.366,0.293c-0.026,0-0.054-0.003-0.081-0.009c-0.978-0.217-1.632-0.468-2.461-0.787
		c-1.433-0.549-3.395-1.302-8.541-2.464c-0.201-0.045-0.328-0.246-0.283-0.448c0.046-0.202,0.241-0.331,0.449-0.283
		C44.841,81.509,46.832,82.273,48.286,82.831z M52.078,109.576c-0.007,0-0.013,0-0.019,0c-0.199,0-0.364-0.156-0.375-0.356
		c-0.01-0.207,0.149-0.383,0.356-0.394c0.143-0.007,14.322-0.706,19.256-1.199c0.215-0.018,0.39,0.131,0.41,0.336
		c0.021,0.206-0.13,0.39-0.336,0.41C66.419,108.868,52.221,109.568,52.078,109.576z M71.373,113.294
		c0.022,0.205-0.127,0.391-0.333,0.413c-4.689,0.509-5.475,0.926-5.506,0.943c-0.065,0.049-0.139,0.071-0.212,0.071
		c-0.114,0-0.226-0.055-0.301-0.156c-0.124-0.166-0.077-0.409,0.089-0.532c0.333-0.248,2.045-0.659,5.85-1.072
		C71.178,112.945,71.351,113.089,71.373,113.294z M84.484,45.138c-0.104-0.18-0.041-0.409,0.139-0.512
		c0.179-0.102,0.408-0.041,0.512,0.14c0.028,0.049,2.826,4.925,5.209,7.691c0.135,0.157,0.117,0.394-0.039,0.529
		c-0.071,0.061-0.158,0.091-0.245,0.091c-0.105,0-0.21-0.044-0.284-0.13C87.346,50.125,84.6,45.34,84.484,45.138z M81.688,24.186
		c0.01-0.178,0.036-0.362,0.079-0.554c0.053-0.241,0.102-0.48,0.147-0.714s0.104-0.463,0.175-0.691
		c0.07-0.245,0.156-0.488,0.26-0.729c0.103-0.241,0.207-0.469,0.313-0.685c0.406-0.761,0.892-1.427,1.458-1.996
		c0.566-0.571,1.273-1.08,2.125-1.527c0.172-0.107,0.361-0.195,0.571-0.265s0.421-0.144,0.628-0.221
		c0.08-0.044,0.164-0.072,0.254-0.084c0.092-0.012,0.176-0.039,0.255-0.083c0.11-0.049,0.222-0.071,0.332-0.068
		c0.11,0.002,0.221-0.021,0.332-0.069c0.031-0.021,0.076-0.026,0.138-0.018c0.061,0.01,0.105,0.003,0.137-0.018
		c1.667-0.251,3.105-0.135,4.313,0.347c1.208,0.483,2.191,1.181,2.95,2.092c0.385,0.488,0.721,1.067,1.01,1.737
		c0.049,0.111,0.092,0.253,0.131,0.425s0.022,0.306-0.049,0.398c-0.068,0.126-0.175,0.208-0.322,0.244
		c-0.146,0.036-0.311,0.065-0.494,0.09l-1.613,0.21c-0.182,0.023-0.353,0.042-0.511,0.054c-0.159,0.013-0.293-0.017-0.403-0.086
		c-0.162-0.08-0.284-0.208-0.365-0.382c-0.082-0.175-0.176-0.34-0.279-0.495c-0.18-0.212-0.365-0.41-0.559-0.597
		c-0.192-0.185-0.414-0.345-0.668-0.48c-0.343-0.174-0.746-0.299-1.211-0.373c-0.088-0.022-0.181-0.031-0.281-0.027
		c-0.1,0.006-0.193,0.005-0.279-0.001c-0.051-0.01-0.127-0.009-0.225,0.005c-0.203-0.008-0.452,0.021-0.748,0.084
		c-0.294,0.064-0.523,0.123-0.684,0.178c-0.112,0.049-0.217,0.088-0.313,0.117c-0.098,0.029-0.192,0.075-0.285,0.139
		c-0.407,0.237-0.764,0.503-1.07,0.796c-0.308,0.293-0.561,0.646-0.759,1.059c-0.191,0.345-0.33,0.709-0.414,1.089
		c-0.086,0.383-0.158,0.788-0.221,1.217c-0.026,0.188-0.035,0.376-0.027,0.559c0.006,0.186,0.005,0.37-0.004,0.557l0.042,0.323
		c-0.021,0.104-0.019,0.213,0.005,0.328c0.023,0.114,0.043,0.229,0.057,0.345c0.038,0.283,0.082,0.563,0.137,0.843
		c0.053,0.279,0.128,0.538,0.227,0.778c0.025,0.063,0.041,0.12,0.049,0.17c0.006,0.051,0.021,0.107,0.047,0.171
		c0.342,0.814,0.75,1.49,1.223,2.025c0.475,0.537,1.105,0.923,1.895,1.155c0.158,0.048,0.318,0.085,0.482,0.114
		c0.163,0.029,0.339,0.057,0.529,0.083c0.1,0.003,0.195-0.005,0.285-0.025c0.09-0.02,0.18-0.019,0.268,0.004
		c0.104,0.021,0.229,0.021,0.379,0.001c0.148-0.02,0.279-0.053,0.391-0.102c0.08-0.027,0.154-0.041,0.223-0.042
		c0.066,0,0.133-0.013,0.197-0.038c0.08-0.027,0.15-0.04,0.208-0.04c0.06,0.001,0.118-0.02,0.182-0.061
		c0.223-0.097,0.431-0.187,0.622-0.271c0.19-0.084,0.37-0.188,0.541-0.312c0.38-0.302,0.676-0.631,0.881-0.985
		c0.207-0.355,0.369-0.785,0.488-1.29c0.043-0.19,0.061-0.412,0.053-0.664c-0.008-0.251-0.109-0.414-0.303-0.489
		c-0.109-0.054-0.24-0.07-0.398-0.05s-0.311,0.041-0.459,0.06l-1.268,0.166c-0.1,0.013-0.207,0.031-0.32,0.055
		c-0.115,0.022-0.225,0.024-0.328,0.005l-0.225,0.028c-0.067-0.007-0.135-0.011-0.203-0.012c-0.067,0.001-0.128-0.012-0.182-0.039
		c-0.092-0.055-0.162-0.147-0.214-0.275c-0.05-0.128-0.089-0.271-0.118-0.427c-0.028-0.156-0.051-0.321-0.064-0.496
		c-0.014-0.176-0.031-0.338-0.051-0.486c-0.018-0.133-0.029-0.258-0.037-0.374c-0.006-0.117,0.002-0.22,0.024-0.307
		c0.046-0.157,0.124-0.269,0.235-0.333c0.094-0.046,0.175-0.074,0.24-0.082l0.274-0.036c0.046-0.022,0.108-0.04,0.183-0.05
		c0.074-0.009,0.145-0.019,0.211-0.027l0.72-0.094l3.627-0.472c0.282-0.037,0.601-0.079,0.958-0.125
		c0.354-0.047,0.6-0.003,0.735,0.131c0.1,0.122,0.164,0.291,0.192,0.505c0.027,0.216,0.055,0.423,0.08,0.622l0.338,2.583
		l0.531,4.073c0.04,0.315,0.075,0.618,0.105,0.908c0.029,0.291-0.058,0.492-0.264,0.603c-0.092,0.062-0.209,0.104-0.35,0.122
		s-0.277,0.036-0.41,0.054c-0.331,0.043-0.619,0.067-0.862,0.074s-0.429-0.1-0.559-0.319c-0.087-0.14-0.156-0.299-0.214-0.478
		c-0.058-0.177-0.135-0.327-0.236-0.448c-0.037-0.029-0.083-0.061-0.138-0.096s-0.122-0.039-0.204-0.012
		c-0.129,0.051-0.231,0.131-0.31,0.242s-0.161,0.215-0.251,0.311c-0.148,0.154-0.289,0.295-0.424,0.422
		c-0.136,0.127-0.287,0.261-0.453,0.4c-0.197,0.16-0.411,0.298-0.641,0.411c-0.229,0.114-0.463,0.229-0.701,0.344
		c-0.078,0.044-0.163,0.076-0.252,0.097c-0.091,0.02-0.176,0.043-0.257,0.071c-0.128,0.051-0.267,0.085-0.415,0.104
		c-0.15,0.02-0.296,0.056-0.439,0.108c-0.064,0.024-0.159,0.041-0.285,0.05c-0.125,0.007-0.214,0.006-0.266-0.003l-0.248,0.031
		c-0.086-0.006-0.166-0.004-0.24,0.007c-0.074,0.01-0.154,0.011-0.239,0.006l-0.198,0.025c-0.137-0.016-0.273-0.023-0.408-0.022
		c-0.135,0-0.27-0.007-0.405-0.023c-0.12-0.018-0.241-0.031-0.36-0.041c-0.118-0.01-0.238-0.023-0.359-0.042
		c-0.516-0.084-0.977-0.201-1.385-0.35c-1.043-0.386-1.918-0.891-2.621-1.516c-0.704-0.623-1.34-1.429-1.906-2.416
		c-0.13-0.219-0.234-0.441-0.314-0.666c-0.08-0.226-0.176-0.449-0.289-0.67c-0.027-0.081-0.045-0.15-0.053-0.208
		c-0.006-0.059-0.033-0.126-0.076-0.205c-0.049-0.111-0.082-0.229-0.098-0.354s-0.049-0.25-0.1-0.379
		c-0.044-0.078-0.065-0.147-0.064-0.206c0-0.059-0.012-0.129-0.04-0.209l-0.06-0.447c-0.043-0.079-0.076-0.205-0.099-0.379
		c-0.023-0.174-0.022-0.304-0.001-0.392l-0.035-0.272c0.004-0.102-0.006-0.205-0.027-0.312c-0.023-0.106-0.023-0.203,0-0.291
		c0.013-0.153,0.01-0.305-0.009-0.453c-0.02-0.148-0.022-0.292-0.006-0.429C81.66,24.548,81.678,24.365,81.688,24.186z
		 M78.231,46.168c0.156-0.137,0.395-0.118,0.529,0.039c0.073,0.085,7.347,8.512,9.314,10.479c0.146,0.146,0.146,0.384,0,0.53
		c-0.073,0.073-0.17,0.11-0.266,0.11s-0.192-0.037-0.266-0.11c-1.986-1.987-9.052-10.172-9.352-10.52
		C78.058,46.54,78.075,46.303,78.231,46.168z M56.771,27.892c0.029-0.014,0.062-0.034,0.096-0.061
		c0.033-0.025,0.066-0.046,0.096-0.061l1.822-0.895c0.164-0.08,0.323-0.164,0.477-0.249c0.154-0.084,0.307-0.126,0.455-0.125
		c0.179-0.014,0.34,0.02,0.48,0.099c0.143,0.079,0.279,0.161,0.412,0.243l1.44,0.885c0.942,0.597,1.89,1.188,2.837,1.773
		c0.947,0.586,1.895,1.177,2.838,1.774c0.455,0.279,0.906,0.564,1.355,0.854c0.451,0.291,0.906,0.565,1.367,0.822
		c0.104,0.062,0.203,0.123,0.301,0.188c0.096,0.064,0.209,0.112,0.335,0.142c0.044,0.017,0.097,0.027,0.157,0.035
		c0.06,0.008,0.104-0.014,0.135-0.066c0.09-0.081,0.11-0.174,0.059-0.279c-0.052-0.104-0.092-0.224-0.121-0.359
		c-0.037-0.111-0.091-0.23-0.16-0.354c-0.07-0.124-0.135-0.244-0.193-0.365l-0.696-1.416l-2.56-5.217l-0.42-0.854
		c-0.037-0.075-0.078-0.147-0.121-0.22c-0.046-0.07-0.074-0.14-0.089-0.208l-0.122-0.247c-0.104-0.21-0.139-0.396-0.107-0.561
		c0.023-0.142,0.094-0.251,0.215-0.329c0.12-0.077,0.263-0.157,0.428-0.238l1.371-0.673c0.119-0.059,0.24-0.118,0.359-0.177
		c0.121-0.059,0.232-0.096,0.337-0.109c0.231-0.021,0.401,0.059,0.509,0.239c0.107,0.18,0.223,0.396,0.348,0.651l1.215,2.474
		l4.625,9.422l0.928,1.888c0.082,0.166,0.165,0.329,0.254,0.49s0.125,0.302,0.109,0.42c-0.017,0.119-0.061,0.211-0.131,0.274
		c-0.072,0.062-0.158,0.139-0.264,0.228l-0.787,0.387l-1.237,0.606c-0.136,0.067-0.268,0.131-0.393,0.193
		c-0.128,0.063-0.247,0.093-0.36,0.093c-0.202,0.007-0.379-0.032-0.531-0.116c-0.152-0.083-0.311-0.178-0.475-0.283
		c-0.237-0.144-0.475-0.293-0.707-0.447c-0.234-0.154-0.471-0.304-0.709-0.447l-6.021-3.74c-0.381-0.242-0.75-0.475-1.109-0.698
		c-0.361-0.222-0.731-0.454-1.111-0.696c-0.125-0.068-0.277-0.156-0.451-0.267c-0.175-0.109-0.345-0.124-0.51-0.043
		c-0.068,0.164-0.072,0.315-0.013,0.453c0.057,0.139,0.138,0.313,0.24,0.522l0.774,1.575l2.639,5.373l0.431,0.877
		c0.036,0.075,0.077,0.148,0.122,0.22c0.043,0.071,0.07,0.151,0.076,0.241l0.121,0.247c0.118,0.24,0.165,0.432,0.143,0.572
		c-0.031,0.127-0.107,0.229-0.227,0.307c-0.121,0.078-0.264,0.157-0.428,0.238l-1.372,0.673c-0.12,0.06-0.24,0.119-0.36,0.177
		c-0.119,0.06-0.23,0.097-0.336,0.11c-0.232,0.021-0.406-0.061-0.525-0.245c-0.119-0.184-0.24-0.403-0.365-0.658l-1.269-2.586
		l-4.429-9.016l-1.025-2.092c-0.082-0.164-0.166-0.337-0.254-0.517c-0.089-0.181-0.129-0.337-0.121-0.472
		S56.644,28.011,56.771,27.892z M40.736,40.735c0.012-0.035,0.033-0.061,0.062-0.078c0.03-0.017,0.051-0.043,0.063-0.079
		l1.591-1.527c0.132-0.127,0.266-0.26,0.397-0.399c0.133-0.139,0.269-0.219,0.411-0.24c0.201-0.055,0.391-0.032,0.565,0.064
		c0.176,0.098,0.362,0.19,0.562,0.277c0.281,0.124,0.555,0.25,0.818,0.379c0.261,0.129,0.533,0.256,0.814,0.379
		c0.094,0.05,0.188,0.099,0.281,0.148c0.094,0.049,0.187,0.098,0.28,0.146c0.327,0.148,0.646,0.299,0.958,0.453
		c0.309,0.154,0.627,0.305,0.955,0.453c0.82,0.371,1.631,0.762,2.431,1.173c0.8,0.412,1.618,0.797,2.448,1.156
		c0.07,0.024,0.129,0.056,0.176,0.091c0.046,0.037,0.104,0.068,0.175,0.093c0.259,0.123,0.515,0.247,0.772,0.37
		c0.259,0.123,0.516,0.245,0.771,0.369c0.141,0.051,0.268,0.108,0.377,0.176c0.111,0.067,0.231,0.131,0.359,0.193
		c0.528,0.235,1.043,0.48,1.545,0.739c0.504,0.258,1.013,0.498,1.527,0.721c0.059,0.013,0.104,0.034,0.132,0.064
		c0.03,0.03,0.073,0.052,0.132,0.064c0.059,0.037,0.137,0.077,0.237,0.12c0.099,0.044,0.196,0.096,0.289,0.157
		c0.093,0.061,0.167,0.133,0.226,0.216c0.057,0.084,0.066,0.178,0.029,0.284c-0.039,0.153-0.176,0.33-0.408,0.532
		c-0.234,0.202-0.424,0.372-0.568,0.511l-0.85,0.817c-0.096,0.093-0.181,0.179-0.254,0.26c-0.072,0.081-0.154,0.146-0.251,0.189
		c-0.167,0.092-0.333,0.112-0.496,0.062c-0.153-0.039-0.298-0.098-0.431-0.177c-0.135-0.08-0.278-0.149-0.43-0.212
		c-0.246-0.135-0.494-0.266-0.746-0.396c-0.252-0.129-0.5-0.249-0.744-0.36c-0.142-0.073-0.27-0.142-0.387-0.203
		s-0.229-0.111-0.334-0.148s-0.221-0.049-0.345-0.032c-0.124,0.015-0.259,0.068-0.402,0.159c-0.061,0.059-0.12,0.111-0.181,0.156
		c-0.059,0.046-0.12,0.099-0.18,0.156l-2.854,2.742c-0.205,0.197-0.426,0.405-0.666,0.625c-0.242,0.22-0.382,0.441-0.422,0.665
		c-0.027,0.165,0,0.324,0.079,0.479s0.153,0.316,0.222,0.483c0.1,0.298,0.225,0.589,0.373,0.875
		c0.146,0.286,0.281,0.579,0.406,0.876c0.067,0.167,0.145,0.337,0.229,0.51c0.085,0.173,0.115,0.342,0.088,0.506
		c-0.014,0.106-0.07,0.224-0.167,0.352c-0.097,0.129-0.215,0.259-0.353,0.392c-0.139,0.134-0.282,0.267-0.433,0.399
		c-0.15,0.132-0.28,0.25-0.388,0.355c-0.157,0.15-0.344,0.335-0.561,0.556s-0.402,0.347-0.557,0.379
		c-0.096,0.021-0.181-0.001-0.256-0.067c-0.076-0.066-0.143-0.146-0.199-0.243c-0.058-0.096-0.108-0.191-0.154-0.286
		c-0.045-0.096-0.078-0.179-0.101-0.25c-0.146-0.393-0.306-0.783-0.481-1.17c-0.176-0.388-0.342-0.771-0.5-1.153
		c-0.044-0.142-0.101-0.273-0.17-0.393c-0.068-0.119-0.125-0.25-0.168-0.393c-0.148-0.347-0.301-0.697-0.459-1.055
		s-0.311-0.709-0.457-1.055c-0.135-0.333-0.273-0.658-0.414-0.974c-0.142-0.315-0.28-0.64-0.415-0.974
		c-0.36-0.928-0.747-1.843-1.161-2.742c-0.411-0.899-0.799-1.813-1.158-2.742c-0.033-0.084-0.068-0.155-0.102-0.215
		c-0.034-0.06-0.068-0.131-0.103-0.215c-0.147-0.346-0.3-0.696-0.458-1.055c-0.158-0.356-0.305-0.714-0.439-1.071
		c-0.066-0.189-0.146-0.375-0.237-0.554s-0.122-0.363-0.095-0.551C40.613,40.957,40.662,40.852,40.736,40.735z M33.711,73.674
		c-0.255-0.02-0.496-0.061-0.728-0.124c-0.23-0.062-0.47-0.111-0.714-0.145c-0.082-0.023-0.148-0.049-0.199-0.076
		c-0.053-0.027-0.123-0.045-0.213-0.054c-0.12-0.023-0.235-0.065-0.346-0.123c-0.111-0.058-0.234-0.103-0.368-0.134
		c-0.09-0.009-0.158-0.03-0.206-0.065c-0.049-0.034-0.113-0.062-0.195-0.086l-0.4-0.208c-0.09-0.009-0.212-0.054-0.369-0.135
		c-0.154-0.081-0.262-0.155-0.319-0.223l-0.245-0.127c-0.081-0.061-0.172-0.113-0.271-0.155c-0.101-0.043-0.18-0.098-0.238-0.166
		c-0.119-0.099-0.244-0.184-0.379-0.253c-0.133-0.069-0.25-0.148-0.354-0.241c-0.141-0.128-0.281-0.248-0.42-0.357
		c-0.142-0.111-0.277-0.238-0.409-0.382c-0.169-0.183-0.337-0.358-0.501-0.529c-0.166-0.171-0.322-0.35-0.469-0.539
		c-0.162-0.196-0.312-0.406-0.451-0.629c-0.139-0.222-0.266-0.438-0.383-0.649c-0.391-0.768-0.658-1.547-0.803-2.337
		c-0.146-0.79-0.159-1.662-0.04-2.616c0.011-0.201,0.047-0.409,0.11-0.621c0.062-0.212,0.122-0.425,0.178-0.641
		c0.009-0.09,0.034-0.175,0.076-0.257c0.043-0.081,0.068-0.167,0.076-0.257c0.025-0.118,0.07-0.223,0.134-0.312
		c0.065-0.088,0.108-0.192,0.134-0.312c0-0.037,0.021-0.078,0.063-0.123c0.042-0.043,0.063-0.084,0.063-0.122
		c0.747-1.512,1.664-2.626,2.75-3.342c1.088-0.715,2.22-1.124,3.402-1.227c0.62-0.034,1.287,0.021,2.004,0.165
		c0.119,0.024,0.26,0.069,0.423,0.135c0.164,0.066,0.263,0.156,0.3,0.268c0.064,0.129,0.07,0.264,0.016,0.404
		s-0.125,0.293-0.209,0.456l-0.75,1.445c-0.086,0.163-0.168,0.312-0.248,0.45c-0.081,0.137-0.181,0.23-0.302,0.281
		c-0.158,0.087-0.331,0.115-0.521,0.081c-0.191-0.032-0.379-0.05-0.565-0.054c-0.276,0.026-0.546,0.066-0.81,0.117
		c-0.262,0.053-0.521,0.144-0.777,0.274c-0.338,0.182-0.67,0.441-0.996,0.78c-0.068,0.06-0.13,0.131-0.184,0.216
		c-0.053,0.085-0.106,0.161-0.16,0.228c-0.037,0.036-0.08,0.1-0.127,0.188c-0.121,0.162-0.24,0.383-0.357,0.661
		c-0.115,0.278-0.197,0.499-0.244,0.663c-0.023,0.119-0.051,0.227-0.083,0.323c-0.031,0.097-0.049,0.201-0.05,0.313
		c-0.037,0.47-0.023,0.915,0.041,1.334s0.211,0.828,0.436,1.228c0.175,0.354,0.395,0.674,0.658,0.962
		c0.265,0.288,0.556,0.58,0.872,0.875c0.14,0.13,0.288,0.244,0.442,0.344c0.156,0.1,0.307,0.206,0.455,0.321l0.289,0.149
		c0.074,0.076,0.164,0.137,0.272,0.183c0.106,0.047,0.213,0.097,0.316,0.15c0.253,0.131,0.509,0.254,0.767,0.37
		c0.26,0.117,0.517,0.202,0.77,0.258c0.067,0.017,0.123,0.036,0.168,0.059c0.044,0.023,0.1,0.044,0.166,0.06
		c0.865,0.185,1.651,0.235,2.361,0.152c0.713-0.082,1.388-0.38,2.031-0.894c0.128-0.103,0.251-0.212,0.369-0.331
		c0.117-0.117,0.241-0.246,0.371-0.386c0.061-0.081,0.108-0.165,0.143-0.251c0.035-0.085,0.087-0.156,0.154-0.216
		c0.076-0.073,0.148-0.177,0.219-0.31c0.068-0.134,0.115-0.26,0.141-0.379c0.022-0.082,0.053-0.15,0.092-0.206
		c0.038-0.056,0.065-0.116,0.081-0.184c0.024-0.082,0.053-0.147,0.087-0.195c0.033-0.048,0.051-0.108,0.052-0.184
		c0.049-0.238,0.095-0.46,0.134-0.665c0.041-0.204,0.059-0.411,0.055-0.62c-0.031-0.486-0.132-0.916-0.305-1.288
		c-0.174-0.372-0.434-0.751-0.779-1.137c-0.133-0.145-0.303-0.285-0.516-0.423c-0.211-0.138-0.402-0.148-0.576-0.031
		c-0.105,0.059-0.194,0.158-0.268,0.299c-0.074,0.141-0.144,0.277-0.212,0.411l-0.589,1.134c-0.047,0.088-0.094,0.188-0.139,0.295
		c-0.047,0.107-0.108,0.198-0.184,0.271l-0.104,0.2c-0.046,0.052-0.088,0.105-0.127,0.161c-0.038,0.056-0.083,0.098-0.136,0.127
		c-0.098,0.044-0.214,0.049-0.348,0.017c-0.134-0.031-0.274-0.08-0.419-0.146c-0.145-0.064-0.293-0.142-0.443-0.23
		c-0.152-0.088-0.295-0.167-0.429-0.236c-0.118-0.062-0.228-0.123-0.327-0.185c-0.1-0.061-0.18-0.125-0.238-0.194
		c-0.104-0.128-0.149-0.256-0.139-0.382c0.016-0.105,0.039-0.187,0.07-0.246l0.127-0.244c0.008-0.053,0.029-0.112,0.064-0.179
		c0.033-0.066,0.066-0.13,0.098-0.189l0.335-0.645l1.684-3.245c0.132-0.252,0.279-0.538,0.444-0.856s0.342-0.495,0.529-0.53
		c0.158-0.013,0.332,0.031,0.523,0.132c0.193,0.1,0.379,0.195,0.557,0.287l2.312,1.201l3.646,1.892
		c0.283,0.146,0.551,0.291,0.806,0.433c0.255,0.143,0.37,0.328,0.344,0.56c-0.001,0.112-0.036,0.231-0.101,0.357
		s-0.128,0.248-0.189,0.366c-0.154,0.297-0.297,0.547-0.432,0.75c-0.133,0.204-0.326,0.296-0.58,0.276
		c-0.166-0.009-0.336-0.041-0.516-0.097c-0.178-0.055-0.346-0.076-0.503-0.064c-0.046,0.016-0.097,0.035-0.157,0.061
		s-0.102,0.078-0.127,0.16c-0.031,0.135-0.023,0.265,0.022,0.392c0.047,0.129,0.085,0.256,0.112,0.383
		c0.043,0.211,0.076,0.407,0.104,0.59c0.027,0.184,0.051,0.384,0.07,0.601c0.018,0.255,0.008,0.509-0.029,0.762
		c-0.037,0.254-0.076,0.511-0.118,0.771c-0.009,0.089-0.03,0.177-0.065,0.263c-0.035,0.085-0.064,0.168-0.088,0.25
		c-0.031,0.134-0.082,0.268-0.152,0.401c-0.068,0.133-0.123,0.274-0.162,0.423c-0.016,0.067-0.058,0.154-0.122,0.261
		c-0.065,0.108-0.116,0.18-0.153,0.217l-0.116,0.223c-0.054,0.066-0.097,0.133-0.131,0.199c-0.034,0.067-0.079,0.134-0.132,0.2
		l-0.094,0.179c-0.09,0.103-0.175,0.209-0.25,0.319c-0.076,0.111-0.161,0.219-0.252,0.321c-0.084,0.089-0.163,0.18-0.239,0.272
		c-0.077,0.092-0.156,0.182-0.24,0.271c-0.364,0.375-0.724,0.687-1.077,0.937c-0.913,0.636-1.828,1.064-2.742,1.286
		C35.869,73.711,34.844,73.773,33.711,73.674z M35.06,111.326c-0.189,0-0.352-0.142-0.373-0.334
		c-0.022-0.206,0.126-0.392,0.332-0.414l4.106-0.451c0.207-0.014,0.391,0.126,0.414,0.332c0.022,0.206-0.126,0.392-0.332,0.414
		l-4.106,0.451C35.087,111.325,35.073,111.326,35.06,111.326z M36.666,118.042c-0.188,0-0.35-0.14-0.372-0.33
		c-0.025-0.205,0.121-0.393,0.327-0.417l5.5-0.667c0.202-0.03,0.393,0.122,0.417,0.327c0.025,0.205-0.121,0.393-0.327,0.417
		l-5.5,0.667C36.696,118.041,36.681,118.042,36.666,118.042z M38.834,124.875c-0.167,0-0.319-0.112-0.363-0.281
		c-0.052-0.201,0.069-0.405,0.27-0.457l5.832-1.5c0.203-0.053,0.405,0.07,0.457,0.27c0.052,0.201-0.069,0.405-0.27,0.457l-5.832,1.5
		C38.896,124.871,38.864,124.875,38.834,124.875z M42.334,130.375c-0.164,0-0.314-0.108-0.361-0.273
		c-0.056-0.2,0.061-0.407,0.26-0.463l4.166-1.167c0.205-0.051,0.406,0.062,0.463,0.26c0.056,0.2-0.061,0.407-0.26,0.463
		l-4.166,1.167C42.401,130.37,42.367,130.375,42.334,130.375z M48.316,134.844l-2.666,1.167c-0.049,0.021-0.1,0.031-0.15,0.031
		c-0.145,0-0.282-0.084-0.344-0.225c-0.083-0.189,0.004-0.411,0.193-0.494l2.666-1.167c0.188-0.083,0.411,0.003,0.494,0.193
		C48.593,134.539,48.506,134.761,48.316,134.844z M61.21,146.695c-0.786,0.776-1.834,1.222-2.875,1.222
		c-0.904,0-1.733-0.333-2.333-0.939l-4.304-4.37c-0.594-0.598-0.919-1.423-0.913-2.32c0.006-1.052,0.465-2.104,1.259-2.884
		l0.913-0.904l-0.304-1.872c-0.925-0.06-1.792-0.391-2.458-0.972c-0.754-0.658-1.168-1.536-1.165-2.474l-0.2-3.972l3.359,0.428
		l-0.018,3.553c0.013,0.049,0.139,0.161,0.349,0.238c0.209-0.304,0.537-0.531,0.933-0.603c0.088-0.014,0.165-0.02,0.241-0.02
		c0.463,0,0.864,0.23,1.118,0.577c0.14-0.07,0.22-0.153,0.231-0.198l0.022-3.263l3.158,0.458l-0.035,2.812
		c0.002,1.53-1.144,2.821-2.713,3.273l0.133,0.818c0.981-0.07,1.946,0.216,2.609,0.887l4.302,4.359
		c0.597,0.603,0.922,1.428,0.916,2.324c-0.002,0.42-0.096,0.835-0.235,1.238l0.681,0.328c0.715-0.935,1.774-1.515,2.891-1.515
		c0.381,0,0.754,0.068,1.107,0.204l5.731,2.166c1.57,0.6,2.4,2.362,2.062,4.144l0.855,0.384c0.092-0.063,0.173-0.137,0.271-0.194
		l1.163-0.691c0.666-0.395,1.412-0.604,2.158-0.604c1.264,0,2.374,0.595,2.97,1.59l3.117,5.278c0.969,1.639,0.255,3.868-1.592,4.97
		l-1.17,0.687c-0.665,0.398-1.414,0.609-2.163,0.609c-1.263,0-2.368-0.596-2.959-1.594l-3.122-5.272
		c-0.439-0.747-0.517-1.611-0.314-2.438l-0.198-0.09c-0.697,1.216-1.923,1.997-3.225,1.997c-0.377,0-0.745-0.066-1.096-0.196
		l-5.732-2.177c-1.728-0.652-2.55-2.73-1.906-4.696l-1.218-0.588L61.21,146.695z M84.212,147.26
		c0.885-1.061,2.042-3.824,2.054-3.853c0.079-0.19,0.296-0.283,0.49-0.201c0.19,0.079,0.281,0.299,0.201,0.49
		c-0.049,0.117-1.212,2.896-2.169,4.044c-0.074,0.089-0.181,0.135-0.288,0.135c-0.085,0-0.17-0.028-0.24-0.087
		C84.101,147.655,84.079,147.419,84.212,147.26z M79.487,165.604c-0.143,0.121-0.256,0.209-0.34,0.256
		c-0.337,0.197-0.666,0.393-0.99,0.588c-0.325,0.193-0.655,0.389-0.99,0.586c-0.932,0.52-1.842,1.051-2.734,1.592
		c-0.896,0.539-1.799,1.072-2.715,1.6c-0.289,0.148-0.569,0.305-0.84,0.469c-0.272,0.168-0.549,0.336-0.831,0.504
		c-0.206,0.1-0.399,0.203-0.583,0.312s-0.36,0.25-0.531,0.422c-0.055,0.066-0.096,0.135-0.125,0.203
		c-0.028,0.07-0.069,0.139-0.123,0.205c-0.039,0.035-0.075,0.08-0.107,0.141c-0.031,0.059-0.063,0.117-0.096,0.174l-0.371,0.684
		l-1.56,2.859c-0.151,0.277-0.312,0.58-0.479,0.908c-0.17,0.324-0.369,0.494-0.601,0.5c-0.12,0.012-0.249-0.021-0.39-0.1
		c-0.139-0.076-0.274-0.148-0.406-0.221l-1.54-0.838c-0.161-0.09-0.304-0.176-0.427-0.264c-0.125-0.086-0.2-0.193-0.225-0.322
		c-0.025-0.127-0.006-0.25,0.057-0.367c0.064-0.117,0.133-0.26,0.207-0.43l0.467-0.857l1.559-2.859l0.457-0.836
		c0.047-0.086,0.097-0.18,0.148-0.275c0.053-0.094,0.084-0.186,0.094-0.275c0.062-0.252,0.09-0.496,0.082-0.725
		c-0.006-0.232-0.024-0.463-0.055-0.688c-0.004-0.307-0.01-0.609-0.018-0.908c-0.008-0.301-0.021-0.607-0.039-0.922
		c-0.031-0.227-0.039-0.453-0.027-0.684c0.012-0.232,0.003-0.461-0.027-0.686c-0.053-0.809-0.091-1.609-0.115-2.402
		c-0.025-0.793-0.057-1.59-0.095-2.391c-0.017-0.391-0.031-0.764-0.044-1.123c-0.014-0.359-0.022-0.73-0.022-1.111
		c-0.013-0.08-0.02-0.215-0.024-0.398c-0.006-0.184,0.049-0.309,0.164-0.381c0.061-0.043,0.123-0.061,0.186-0.055
		c0.064,0.006,0.129,0.018,0.195,0.035c0.037,0.002,0.069,0.016,0.094,0.037c0.025,0.023,0.058,0.035,0.096,0.037l1.936,1.053
		c0.174,0.098,0.358,0.197,0.549,0.301c0.19,0.105,0.328,0.217,0.414,0.34c0.121,0.162,0.182,0.375,0.18,0.639
		c-0.002,0.268,0.008,0.502,0.031,0.703c0.033,0.533,0.053,1.057,0.057,1.57c0.004,0.516,0.022,1.041,0.057,1.572
		c0.029,0.398,0.043,0.789,0.041,1.18c-0.002,0.389,0.012,0.779,0.042,1.176c0.009,0.158,0.013,0.326,0.011,0.506
		c-0.003,0.18,0.068,0.328,0.214,0.445c0.095,0.07,0.202,0.082,0.324,0.035c0.122-0.051,0.22-0.09,0.296-0.125
		c0.244-0.133,0.476-0.273,0.699-0.418c0.221-0.145,0.454-0.285,0.698-0.418c0.579-0.332,1.153-0.668,1.724-1.016
		c0.566-0.346,1.146-0.691,1.733-1.037c0.222-0.125,0.466-0.279,0.734-0.457c0.269-0.176,0.528-0.254,0.782-0.229
		c0.172-0.002,0.396,0.082,0.674,0.254c0.278,0.17,0.52,0.311,0.725,0.422l1.231,0.674c0.116,0.062,0.236,0.133,0.357,0.207
		c0.12,0.076,0.205,0.156,0.255,0.238C79.662,165.352,79.63,165.48,79.487,165.604z M98.853,176.285
		c-0.015,0.24-0.044,0.412-0.086,0.508l-0.032,0.324c-0.048,0.162-0.082,0.334-0.099,0.52c-0.018,0.182-0.051,0.363-0.102,0.543
		c-0.045,0.113-0.081,0.227-0.108,0.342c-0.027,0.113-0.063,0.227-0.107,0.342c-0.112,0.291-0.218,0.576-0.321,0.85
		c-0.102,0.275-0.223,0.541-0.363,0.797c-0.609,1.115-1.375,2.02-2.297,2.713c-0.92,0.693-2.023,1.189-3.311,1.484
		c-0.188,0.051-0.377,0.084-0.562,0.098c-0.186,0.016-0.372,0.031-0.558,0.049c-0.087,0.027-0.176,0.033-0.269,0.023
		c-0.089-0.008-0.178-0.008-0.263,0l-0.83-0.002c-0.068,0.01-0.186,0.002-0.351-0.02c-0.164-0.025-0.271-0.047-0.319-0.07
		c-0.083-0.023-0.161-0.035-0.236-0.035c-0.076,0.004-0.155-0.01-0.236-0.035l-0.274-0.025c-0.131-0.043-0.254-0.076-0.367-0.096
		c-0.115-0.02-0.238-0.053-0.369-0.1c-0.129-0.045-0.26-0.088-0.391-0.125s-0.262-0.078-0.391-0.125
		c-0.177-0.082-0.356-0.168-0.542-0.252c-0.185-0.084-0.364-0.176-0.539-0.277c-0.957-0.525-1.747-1.186-2.367-1.975
		c-0.622-0.787-1.101-1.701-1.438-2.74c-0.078-0.24-0.139-0.494-0.18-0.758c-0.043-0.264-0.093-0.533-0.15-0.809
		c-0.026-0.084-0.035-0.156-0.029-0.217c0.005-0.057,0.002-0.119-0.008-0.188c-0.022-0.121-0.036-0.244-0.041-0.371
		c-0.005-0.123-0.018-0.256-0.038-0.391c-0.009-0.086-0.005-0.164,0.011-0.24c0.016-0.074,0.009-0.146-0.018-0.213
		c-0.008-0.104,0.002-0.207,0.029-0.314c0.027-0.105,0.036-0.211,0.029-0.311c-0.025-0.086-0.029-0.217-0.014-0.393
		c0.018-0.172,0.045-0.301,0.087-0.381c0.024-0.082,0.032-0.16,0.022-0.236c-0.009-0.076-0.002-0.156,0.023-0.236l0.014-0.152
		c0.045-0.111,0.067-0.223,0.069-0.332c0.001-0.107,0.023-0.211,0.067-0.307c0.04-0.082,0.066-0.166,0.074-0.258
		c0.009-0.09,0.033-0.176,0.074-0.258c0.111-0.273,0.203-0.545,0.279-0.816c0.076-0.27,0.177-0.533,0.303-0.789
		c0.158-0.27,0.311-0.541,0.453-0.812s0.31-0.523,0.5-0.758c0.574-0.75,1.211-1.359,1.91-1.832c0.698-0.471,1.531-0.852,2.498-1.146
		c0.225-0.062,0.459-0.107,0.706-0.135c0.245-0.027,0.487-0.062,0.726-0.107c0.087-0.025,0.168-0.035,0.243-0.025
		c0.073,0.006,0.154,0.004,0.239-0.004l0.755-0.002c0.034-0.014,0.08-0.012,0.137,0.012c0.058,0.023,0.102,0.027,0.138,0.014
		c1.183,0.076,2.193,0.293,3.033,0.65c0.837,0.357,1.575,0.809,2.21,1.355c0.202,0.17,0.411,0.361,0.626,0.574
		c0.215,0.215,0.387,0.428,0.518,0.641c0.076,0.092,0.15,0.186,0.225,0.287c0.076,0.098,0.141,0.191,0.2,0.281
		c0.157,0.283,0.314,0.572,0.472,0.863s0.285,0.6,0.391,0.93c0.076,0.242,0.143,0.475,0.197,0.697
		c0.055,0.225,0.11,0.465,0.171,0.721c0.035,0.172,0.059,0.346,0.076,0.525c0.017,0.176,0.041,0.357,0.073,0.547
		c0.022,0.121,0.028,0.234,0.019,0.342c-0.011,0.107-0.004,0.215,0.021,0.314c0.023,0.104,0.025,0.209,0.007,0.316
		s-0.022,0.203-0.014,0.289l-0.02,0.199C98.862,175.871,98.866,176.043,98.853,176.285z M88.945,157.36
		c0.74-2.96,3.223-14.374,3.248-14.489c0.044-0.201,0.239-0.329,0.446-0.286c0.202,0.044,0.33,0.243,0.286,0.446
		c-0.024,0.114-2.51,11.54-3.252,14.511c-0.043,0.171-0.196,0.284-0.364,0.284c-0.03,0-0.061-0.004-0.091-0.011
		C89.018,157.765,88.896,157.562,88.945,157.36z M97.516,159.527c0.075,0.192-0.019,0.411-0.211,0.487
		c-0.046,0.018-0.093,0.026-0.139,0.026c-0.148,0-0.289-0.089-0.348-0.234c-0.516-1.29,0.353-17.421,0.453-19.256
		c0.011-0.207,0.188-0.376,0.395-0.354c0.207,0.011,0.365,0.188,0.354,0.395C97.644,147.452,97.174,158.659,97.516,159.527z
		 M104.118,160.022c-0.039,0.014-0.079,0.02-0.118,0.02c-0.157,0-0.304-0.1-0.355-0.257c-0.51-1.528-1.421-15.947-1.459-16.561
		c-0.014-0.207,0.144-0.385,0.351-0.397c0.212-0.026,0.385,0.144,0.397,0.351c0.261,4.149,1.024,15.178,1.422,16.371
		C104.421,159.745,104.315,159.957,104.118,160.022z M102.954,137.07c-0.728-1.019-3.392-6.114-3.913-7.566
		c-0.077-0.038-0.156-0.065-0.236-0.067c-0.67,1.557-1.61,2.742-2.745,4.162c-0.595,0.744-1.27,1.588-1.985,2.591
		c-2.848,3.985-8.106,5.696-10.765,6.079c-1.952,0.278-4.159,1.422-6.252,2.617c-0.078,0.044-0.163,0.065-0.248,0.065
		c-0.173,0-0.342-0.091-0.435-0.252c-0.137-0.24-0.053-0.546,0.187-0.683c2.046-1.167,4.204-2.28,6.213-2.663
		c-2.884-2.639-3.305-3.782-2.327-2.666c0.688,0.785,2.098,1.899,2.956,2.552c1.033-0.17,2.413-0.533,3.866-1.143
		c-3.46-0.226-5.037-1.921-5.794-2.806c-2.644-4.037-2.057-4.553-1.908-4.185c1.541,4.7,5.14,5.948,6.608,6.391
		c0.65,0.194,1.396,0.213,2.031,0.177c1.863-0.907,3.739-2.227,5.053-4.066c0.732-1.024,1.416-1.879,2.019-2.634
		c1.835-2.293,3.046-3.809,3.472-7.32c0.019-0.15,0.107-0.272,0.225-0.351c0.1-1.017,0.134-1.887,0.177-2.283
		c0.098-0.928,0.195-5.63,0.242-6.217c0.049-0.587,0.196-2.937,0.148-3.918c-0.05-0.978,0.048-3.182,0.099-3.866
		c0.047-0.685,0.047-1.909,0.047-1.909c0.393-0.489,0.246,1.712,0.246,2.888c0,0.588-0.024,2.13-0.055,3.611
		c0.346,0.331,1.264,1.204,1.62,1.479c0.439,0.343-0.031,0.617-0.98-0.244c-0.3-0.272-0.515-0.476-0.653-0.609
		c-0.028,1.236-0.059,2.323-0.08,2.617c-0.047,0.687-0.023,6.512-0.023,7.001c0,0.199-0.078,0.804-0.151,1.527
		c0.095,0.104,0.15,0.243,0.132,0.395c-0.065,0.54-0.153,1.028-0.254,1.491c-0.005,0.477,0.021,0.913,0.099,1.237
		c0.021,0.089,0.039,0.167,0.059,0.251c0.138,0.053,0.253,0.159,0.301,0.311c0.351,1.121,3.14,6.469,3.821,7.425
		c0.65,0.909,2.754,3.383,5.063,4.821c0.501,0.052,1.115,0.061,1.801-0.053c1.761-0.294,3.302-0.438,4.846-1.909
		c1.542-1.468,2.644-2.425,1.322-0.734c-1.322,1.689-2.132,2.424-3.673,2.937c-0.945,0.316-2.304,0.327-3.351,0.272
		c0.149,0.07,0.298,0.157,0.447,0.216c1.699,0.664,2.955,0.791,4.063,0.902c0.81,0.082,1.509,0.152,2.183,0.423
		c1.594,0.636,8.348,3.951,12.229,5.891c0.247,0.123,0.347,0.424,0.224,0.671c-0.088,0.175-0.265,0.276-0.447,0.276
		c-0.075,0-0.151-0.017-0.224-0.053c-4.153-2.075-10.671-5.265-12.153-5.857c-0.544-0.217-1.147-0.278-1.912-0.355
		c-1.114-0.112-2.501-0.253-4.326-0.966C106.807,141.779,103.839,138.308,102.954,137.07z M120.425,156.031
		c-0.03,0.007-0.061,0.011-0.091,0.011c-0.168,0-0.321-0.113-0.364-0.284c-0.174-0.697-2.066-4.163-3.296-6.322
		c-0.103-0.18-0.039-0.409,0.141-0.512c0.179-0.102,0.408-0.04,0.512,0.141c0.318,0.559,3.116,5.491,3.372,6.512
		C120.748,155.777,120.626,155.98,120.425,156.031z M112.368,158.094c0.04,0.203-0.092,0.4-0.295,0.441
		c-0.024,0.005-0.049,0.007-0.073,0.007c-0.176,0-0.332-0.123-0.368-0.302c-0.249-1.249-2.439-11.712-2.439-11.712l0.734-0.154
		C109.927,146.374,112.117,156.843,112.368,158.094z M123.152,181.08c-0.088,0.07-0.202,0.117-0.34,0.148s-0.271,0.059-0.403,0.088
		c-0.326,0.07-0.61,0.117-0.852,0.145c-0.241,0.025-0.437-0.064-0.583-0.271c-0.099-0.131-0.182-0.285-0.254-0.459
		c-0.072-0.172-0.162-0.314-0.271-0.426c-0.04-0.027-0.088-0.055-0.146-0.086c-0.058-0.029-0.125-0.029-0.204,0.006
		c-0.123,0.062-0.219,0.15-0.287,0.268c-0.07,0.117-0.145,0.229-0.224,0.328c-0.136,0.168-0.265,0.318-0.39,0.457
		c-0.125,0.137-0.263,0.283-0.418,0.436c-0.185,0.178-0.386,0.33-0.604,0.465c-0.22,0.131-0.443,0.264-0.671,0.4
		c-0.074,0.051-0.155,0.088-0.243,0.115c-0.09,0.027-0.171,0.057-0.247,0.092c-0.125,0.062-0.261,0.107-0.408,0.139
		c-0.146,0.033-0.291,0.078-0.431,0.145c-0.062,0.031-0.153,0.055-0.278,0.072s-0.213,0.023-0.266,0.02l-0.243,0.053
		c-0.085,0-0.166,0.01-0.238,0.023c-0.074,0.018-0.153,0.025-0.239,0.027l-0.197,0.041c-0.138-0.004-0.273,0-0.404,0.012
		c-0.134,0.014-0.27,0.016-0.408,0.01c-0.122-0.008-0.243-0.01-0.363-0.01c-0.118,0-0.239-0.004-0.361-0.014
		c-0.52-0.041-0.99-0.117-1.406-0.234c-1.073-0.297-1.987-0.729-2.741-1.293c-0.751-0.564-1.452-1.314-2.099-2.252
		c-0.146-0.207-0.27-0.42-0.368-0.637c-0.099-0.219-0.212-0.434-0.344-0.645c-0.032-0.078-0.055-0.146-0.067-0.203
		c-0.012-0.057-0.044-0.123-0.095-0.197c-0.057-0.107-0.099-0.221-0.125-0.344s-0.069-0.246-0.131-0.371
		c-0.051-0.074-0.077-0.139-0.081-0.199c-0.005-0.059-0.024-0.127-0.058-0.205l-0.096-0.439c-0.051-0.076-0.095-0.197-0.13-0.369
		c-0.037-0.172-0.048-0.303-0.032-0.393l-0.06-0.27c-0.004-0.1-0.021-0.203-0.055-0.309c-0.03-0.102-0.037-0.199-0.021-0.289
		c0-0.152-0.016-0.305-0.046-0.451c-0.033-0.146-0.046-0.289-0.042-0.428c0.011-0.188,0.013-0.373,0.009-0.551
		c-0.005-0.18,0.009-0.363,0.035-0.559c0.033-0.246,0.062-0.486,0.088-0.723s0.063-0.471,0.115-0.705
		c0.051-0.248,0.116-0.498,0.2-0.748c0.083-0.248,0.168-0.484,0.256-0.707c0.342-0.793,0.771-1.494,1.288-2.109
		s1.181-1.182,1.993-1.697c0.162-0.121,0.344-0.225,0.546-0.312c0.206-0.084,0.407-0.176,0.608-0.271
		c0.075-0.049,0.158-0.084,0.248-0.104c0.09-0.018,0.171-0.053,0.246-0.104c0.106-0.057,0.217-0.09,0.326-0.098
		c0.109-0.006,0.217-0.037,0.324-0.096c0.03-0.021,0.074-0.033,0.136-0.027c0.059,0.004,0.104-0.006,0.136-0.029
		c1.641-0.389,3.082-0.393,4.326-0.012s2.282,0.998,3.112,1.844c0.423,0.455,0.807,1.004,1.15,1.648
		c0.057,0.107,0.111,0.244,0.166,0.412c0.051,0.168,0.047,0.303-0.017,0.4c-0.058,0.131-0.156,0.221-0.301,0.27
		c-0.143,0.049-0.305,0.092-0.483,0.129l-1.593,0.344c-0.18,0.037-0.349,0.07-0.504,0.098c-0.158,0.023-0.294,0.006-0.41-0.055
		c-0.166-0.066-0.3-0.182-0.394-0.35c-0.097-0.168-0.204-0.324-0.32-0.471c-0.194-0.197-0.396-0.379-0.604-0.547
		c-0.208-0.17-0.442-0.311-0.707-0.426c-0.355-0.146-0.768-0.236-1.238-0.271c-0.087-0.016-0.182-0.018-0.28-0.004
		c-0.101,0.014-0.192,0.02-0.278,0.021c-0.053-0.006-0.127,0.002-0.226,0.025c-0.201,0.008-0.449,0.057-0.738,0.145
		c-0.287,0.086-0.51,0.166-0.666,0.234c-0.107,0.057-0.208,0.104-0.302,0.141c-0.097,0.037-0.187,0.09-0.274,0.16
		c-0.385,0.271-0.719,0.566-1.001,0.883c-0.283,0.316-0.506,0.691-0.671,1.117c-0.162,0.359-0.267,0.734-0.321,1.119
		c-0.053,0.389-0.093,0.799-0.118,1.232c-0.012,0.189-0.005,0.377,0.018,0.559c0.021,0.184,0.037,0.369,0.043,0.557l0.068,0.316
		c-0.014,0.105-0.002,0.215,0.03,0.326c0.033,0.111,0.062,0.227,0.086,0.34c0.062,0.279,0.129,0.555,0.203,0.828
		c0.077,0.273,0.174,0.525,0.292,0.758c0.03,0.062,0.053,0.117,0.062,0.164c0.011,0.051,0.03,0.105,0.061,0.166
		c0.41,0.785,0.873,1.424,1.39,1.92c0.515,0.494,1.177,0.826,1.98,0.994c0.162,0.035,0.324,0.059,0.49,0.074
		c0.167,0.016,0.344,0.029,0.535,0.037c0.101-0.004,0.194-0.02,0.282-0.047s0.178-0.033,0.265-0.018
		c0.105,0.01,0.232,0.002,0.379-0.031c0.147-0.031,0.274-0.074,0.382-0.133c0.078-0.033,0.15-0.053,0.219-0.061
		c0.065-0.004,0.129-0.023,0.19-0.055c0.079-0.033,0.146-0.053,0.206-0.057c0.06-0.002,0.118-0.027,0.175-0.076
		c0.217-0.113,0.417-0.221,0.601-0.32c0.184-0.098,0.353-0.217,0.511-0.355c0.356-0.332,0.622-0.684,0.799-1.055
		c0.176-0.371,0.303-0.811,0.382-1.324c0.026-0.193,0.023-0.416-0.003-0.666c-0.028-0.248-0.142-0.404-0.344-0.463
		c-0.111-0.045-0.245-0.051-0.4-0.018c-0.155,0.035-0.307,0.066-0.454,0.098l-1.248,0.268c-0.099,0.021-0.204,0.051-0.315,0.084
		c-0.114,0.031-0.222,0.041-0.326,0.029l-0.222,0.049c-0.067-0.002-0.136,0-0.203,0.004c-0.068,0.008-0.13-0.002-0.185-0.023
		c-0.097-0.049-0.173-0.135-0.234-0.256c-0.062-0.123-0.111-0.264-0.153-0.416c-0.042-0.154-0.076-0.316-0.105-0.49
		c-0.028-0.172-0.059-0.334-0.09-0.479c-0.03-0.131-0.052-0.254-0.067-0.371c-0.018-0.115-0.018-0.219-0.002-0.309
		c0.032-0.16,0.101-0.277,0.206-0.35c0.092-0.055,0.168-0.088,0.234-0.104l0.269-0.057c0.047-0.027,0.104-0.049,0.178-0.064
		c0.074-0.018,0.143-0.031,0.208-0.045l0.712-0.154l3.575-0.768c0.276-0.061,0.592-0.127,0.941-0.205
		c0.351-0.074,0.601-0.053,0.747,0.07c0.109,0.115,0.187,0.277,0.232,0.488c0.046,0.213,0.09,0.416,0.129,0.613l0.55,2.547
		l0.865,4.014c0.066,0.312,0.128,0.609,0.18,0.898C123.419,180.744,123.347,180.951,123.152,181.08z M146.672,167.846
		c-0.063,0.148-0.226,0.301-0.488,0.463c-0.264,0.162-0.478,0.301-0.643,0.416l-0.966,0.67c-0.109,0.078-0.208,0.152-0.291,0.221
		c-0.086,0.068-0.176,0.117-0.278,0.146c-0.18,0.062-0.346,0.059-0.502-0.018c-0.145-0.062-0.278-0.143-0.396-0.244
		c-0.12-0.098-0.252-0.189-0.39-0.275c-0.221-0.172-0.447-0.342-0.675-0.508c-0.228-0.168-0.455-0.324-0.679-0.475
		c-0.127-0.094-0.243-0.182-0.351-0.26c-0.105-0.078-0.208-0.145-0.307-0.199c-0.099-0.053-0.21-0.084-0.335-0.088
		s-0.266,0.029-0.421,0.096c-0.07,0.047-0.136,0.09-0.204,0.125c-0.065,0.037-0.133,0.08-0.201,0.127l-3.251,2.26
		c-0.231,0.162-0.486,0.332-0.758,0.512c-0.271,0.178-0.444,0.375-0.519,0.59c-0.053,0.158-0.053,0.32,0.002,0.486
		s0.103,0.334,0.143,0.51c0.052,0.311,0.129,0.617,0.229,0.924s0.188,0.617,0.266,0.93c0.039,0.176,0.087,0.355,0.145,0.539
		c0.057,0.186,0.059,0.357,0.006,0.514c-0.03,0.104-0.103,0.209-0.219,0.32s-0.252,0.221-0.409,0.332
		c-0.158,0.109-0.322,0.219-0.491,0.326s-0.317,0.203-0.44,0.289c-0.177,0.125-0.39,0.277-0.64,0.461
		c-0.249,0.186-0.451,0.279-0.608,0.287c-0.099,0.008-0.18-0.029-0.243-0.107c-0.063-0.076-0.114-0.168-0.158-0.271
		c-0.041-0.102-0.076-0.205-0.107-0.307c-0.028-0.1-0.048-0.188-0.059-0.262c-0.083-0.412-0.18-0.822-0.292-1.232
		c-0.113-0.408-0.217-0.816-0.312-1.217c-0.022-0.146-0.058-0.285-0.105-0.414s-0.083-0.268-0.105-0.414
		c-0.092-0.365-0.186-0.736-0.284-1.115c-0.101-0.377-0.197-0.746-0.287-1.113c-0.081-0.35-0.167-0.691-0.257-1.025
		s-0.175-0.676-0.256-1.029c-0.21-0.973-0.447-1.936-0.712-2.889c-0.268-0.953-0.506-1.916-0.714-2.893
		c-0.02-0.086-0.042-0.162-0.066-0.227c-0.025-0.064-0.048-0.141-0.067-0.229c-0.09-0.363-0.187-0.734-0.285-1.113
		c-0.101-0.379-0.19-0.752-0.267-1.127c-0.035-0.197-0.086-0.393-0.147-0.582c-0.061-0.193-0.063-0.381-0.006-0.562
		c0.039-0.086,0.104-0.184,0.194-0.289c0.018-0.031,0.044-0.055,0.075-0.066c0.032-0.012,0.059-0.033,0.076-0.066l1.81-1.26
		c0.151-0.105,0.302-0.215,0.455-0.33c0.153-0.117,0.301-0.176,0.445-0.174c0.208-0.021,0.392,0.029,0.55,0.154
		c0.157,0.125,0.326,0.244,0.508,0.361c0.259,0.166,0.509,0.334,0.747,0.504c0.241,0.168,0.488,0.334,0.747,0.5
		c0.085,0.064,0.169,0.127,0.254,0.191c0.086,0.064,0.169,0.127,0.254,0.191c0.301,0.197,0.592,0.396,0.874,0.598
		c0.28,0.199,0.572,0.398,0.872,0.596c0.751,0.496,1.489,1.01,2.217,1.541c0.726,0.533,1.47,1.041,2.234,1.527
		c0.065,0.035,0.118,0.074,0.16,0.119c0.039,0.043,0.092,0.082,0.157,0.117c0.237,0.162,0.472,0.324,0.706,0.486
		s0.469,0.324,0.705,0.486c0.129,0.072,0.245,0.152,0.344,0.234c0.099,0.084,0.208,0.166,0.324,0.248
		c0.481,0.312,0.953,0.639,1.408,0.973c0.456,0.332,0.923,0.65,1.396,0.953c0.055,0.021,0.097,0.051,0.118,0.082
		c0.024,0.035,0.063,0.064,0.121,0.086c0.052,0.047,0.122,0.096,0.214,0.156c0.093,0.057,0.18,0.125,0.264,0.199
		c0.081,0.074,0.145,0.158,0.188,0.25C146.73,167.654,146.725,167.75,146.672,167.846z M150.177,136.479
		c-0.065,0.132-0.198,0.208-0.336,0.208c-0.057,0-0.113-0.013-0.167-0.039c-0.06-0.029-6.018-2.982-7.493-3.639
		c-0.189-0.084-0.274-0.306-0.19-0.495c0.085-0.188,0.305-0.273,0.495-0.19c1.49,0.663,7.276,3.53,7.522,3.652
		C150.193,136.068,150.269,136.294,150.177,136.479z M153.333,129.708c-0.018,0-0.035-0.001-0.053-0.004
		c-1.196-0.171-5.617-1.887-5.805-1.96c-0.193-0.075-0.289-0.293-0.214-0.485c0.074-0.192,0.289-0.291,0.485-0.214
		c1.562,0.607,4.75,1.79,5.639,1.917c0.205,0.029,0.348,0.219,0.318,0.424C153.678,129.573,153.517,129.708,153.333,129.708z
		 M156.699,121.416c-0.04,0.174-0.194,0.292-0.366,0.292c-0.027,0-0.055-0.003-0.083-0.009c-5.099-1.152-22.084-4.099-22.255-4.129
		c-0.204-0.035-0.341-0.229-0.305-0.434c0.034-0.203,0.214-0.348,0.434-0.305c0.171,0.029,17.175,2.979,22.292,4.135
		C156.617,121.013,156.744,121.214,156.699,121.416z M158.81,112.326c-0.009,0-0.018,0-0.026-0.001
		c-3.467-0.248-31.54-3.255-31.823-3.285c-0.206-0.022-0.354-0.207-0.333-0.413c0.021-0.205,0.19-0.353,0.413-0.333
		c0.283,0.03,28.343,3.036,31.796,3.283c0.207,0.015,0.362,0.194,0.348,0.4C159.17,112.176,159.005,112.326,158.81,112.326z
		 M160,101.375c-2.965,0-35.856,0.199-36.188,0.201c0,0-0.001,0-0.002,0c-0.206,0-0.374-0.166-0.375-0.373
		c-0.001-0.207,0.166-0.375,0.373-0.377c0.332-0.002,33.226-0.201,36.192-0.201c0.207,0,0.375,0.168,0.375,0.375
		S160.207,101.375,160,101.375z M173.516,65.432c-0.042,0.1-0.093,0.189-0.151,0.27c-0.06,0.082-0.109,0.172-0.151,0.271
		c-0.138,0.23-0.3,0.437-0.486,0.617c-0.186,0.181-0.39,0.381-0.611,0.601c-0.05,0.047-0.107,0.083-0.168,0.109
		c-0.063,0.025-0.116,0.068-0.158,0.131l-0.195,0.11c-0.101,0.094-0.238,0.181-0.413,0.26c-0.176,0.079-0.322,0.134-0.44,0.161
		c-0.134,0.036-0.248,0.081-0.342,0.134c-0.095,0.054-0.202,0.093-0.32,0.121c-0.261,0.05-0.508,0.093-0.747,0.131
		c-0.236,0.037-0.473,0.047-0.714,0.028c-0.062-0.005-0.129-0.015-0.203-0.03c-0.077-0.015-0.146-0.024-0.204-0.029
		c-0.083-0.012-0.169-0.026-0.254-0.044c-0.088-0.019-0.169-0.045-0.245-0.078c-0.123-0.047-0.243-0.094-0.366-0.14
		c-0.123-0.047-0.248-0.102-0.377-0.162c-0.076-0.033-0.157-0.065-0.241-0.095c-0.083-0.03-0.168-0.039-0.258-0.027
		c-0.104,0.02-0.169,0.075-0.193,0.165c-0.026,0.092-0.041,0.167-0.046,0.228c-0.035,0.21-0.07,0.422-0.104,0.633
		c-0.035,0.211-0.105,0.412-0.209,0.604c-0.148,0.314-0.326,0.595-0.532,0.845c-0.206,0.248-0.451,0.51-0.735,0.785
		c-0.116,0.103-0.243,0.198-0.386,0.288c-0.141,0.088-0.27,0.184-0.384,0.286c-0.087,0.049-0.171,0.1-0.245,0.152
		c-0.076,0.052-0.157,0.103-0.245,0.151c-0.051,0.047-0.109,0.086-0.18,0.115s-0.138,0.072-0.201,0.127
		c-0.051,0.048-0.107,0.084-0.169,0.109c-0.063,0.025-0.127,0.065-0.19,0.121c-0.13,0.11-0.274,0.212-0.437,0.3
		c-0.159,0.09-0.304,0.191-0.434,0.302l-0.356,0.286c-0.114,0.103-0.229,0.204-0.345,0.308c-0.113,0.103-0.221,0.2-0.321,0.295
		c-0.072,0.078-0.153,0.119-0.248,0.124c-0.092,0.005-0.166-0.007-0.219-0.034c-0.123-0.047-0.224-0.149-0.3-0.305
		c-0.079-0.158-0.165-0.316-0.255-0.477l-0.672-1.202c-0.13-0.233-0.232-0.443-0.309-0.631c-0.077-0.187-0.066-0.365,0.03-0.534
		c0.125-0.223,0.319-0.419,0.589-0.588c0.268-0.17,0.509-0.353,0.726-0.55c0.059-0.032,0.111-0.067,0.157-0.104
		s0.092-0.065,0.136-0.09c0.151-0.142,0.324-0.268,0.521-0.378c0.195-0.11,0.366-0.224,0.511-0.344
		c0.035-0.039,0.097-0.083,0.184-0.132c0.145-0.119,0.294-0.236,0.449-0.352c0.155-0.116,0.3-0.241,0.436-0.374
		c0.272-0.305,0.491-0.61,0.664-0.918c0.173-0.307,0.243-0.643,0.21-1.008c-0.011-0.09-0.03-0.174-0.057-0.255
		s-0.048-0.174-0.067-0.277c-0.06-0.312-0.187-0.639-0.377-0.98c-0.193-0.342-0.381-0.681-0.569-1.017l-1.004-1.792
		c-0.096-0.1-0.175-0.188-0.238-0.269c-0.063-0.079-0.147-0.128-0.252-0.146c-0.213-0.034-0.467,0.041-0.765,0.228
		c-0.298,0.186-0.569,0.348-0.817,0.486l-2.797,1.566c-0.116,0.066-0.239,0.13-0.368,0.192c-0.127,0.062-0.25,0.125-0.366,0.19
		c-0.115,0.065-0.223,0.124-0.317,0.178c-0.094,0.053-0.186,0.085-0.275,0.097c-0.156,0.03-0.292-0.009-0.408-0.115
		c-0.069-0.057-0.133-0.137-0.19-0.237c-0.057-0.103-0.118-0.212-0.184-0.328l-0.552-0.983c-0.132-0.233-0.272-0.479-0.428-0.737
		c-0.153-0.258-0.217-0.48-0.188-0.669c0.007-0.157,0.109-0.291,0.307-0.401s0.391-0.219,0.581-0.324l13.285-7.443
		c0.16-0.09,0.326-0.188,0.497-0.293c0.169-0.105,0.326-0.15,0.469-0.134c0.121,0.009,0.254,0.077,0.403,0.205
		c0.03,0.021,0.053,0.052,0.067,0.092c0.012,0.041,0.033,0.071,0.063,0.093l4.162,7.43c0.132,0.233,0.252,0.457,0.364,0.673
		c0.111,0.215,0.199,0.43,0.261,0.644c0.011,0.089,0.039,0.174,0.085,0.254c0.044,0.081,0.072,0.165,0.083,0.254
		c0.029,0.118,0.058,0.237,0.086,0.355c0.026,0.117,0.048,0.241,0.062,0.367c0.044,0.453,0.035,0.899-0.026,1.336
		S173.706,65.056,173.516,65.432z"/>
	<path d="M94.409,45.535c-0.006,0.896-0.028,2.071-0.051,3.049c0.116-0.118,0.245-0.232,0.389-0.338
		c0.102-0.075,0.219-0.119,0.326-0.182c0.196-0.718,0.278-1.553,0.096-1.81C94.979,45.987,94.683,45.735,94.409,45.535z"/>
	<path d="M99.907,130.61c0.141,0.369,0.077-0.407-0.262-1.856c-0.101-0.038-0.213-0.053-0.326-0.018
		c-0.264,0.083-0.41,0.363-0.328,0.627c0.013,0.039,0.033,0.094,0.05,0.141C99.446,129.698,99.793,130.302,99.907,130.61z"/>
	<path d="M108.355,141.699c0.227,0.028,0.763,0.089,1.421,0.124c-0.317-0.15-0.632-0.317-0.945-0.513
		c-0.787-0.082-1.285-0.272-1.285-0.272S107.765,141.625,108.355,141.699z"/>
</g>
</svg>
